<?xml version="1.0" standalone="no"?>
<!DOCTYPE svg PUBLIC "-//W3C//DTD SVG 1.1//EN" "http://www.w3.org/Graphics/SVG/1.1/DTD/svg11.dtd" >
<svg xmlns="http://www.w3.org/2000/svg" xmlns:xlink="http://www.w3.org/1999/xlink" version="1.1">
<metadata></metadata>
<defs>
<font id="unispaceitalic" horiz-adv-x="1251" >
<font-face units-per-em="2048" ascent="1550" descent="-498" />
<missing-glyph horiz-adv-x="500" />
<glyph horiz-adv-x="0" />
<glyph unicode="&#xd;" />
<glyph />
<glyph unicode=" " />
<glyph unicode="!" d="M406 0l51 246h317l-51 -246h-317zM524 463l252 1192h277l-252 -1192h-277z" />
<glyph unicode="&#x22;" d="M553 1255l106 502h193l-107 -502h-192zM918 1255l106 502h190l-106 -502h-190z" />
<glyph unicode="#" d="M176 428l31 143h174l94 441h-174l31 147h174l104 496h160l-104 -496h307l104 496h162l-104 -496h151l-31 -147h-151l-94 -441h151l-31 -143h-151l-90 -428h-162l90 428h-307l-90 -428h-160l90 428h-174zM541 571h307l94 441h-307z" />
<glyph unicode="$" d="M70 141l28 138h455l92 428h-252q-86 0 -133 76.5t-47 189.5q0 106 28.5 194t77 151.5t113 98.5t135.5 35h236l43 203h125l-43 -203h418l-29 -139h-418l-88 -410h297q74 0 113 -71.5t39 -180.5q0 -104 -27 -196.5t-71 -162t-100 -110.5t-116 -41h-297l-28 -141h-125 l28 141h-454zM469 1026q0 -53 18.5 -88t57.5 -35h133l96 410h-141q-29 0 -57.5 -22.5t-52 -61.5t-39 -91.5t-15.5 -111.5zM678 279h151q35 0 68 24.5t59.5 64.5t42 91t15.5 104q0 59 -22.5 101.5t-69.5 42.5h-152z" />
<glyph unicode="%" d="M221 0l901 1655h150l-899 -1655h-152zM223 1044q0 25 4 54.5t13 66.5l55 252q29 133 73 185.5t130 52.5h198q59 0 90 -28t31 -97q0 -49 -14 -113l-55 -252q-29 -133 -76 -186t-129 -53h-199q-61 0 -91 26.5t-30 91.5zM377 1092q0 -51 35 -52h106q31 0 48.5 30t33.5 95 l55 252q8 39 9 72q0 53 -37 53h-107q-53 0 -80 -125l-53 -250q-6 -25 -8 -43t-2 -32zM664 121q0 51 14 117l55 254q14 68 31.5 112.5t41 72.5t55.5 40t73 12h201q59 0 88.5 -27.5t29.5 -95.5q0 -51 -14 -114l-55 -254q-29 -131 -76 -184.5t-127 -53.5h-201q-59 0 -87.5 27.5 t-28.5 93.5zM813 164q0 -51 37 -51h104q33 0 51.5 30.5t32.5 94.5l56 254q8 35 8 67q0 55 -41 55h-105q-55 0 -79 -122l-54 -250q-6 -25 -8 -44.5t-2 -33.5z" />
<glyph unicode="&#x26;" d="M104 319q0 90 18.5 181.5t53.5 170.5t85 140t116 96q-49 43 -70.5 100.5t-21.5 129.5q0 104 32.5 197t89 165t130 114t155.5 42h459l-29 -137h-317q-53 0 -101.5 -30t-85 -81t-59 -117.5t-22.5 -140.5q0 -80 34.5 -127t106.5 -47h639l-31 -137h-246l-147 -701h246 l-29 -137h-780q-111 0 -168.5 89t-57.5 230zM365 354q0 -98 36.5 -157.5t104.5 -59.5h209l147 701h-209q-94 0 -164.5 -87t-107.5 -264q-16 -76 -16 -133z" />
<glyph unicode="'" d="M733 1255l107 502h194l-106 -502h-195z" />
<glyph unicode="(" d="M195 -180q0 35 10 82l346 1630q18 90 75.5 168t137.5 135t177 90t198 33h178l-31 -139h-211q-47 0 -95 -27t-89 -68t-70.5 -91t-40.5 -99l-344 -1616q-12 -59 -12 -102q0 -49 16.5 -82t55.5 -53.5t101 -29.5t153 -9h73l-28 -140h-142q-211 0 -334.5 83t-123.5 235z" />
<glyph unicode=")" d="M121 -498l29 140h75q111 0 185.5 15t124 48t77 85t43.5 128l344 1616q4 12 4.5 24.5t0.5 26.5q0 43 -13.5 85t-37 75t-57.5 53.5t-75 20.5h-209l31 139h178q86 0 162 -26.5t131 -74t87 -111t32 -138.5q0 -18 -2 -38t-6 -38l-346 -1630q-20 -94 -75.5 -168t-136.5 -125 t-185.5 -79t-221.5 -28h-139z" />
<glyph unicode="*" d="M373 1210l266 50l-160 172l199 163l131 -200l104 260l213 -60l-143 -249l270 86l13 -222l-269 -51l162 -176l-196 -162l-134 199l-106 -260l-209 61l135 248l-264 -86z" />
<glyph unicode="+" d="M281 834l30 141h383l72 340h156l-72 -340h379l-31 -141h-379l-78 -367h-155l78 367h-383z" />
<glyph unicode="," d="M326 -375l131 621h317l-225 -621h-223z" />
<glyph unicode="-" d="M184 694l29 144h1051l-29 -144h-1051z" />
<glyph unicode="." d="M426 0l49 240h277l-50 -240h-276z" />
<glyph unicode="/" d="M29 0l1249 1655h174l-1243 -1655h-180z" />
<glyph unicode="0" d="M86 299q0 66 14 131l168 789q18 88 57.5 167.5t91.5 139t116.5 94.5t134.5 35h493q115 0 173.5 -85t58.5 -216q0 -70 -15 -135l-168 -789q-18 -90 -58 -169t-92 -137t-116.5 -91t-132.5 -33h-494q-111 0 -171 83t-60 216zM322 338q0 -12 1 -24.5t3 -24.5l706 1210 q-31 18 -71 19h-197q-45 0 -87 -24t-77 -64.5t-61.5 -95t-38.5 -115.5l-168 -789q-4 -25 -7 -47.5t-3 -44.5zM453 152q29 -14 69 -15h193q45 0 86 23.5t75.5 63.5t60.5 93.5t38 112.5l168 789q6 29 8 53t2 47v21.5t-2 21.5z" />
<glyph unicode="1" d="M27 0l28 137h416l293 1381h-268l28 137h541l-322 -1518h390l-29 -137h-1077z" />
<glyph unicode="2" d="M12 0l103 483q20 94 58 173t89 136.5t113.5 90t132.5 32.5h342q51 0 100 33t88 88.5t61.5 127t22.5 149.5q0 92 -37.5 148.5t-107.5 56.5h-473l28 137h621q113 0 173 -84t60 -219q0 -113 -33.5 -216.5t-91 -183.5t-134 -127t-160.5 -47h-344q-86 0 -147.5 -80t-90.5 -215 l-74 -346h838l-29 -137h-1108z" />
<glyph unicode="3" d="M20 0l29 137h627q49 0 99 36t90 96.5t64.5 137t24.5 160.5q0 88 -35.5 147.5t-107.5 59.5h-274l28 139h275q51 0 98 32t83 86t57.5 128t21.5 158q0 90 -38 145.5t-108 55.5h-596l29 137h743q111 0 173.5 -80t62.5 -213q0 -86 -18.5 -165t-52 -145.5t-80 -117.5t-99.5 -80 q53 -35 77 -104.5t24 -155.5q0 -111 -35 -217.5t-93.5 -190.5t-135 -135t-158.5 -51h-775z" />
<glyph unicode="4" d="M72 311l39 185l809 1159h366l-258 -1213h184l-26 -129h-185l-65 -313h-246l66 311h-684zM276 442h506l232 1084z" />
<glyph unicode="5" d="M6 0l29 137h616q129 0 204 96.5t116 294.5q23 106 22 166q0 94 -42 127t-120 33h-645l170 801h977l-28 -137h-717l-111 -525h471q158 0 230.5 -67.5t72.5 -212.5q0 -80 -22 -193q-51 -246 -172 -383t-295 -137h-756z" />
<glyph unicode="6" d="M68 207q0 37 6 80t16 96l189 889q25 113 57.5 187.5t81.5 117.5t116.5 60.5t163.5 17.5h557l-28 -137h-443q-92 0 -147 -59.5t-86 -207.5l-55 -262h571q102 0 154.5 -56t52.5 -157q0 -23 -2 -48.5t-8 -51.5l-64 -293q-25 -113 -57.5 -186.5t-80.5 -117.5t-116.5 -61.5 t-165.5 -17.5h-432q-147 0 -213.5 44t-66.5 163zM354 272q0 -74 34 -104.5t104 -30.5h204q170 0 219 221l66 308q10 51 10 82q0 104 -86 104h-438l-94 -444q-18 -80 -19 -136z" />
<glyph unicode="7" d="M172 0l983 1518h-838l29 137h1139l-1055 -1655h-258z" />
<glyph unicode="8" d="M92 264q0 76 23 185q23 102 50.5 173.5t64 121t81.5 80t101 50.5q-59 31 -86 81.5t-27 121.5q0 66 18 150q41 197 136.5 312.5t263.5 115.5h395q129 0 184.5 -66.5t55.5 -187.5q0 -96 -18.5 -180t-52.5 -152t-83 -118t-111 -77q68 -29 105 -81t37 -152q0 -76 -25 -192 q-47 -217 -148.5 -333t-293.5 -116h-395q-147 0 -211 67.5t-64 196.5zM358 319q0 -96 39 -139t109 -43h174q92 0 161.5 75t104.5 247q18 86 19 147q0 92 -38 135t-110 43h-174q-98 0 -164.5 -76.5t-103.5 -248.5q-10 -41 -13.5 -76t-3.5 -64zM547 1096q0 -94 41 -133 t112 -39h119q92 0 162 66.5t104 230.5q16 82 17 129q0 96 -43 132t-113 36h-119q-47 0 -87 -14.5t-73.5 -48.5t-60 -91t-45.5 -143q-14 -70 -14 -125z" />
<glyph unicode="9" d="M96 0l29 137h571q92 0 143.5 58.5t84.5 207.5l43 201h-570q-104 0 -154 51.5t-50 149.5q0 25 4 52.5t10 57.5l76 365q25 113 56.5 187.5t80.5 117.5t116.5 60.5t161.5 17.5h435q147 0 213.5 -43t66.5 -164q0 -68 -22 -176l-191 -897q-25 -113 -57.5 -186.5t-81.5 -117.5 t-118 -61.5t-163 -17.5h-684zM475 858q0 -117 82 -117h438l109 508q10 41 13 75t3 60q0 74 -32.5 104t-98.5 30h-209q-178 0 -223 -224l-63 -301q-18 -80 -19 -135z" />
<glyph unicode=":" d="M406 0l51 246h317l-51 -246h-317zM559 725l51 242h318l-51 -242h-318z" />
<glyph unicode=";" d="M326 -375l131 621h317l-225 -621h-223zM559 725l51 242h318l-51 -242h-318z" />
<glyph unicode="&#x3c;" d="M381 860l866 629l-39 -186l-575 -414l-8 -35l399 -414l-39 -186z" />
<glyph unicode="=" d="M272 629l29 141h852l-29 -141h-852zM365 1063l30 145h852l-30 -145h-852z" />
<glyph unicode="&#x3e;" d="M250 254l39 186l575 414l8 35l-399 414l39 186l602 -629z" />
<glyph unicode="?" d="M238 0l49 240h276l-49 -240h-276zM358 1518l29 137h748q111 0 172 -81t61 -216q0 -109 -35 -213.5t-92 -185t-134 -131t-159 -50.5h-133q-117 0 -196.5 -97t-116.5 -269h-80q-31 55 -31 108q0 66 27.5 136.5t77 128t118 94t148.5 36.5h67q49 0 97.5 31t87.5 85t63.5 128 t24.5 158q0 90 -38 145.5t-108 55.5h-598z" />
<glyph unicode="@" d="M16 -178q0 18 3.5 38.5t7.5 43.5l235 1112q61 297 299 297h588q158 0 158 -174q0 -57 -15 -123l-180 -848h-520q-150 0 -150 188q0 121 26 213.5t70 154.5t101 94t119 32h198l-116 -551h145l150 711q12 55 12 92q0 74 -51 74h-576q-37 0 -61.5 -40t-42.5 -126l-234 -1102 q-6 -31 -6 -53q0 -59 49 -60h807l-28 -137h-795q-193 0 -193 164zM586 377q0 -78 39 -78h92l92 436h-92q-14 0 -37 -24.5t-43.5 -70.5t-35.5 -112.5t-15 -150.5z" />
<glyph unicode="A" d="M4 0l723 1655h399v-1655h-274l8 360h-438l-143 -360h-275zM479 502h385l21 975h-13z" />
<glyph unicode="B" d="M6 0l350 1655h785q111 0 172 -81t61 -216q0 -180 -68.5 -304t-170.5 -198q53 -43 78.5 -101.5t25.5 -138.5q0 -111 -35 -221t-93 -198t-135 -142.5t-163 -54.5h-807zM307 137h387q51 0 100.5 36t88.5 95.5t63.5 138t24.5 164.5q0 88 -35 147.5t-107 59.5h-387zM473 920 h365q51 0 99 28.5t86 80.5t61.5 125t23.5 163t-37 145.5t-106 55.5h-365z" />
<glyph unicode="C" d="M137 297q0 31 3 64.5t12 68.5l167 789q18 88 57.5 167.5t92.5 139t117.5 94.5t136.5 35h696l-28 -137h-551q-45 0 -86 -24t-76 -64.5t-60.5 -95t-37.5 -115.5l-168 -789q-4 -25 -7.5 -47.5t-3.5 -44.5q0 -86 37 -143.5t109 -57.5h551l-29 -137h-696q-115 0 -175.5 83 t-60.5 214z" />
<glyph unicode="D" d="M20 0l351 1655h780q113 0 173 -86t60 -217q0 -70 -14 -133l-168 -789q-18 -90 -57 -168t-92.5 -136t-118 -92t-133.5 -34h-781zM322 137h360q43 0 83 22.5t74.5 62.5t61.5 93.5t39 114.5l168 789q4 25 7 49t3 47q0 88 -37 145.5t-106 57.5h-361z" />
<glyph unicode="E" d="M43 0l350 1655h1041l-29 -137h-762l-131 -619h553l-31 -139h-553l-131 -623h762l-29 -137h-1040z" />
<glyph unicode="F" d="M33 0l350 1655h1063l-29 -137h-782l-137 -644h575l-29 -139h-575l-156 -735h-280z" />
<glyph unicode="G" d="M109 305q0 61 14 125l168 789q18 88 57 167.5t92.5 139t119 94.5t136.5 35h723l-28 -137h-576q-47 0 -88 -24t-76 -64.5t-60.5 -95t-37.5 -115.5l-168 -789q-6 -25 -8 -47.5t-2 -44.5q0 -88 38 -144.5t109 -56.5h352l132 623h-299l30 141h549l-190 -901h-750 q-55 0 -99 22.5t-75 63.5t-47 96.5t-16 122.5z" />
<glyph unicode="H" d="M6 0l350 1655h277l-160 -756h563l160 756h279l-351 -1655h-278l160 760h-564l-159 -760h-277z" />
<glyph unicode="I" d="M43 0l29 137h381l292 1381h-380l28 137h1041l-29 -137h-381l-293 -1381h381l-29 -137h-1040z" />
<glyph unicode="J" d="M47 0l29 137h575q45 0 86 22.5t76 62.5t61.5 93.5t38.5 114.5l232 1088h-451l29 137h709l-261 -1225q-18 -90 -58 -169t-93 -137t-116.5 -91t-131.5 -33h-725z" />
<glyph unicode="K" d="M20 0l351 1655h276l-151 -719h16l666 719h282l-731 -778l381 -877h-309l-322 788l-16 -4l-166 -784h-277z" />
<glyph unicode="L" d="M20 0l351 1655h276l-321 -1518h809l-29 -137h-1086z" />
<glyph unicode="M" d="M14 0l351 1655h311l-64 -1409l539 1409h313l-350 -1655h-213l268 1266l-487 -1266h-238l50 1257l-267 -1257h-213z" />
<glyph unicode="N" d="M14 0l351 1655h299l294 -1358l289 1358h217l-350 -1655h-352l-281 1214l-258 -1214h-209z" />
<glyph unicode="O" d="M80 297q0 68 14 133l168 789q18 88 57 167.5t92.5 139t118 94.5t134.5 35h501q111 0 171.5 -86t60.5 -217q0 -70 -15 -133l-168 -789q-18 -90 -58 -169t-93 -137t-116.5 -91t-131.5 -33h-502q-113 0 -173 83t-60 214zM340 340q0 -88 40 -145.5t112 -57.5h204 q43 0 84 22.5t76 62.5t60.5 93.5t37.5 114.5l168 789q10 57 11 98q0 86 -36 143.5t-108 57.5h-205q-45 0 -87 -24t-77.5 -64.5t-62.5 -95t-39 -115.5l-168 -789q-6 -23 -7 -45.5t-3 -44.5z" />
<glyph unicode="P" d="M20 0l351 1655h780q109 0 166 -92.5t57 -239.5q0 -135 -37 -255t-98 -210t-139 -143t-160 -53h-506l-139 -662h-275zM465 803h358q53 0 105.5 40t92.5 108.5t64.5 158.5t24.5 193q0 96 -34 155.5t-101 59.5h-359z" />
<glyph unicode="Q" d="M82 297q0 66 14 131l168 791q18 88 57 167.5t92.5 139t117 94.5t133.5 35h499q115 0 174.5 -86t59.5 -217q0 -31 -3 -65t-12 -68l-168 -791q-18 -90 -58 -168t-94 -136t-117.5 -91t-131.5 -33h-100l65 -254h-219l-65 254h-181q-111 0 -171 83t-60 214zM344 336 q0 -88 39 -143.5t111 -55.5h200q43 0 85 23.5t76 63.5t59.5 92.5t37.5 111.5l168 791q10 57 10 98q0 86 -35.5 143.5t-107.5 57.5h-201q-45 0 -87 -24t-76.5 -64.5t-61 -95t-39.5 -115.5l-168 -791q-6 -25 -8 -47.5t-2 -44.5z" />
<glyph unicode="R" d="M16 0l351 1655h776q57 0 102 -23.5t76 -65.5t47 -99.5t16 -123.5q0 -90 -21.5 -169.5t-59 -147.5t-89 -120t-112.5 -87q102 -59 102 -239q0 -43 -6 -92.5t-16 -104.5l-80 -383h-260l80 383q16 82 16 143q0 98 -35 160t-100 62h-357l-157 -748h-273zM477 889h359 q51 0 100 34.5t88 93t61.5 134.5t22.5 156q0 92 -38 151.5t-103 59.5h-357z" />
<glyph unicode="S" d="M76 0l28 137h570q45 0 87 16.5t77.5 55.5t64.5 103.5t49 160.5q14 66 15 119q0 49 -16.5 81t-52.5 49t-91 23.5t-131 6.5h-152q-141 0 -206.5 79.5t-65.5 215.5q0 35 3 71.5t13 77.5q47 229 158 344t266 115h670l-29 -137h-557q-80 0 -145.5 -63.5t-100.5 -225.5 q-8 -35 -11 -64.5t-3 -54.5q0 -92 46 -128t136 -36h205q178 0 256 -75.5t78 -217.5q0 -141 -40 -260t-107.5 -207t-157.5 -137t-191 -49h-665z" />
<glyph unicode="T" d="M375 1518l28 137h1024l-28 -137h-369l-321 -1518h-273l322 1518h-383z" />
<glyph unicode="U" d="M86 299q0 66 14 131l260 1225h256l-260 -1225q-12 -59 -12 -106q0 -88 39 -137.5t111 -49.5h196q86 0 158 79t100 214l260 1225h262l-260 -1225q-18 -90 -58 -169t-93 -137t-117.5 -91t-132.5 -33h-492q-111 0 -171 83t-60 216z" />
<glyph unicode="V" d="M354 0v1655h275l-39 -1477h18l594 1477h275l-725 -1655h-398z" />
<glyph unicode="W" d="M141 0l152 1655h274l-205 -1440h11l375 991h147l-49 -991h10l406 1440h270l-543 -1655h-303l35 723h-8l-271 -723h-301z" />
<glyph unicode="X" d="M16 0l582 846l-209 809h287l123 -635l409 635h256l-553 -809l201 -846h-291l-110 670l-412 -670h-283z" />
<glyph unicode="Y" d="M342 1655h293l106 -836l471 836h275l-670 -1061l-125 -594h-276l127 598z" />
<glyph unicode="Z" d="M20 0l19 90l1118 1428h-815l29 137h1085l-26 -129l-1072 -1389h777l-29 -137h-1086z" />
<glyph unicode="[" d="M121 -498l522 2456h674l-31 -139h-446l-463 -2177h446l-28 -140h-674z" />
<glyph unicode="\" d="M379 1655h172l551 -1655h-180z" />
<glyph unicode="]" d="M121 -498l29 140h446l463 2177h-447l31 139h674l-522 -2456h-674z" />
<glyph unicode="^" d="M143 924l768 731l463 -731h-182l-311 485h-35l-518 -485h-185z" />
<glyph unicode="_" d="M-166 -477l37 176h1259l-36 -176h-1260z" />
<glyph unicode="`" d="M541 1423l41 195l465 -107l-29 -141z" />
<glyph unicode="a" d="M63 236q0 68 19 153q41 197 128 296t241 99h567l35 166q12 61 12 105q0 66 -33 93.5t-106 27.5h-496l29 137h610q147 0 213 -44t66 -165q0 -66 -23 -178l-197 -926h-843q-117 0 -169.5 61.5t-52.5 174.5zM330 283q0 -76 36.5 -111t120.5 -35h394l108 512h-364 q-123 0 -187.5 -56t-93.5 -196q-14 -63 -14 -114z" />
<glyph unicode="b" d="M16 0l367 1731h276l-88 -418h486q135 0 200.5 -54.5t65.5 -187.5q0 -84 -25 -201l-92 -430q-27 -125 -64.5 -209t-90 -135t-120 -73.5t-153.5 -22.5h-762zM322 137h370q41 0 75 9.5t62.5 39t52 83t42.5 143.5l104 485q10 41 13 76t3 63q0 74 -31.5 106t-99.5 32h-372z " />
<glyph unicode="c" d="M98 227q0 76 25 185l104 489q25 117 60 196t86 127t118.5 68.5t159.5 20.5h715l-29 -137h-594q-98 0 -150 -60.5t-85 -212.5l-109 -514q-8 -35 -12 -61.5t-2 -48.5q0 -45 16.5 -73t53.5 -43.5t95 -20.5t142 -5h424l-29 -137h-714q-139 0 -207 49t-68 178z" />
<glyph unicode="d" d="M88 244q0 80 25 196l92 430q27 123 62.5 207t87 136.5t120 76t160.5 23.5h479l88 418h275l-367 -1731h-754q-135 0 -201.5 54.5t-66.5 189.5zM375 309q0 -55 13 -89t42 -52t73 -24.5t105 -6.5h256l219 1037h-366q-94 0 -147.5 -62.5t-86.5 -214.5l-71 -334 q-37 -166 -37 -254z" />
<glyph unicode="e" d="M74 225q0 76 24 187l105 487q25 119 60.5 198t86.5 127t118 68.5t157 20.5h499q209 0 209 -230q0 -72 -18 -159q-80 -375 -354 -375h-558l-28 -141q-10 -43 -15.5 -77t-3.5 -63q0 -80 43 -105.5t140 -25.5h483l-29 -137h-647q-137 0 -204.5 49t-67.5 176zM434 686h426 q47 0 82 11.5t61.5 38t46 72.5t33.5 116q16 82 17 127q0 70 -32 97.5t-103 27.5h-250q-92 0 -148.5 -60.5t-87.5 -212.5z" />
<glyph unicode="f" d="M281 1176l28 137h326q20 98 53 176t83 131t121 82t167 29h405l-28 -140h-283q-53 0 -92 -21.5t-68.5 -59t-49 -89t-32.5 -108.5h316l-29 -137h-315l-250 -1176h-277l250 1176h-325z" />
<glyph unicode="g" d="M80 221q0 78 24 195l103 485q25 119 60.5 198t87 126t120 67.5t158.5 20.5h760l-297 -1397q-27 -121 -63 -201t-86 -127t-117.5 -66.5t-157.5 -19.5h-527l29 138h268q104 0 169 11t104 39.5t60.5 78t39.5 125.5l25 106h-486q-143 0 -208.5 49t-65.5 172zM356 272 q0 -74 34 -104.5t106 -30.5h372l222 1039h-279q-78 0 -132 -11.5t-92 -40t-62.5 -76t-39.5 -118.5l-112 -533q-16 -78 -17 -125z" />
<glyph unicode="h" d="M12 0l367 1731h276l-88 -418h496q145 0 210.5 -44t65.5 -165q0 -68 -22 -176l-197 -928h-274l190 903q10 41 13.5 75t3.5 62q0 74 -32 106t-97 32h-385l-250 -1178h-277z" />
<glyph unicode="i" d="M33 0l28 137h394l219 1037h-393l30 139h670l-250 -1176h393l-28 -137h-1063zM723 1501l49 230h318l-50 -230h-317z" />
<glyph unicode="j" d="M66 -498l28 138h248q80 0 132 7t87 35.5t57.5 86t45.5 159.5l266 1248h-508l29 137h784l-303 -1428q-25 -113 -58.5 -186.5t-83 -117.5t-117 -61.5t-159.5 -17.5h-448zM977 1501l49 230h317l-49 -230h-317z" />
<glyph unicode="k" d="M12 0l367 1731h276l-198 -932h18l602 514h279l-680 -592l444 -721h-323l-367 606h-14l-127 -606h-277z" />
<glyph unicode="l" d="M31 0l28 137h390l309 1454h-389l28 140h664l-338 -1594h401l-28 -137h-1065z" />
<glyph unicode="m" d="M0 0l279 1313h792q145 0 211 -44t66 -163q0 -68 -23 -176l-197 -930h-270l191 901q8 41 12 74t4 61q0 76 -33 108t-100 32h-72l-250 -1176h-159l249 1176h-180l-250 -1176h-270z" />
<glyph unicode="n" d="M14 0l279 1313h766q147 0 211.5 -45t64.5 -162q0 -68 -22 -176l-197 -930h-270l190 901q18 82 19 139q0 76 -34 106t-99 30h-385l-250 -1176h-273z" />
<glyph unicode="o" d="M51 223q0 74 25 189l104 489q25 119 60.5 199t86 127t118 66.5t159.5 19.5h479q137 0 204 -49.5t67 -176.5q0 -39 -5.5 -85t-17.5 -101l-104 -489q-25 -121 -61 -200t-86 -126t-117.5 -66.5t-157.5 -19.5h-479q-139 0 -207 48t-68 175zM334 276q0 -84 44 -111.5 t138 -27.5h156q61 0 106 10.5t77 40t54.5 82t40.5 138.5l105 495q18 82 18 137q0 72 -32.5 104t-100.5 32h-250q-94 0 -149.5 -61.5t-85.5 -211.5l-99 -469q-10 -49 -16 -88t-6 -70z" />
<glyph unicode="p" d="M-104 -498l383 1811h790q139 0 206.5 -52.5t67.5 -181.5q0 -70 -22 -178l-104 -489q-25 -121 -61 -200t-87 -126t-118.5 -66.5t-159.5 -19.5h-517l-106 -498h-272zM303 137h402q96 0 148 58.5t83 201.5l113 535q6 33 10 60.5t4 49.5q0 82 -58.5 108t-201.5 26h-279z" />
<glyph unicode="q" d="M82 219q0 78 24 193l105 489q25 119 60.5 198t87 126t119 67.5t157.5 20.5h754l-385 -1811h-275l107 498h-480q-143 0 -208.5 48t-65.5 171zM360 270q0 -74 34 -103.5t104 -29.5h366l221 1039h-274q-78 0 -132 -11.5t-91 -40t-60.5 -76t-38.5 -116.5l-112 -535 q-8 -39 -12.5 -69.5t-4.5 -57.5z" />
<glyph unicode="r" d="M57 0l195 915q84 397 559 398h539l-29 -137h-490q-78 0 -127 -8.5t-82.5 -38t-56 -88t-43.5 -156.5l-186 -885h-279z" />
<glyph unicode="s" d="M41 0l29 137h731q37 0 71.5 28t61.5 71t42 97t15 107q0 55 -22.5 91t-77.5 36h-502q-53 0 -92 21.5t-65.5 57.5t-39 83t-12.5 100q0 23 3 47.5t7 49.5q39 186 137.5 286.5t264.5 100.5h725l-29 -137h-684q-29 0 -59.5 -24t-55 -61.5t-41 -88t-16.5 -105.5q0 -59 22.5 -96 t61.5 -37h492q61 0 103 -19.5t69.5 -54.5t40 -81t12.5 -97q0 -57 -12 -115q-41 -184 -129 -290.5t-230 -106.5h-821z" />
<glyph unicode="t" d="M281 1176l28 137h338l72 342h274l-71 -342h452l-28 -137h-453l-172 -805q-8 -39 -13.5 -70t-5.5 -55q0 -33 11.5 -54.5t37 -34t69.5 -16.5t110 -4l-29 -137h-196q-80 0 -136.5 7t-90.5 26.5t-49 51.5t-15 81q0 33 6 71.5t16 88.5l182 850h-337z" />
<glyph unicode="u" d="M70 205q0 37 5 81t17 97l199 930h270l-192 -905q-18 -80 -19 -134q0 -74 34 -105.5t103 -31.5h383l250 1176h279l-279 -1313h-774q-147 0 -211.5 43t-64.5 162z" />
<glyph unicode="v" d="M260 1313h279l53 -1168l557 1168h278l-669 -1313h-385z" />
<glyph unicode="w" d="M166 0l70 1313h278l-127 -1168l307 818h148l-43 -818l372 1168h279l-485 -1313h-312l41 623l-217 -623h-311z" />
<glyph unicode="x" d="M4 0l557 664l-280 649h270l188 -502l418 502h250l-561 -639l280 -674h-270l-186 508l-402 -508h-264z" />
<glyph unicode="y" d="M154 -498l313 498l-221 1313h305l117 -996l557 996h217l-1063 -1811h-225z" />
<glyph unicode="z" d="M51 0l17 82l966 1094h-733l29 137h1026l-27 -121l-917 -1055h694l-29 -137h-1026z" />
<glyph unicode="{" d="M319 729q123 59 195 135t94 176l105 492q18 90 75.5 168t137.5 135t177 90t197 33h80l-30 -139h-113q-47 0 -95 -27t-89 -68t-70 -91t-39 -99l-106 -494q-10 -47 -38 -91t-68 -84t-88 -74.5t-99 -61.5q68 -51 119 -114.5t51 -141.5q0 -10 -1 -19.5t-3 -19.5l-111 -516 q-10 -43 -15 -77t-5 -62q0 -37 11 -63.5t37.5 -43t71.5 -23.5t111 -7h76l-29 -140h-43q-209 0 -334 83t-125 235q0 35 11 82l114 532q6 31 6 60q0 147 -168 235z" />
<glyph unicode="|" d="M358 -498l523 2456h198l-522 -2456h-199z" />
<glyph unicode="}" d="M59 -498l29 140h70q86 0 142 14t93 46t59.5 85t39.5 131l110 516q8 45 36 86t65.5 78t86 69.5t99.5 61.5q-70 47 -117 116.5t-47 149.5v21.5t4 23.5l107 494q4 12 4 25.5v27.5q0 43 -12.5 85t-36 74t-57.5 52.5t-75 20.5h-108l31 139h75q88 0 164 -26.5t131.5 -73 t86 -109.5t30.5 -139q0 -43 -8 -78l-105 -492q-6 -35 -6 -65q0 -150 168 -246q-127 -51 -197.5 -126t-91.5 -169l-114 -532q-20 -94 -74.5 -168t-135.5 -125t-185.5 -79t-223.5 -28h-37z" />
<glyph unicode="~" d="M258 682q14 63 37.5 122.5t56.5 104.5t73 72t87 27h154q51 0 80.5 -28t53 -61.5t49 -61.5t69.5 -28q51 0 91 49.5t56 129.5h160q-12 -59 -40 -116.5t-66 -104t-82 -75t-89 -28.5h-112q-66 0 -93.5 30.5t-47 67.5t-43 68t-79.5 31q-31 0 -56 -18.5t-44.5 -47.5t-33 -63.5 t-21.5 -69.5h-160z" />
<glyph unicode="&#xa0;" />
<glyph unicode="&#xa1;" d="M319 -498l254 1192h277l-254 -1192h-277zM598 911l51 242h318l-52 -242h-317z" />
<glyph unicode="&#xa2;" d="M279 397q0 55 18 135l125 592q18 86 44 142.5t62.5 90.5t85 47t111.5 13h154l49 238h96l-49 -238h266l-22 -98h-267l-207 -981h267l-23 -98h-266l-49 -240h-96l49 240h-154q-98 0 -146 32.5t-48 124.5zM479 426q0 -57 38 -72.5t132 -15.5l207 981h-70q-125 0 -163 -191 l-131 -612q-12 -55 -13 -90z" />
<glyph unicode="&#xa3;" d="M213 786l31 144h188l64 297q18 92 58 170t93 135t116.5 90t131.5 33h508l-29 -137h-358q-43 0 -85 -22.5t-76 -61.5t-60.5 -92.5t-38.5 -114.5l-64 -297h336l-31 -144h-335l-138 -645h586l-29 -141h-845l165 786h-188z" />
<glyph unicode="&#xa5;" d="M219 166l19 94h231l43 201h-231l20 96h231l11 41l-201 1057h291l98 -858l465 858h291l-670 -1061l-8 -37h258l-20 -96h-259l-43 -201h259l-19 -94h-258l-35 -166h-276l35 166h-232z" />
<glyph unicode="&#xa6;" d="M362 -451l175 826h213l-175 -826h-213zM698 1135l176 823h213l-176 -823h-213z" />
<glyph unicode="&#xa7;" d="M47 -262l31 137h604q33 0 67.5 24.5t61.5 64.5t44 92.5t17 105.5q0 59 -25.5 100t-74.5 41h-377q-51 0 -90 20.5t-64.5 57.5t-39 87t-13.5 107q0 135 55.5 243t149.5 169q-41 37 -58.5 86t-17.5 109q0 104 30 191t80 149.5t117.5 97.5t143.5 35h637l-29 -137h-559 q-31 0 -60.5 -24t-53 -62.5t-39 -89t-15.5 -105.5q0 -59 20.5 -95t59.5 -36h398q100 0 146 -72.5t46 -183.5q0 -66 -13.5 -130.5t-38 -121.5t-60 -105.5t-80.5 -80.5q33 -33 47 -80t14 -105q0 -100 -26.5 -189t-72.5 -155.5t-108.5 -105.5t-134.5 -39h-719zM440 629 q0 -57 21.5 -92t60.5 -35h350q27 16 50.5 44.5t41 65.5t27.5 77t10 79q0 59 -25.5 99t-74.5 40h-297q-29 0 -58.5 -22.5t-53 -61.5t-38 -89t-14.5 -105z" />
<glyph unicode="&#xa8;" d="M449 1409l43 209h276l-43 -209h-276zM1001 1409l43 209h277l-43 -209h-277z" />
<glyph unicode="&#xa9;" d="M96 274q0 98 22.5 233.5t61.5 319.5q55 264 106.5 434.5t128.5 267.5t196.5 135t312.5 38q127 0 214 -15.5t141 -51.5t77.5 -97t23.5 -154q0 -98 -23.5 -234t-62.5 -323q-55 -264 -105 -434t-126 -268t-195.5 -135t-314.5 -37q-127 0 -214 15.5t-141.5 52t-78 98 t-23.5 155.5zM227 381q0 -92 21.5 -150.5t64.5 -91.5t109.5 -45t157.5 -12q131 0 223 26.5t159.5 106.5t120 226.5t103.5 385.5q31 147 47 258t16 193q0 90 -20.5 148.5t-63.5 91t-109.5 45t-158.5 12.5q-131 0 -223 -27.5t-161 -108.5t-120 -227.5t-102 -384.5 q-31 -147 -47.5 -255.5t-16.5 -190.5zM412 524q0 39 8 72l96 446q12 53 37 99.5t57.5 79t72.5 51t83 18.5h274l-14 -76h-180q-61 0 -105.5 -51t-60.5 -121l-96 -446q-6 -25 -6 -49q0 -51 25.5 -85t74.5 -34h180l-16 -78h-275q-72 0 -113.5 47t-41.5 127z" />
<glyph unicode="&#xaa;" d="M393 944q0 74 23.5 140.5t61.5 117.5t88 82t104 31h334l16 78q8 35 8 63q0 35 -16.5 46t-50.5 11h-340l28 144h410q98 0 145 -33t47 -121q0 -27 -4 -57.5t-12 -69.5l-133 -628h-553q-74 0 -115 54t-41 142zM608 954q0 -66 39 -65h264l62 289h-176q-104 0 -146.5 -53.5 t-42.5 -170.5z" />
<glyph unicode="&#xab;" d="M268 690l27 123l485 346l-41 -194l-340 -217l248 -218l-43 -194zM741 690l27 123l483 346l-41 -194l-340 -217l248 -218l-43 -194z" />
<glyph unicode="&#xac;" d="M281 834l30 141h918l-103 -481h-139l72 340h-778z" />
<glyph unicode="&#xad;" d="M123 694l29 144h1051l-29 -144h-1051zM123 694z" />
<glyph unicode="&#xae;" d="M258 1008q0 141 59.5 267t153.5 221t213 150.5t240 55.5q94 0 173 -33t135 -92t87 -140t31 -175q0 -141 -57.5 -266.5t-151.5 -220.5t-214 -150.5t-243 -55.5q-94 0 -173 33t-135.5 91.5t-87 138t-30.5 176.5zM358 1028q0 -78 25 -146.5t70 -119.5t107.5 -81t139.5 -30 q100 0 198.5 48.5t176.5 129t127 186t49 218.5q0 80 -25.5 147.5t-71.5 118.5t-110.5 80t-140.5 29q-102 0 -199.5 -50.5t-174 -132.5t-124 -186t-47.5 -211zM481 813l135 637h365q55 0 87 -34t32 -89q0 -68 -34 -120t-91 -81q55 -23 55 -100q0 -14 -2 -31.5t-6 -36.5 l-31 -145h-125l31 145q4 18 6 34t2 30q0 80 -69 80h-166l-62 -289h-127zM680 1155h168q53 0 89 42t36 124q0 76 -74 76h-168z" />
<glyph unicode="&#xaf;" d="M412 1432l39 186h911l-39 -186h-911z" />
<glyph unicode="&#xb0;" d="M397 987q0 29 3 61.5t14 71.5l67 316q35 164 102.5 229.5t194.5 65.5h305q98 0 144.5 -39t46.5 -131q0 -55 -14 -125l-68 -316q-35 -164 -105.5 -231.5t-195.5 -67.5h-305q-98 0 -143.5 38t-45.5 128zM569 1012q0 -76 64 -76h260q47 0 74.5 39t44.5 121l78 364 q4 25 7 44.5t3 35.5q0 72 -64 72h-260q-47 0 -74.5 -36t-44.5 -116l-75 -360q-12 -53 -13 -88z" />
<glyph unicode="&#xb1;" d="M43 0l30 141h918l-31 -141h-917zM43 0zM220 834l30 141h383l72 340h156l-72 -340h379l-31 -141h-379l-78 -367h-155l78 367h-383z" />
<glyph unicode="&#xb2;" d="M489 852l21 98h291q39 0 70.5 50.5t31.5 136.5q0 29 -11 47t-38 18h-141l22 101h142q41 0 71.5 53t30.5 135q0 63 -49 63h-291l23 105h356q57 0 84.5 -42t27.5 -108q0 -80 -31.5 -144.5t-101.5 -115.5q53 -53 54 -129q0 -57 -19.5 -106t-49.5 -85t-65.5 -56.5 t-70.5 -20.5h-357z" />
<glyph unicode="&#xb3;" d="M483 852l52 244q20 98 72 156.5t124 58.5h150q18 0 36.5 14t33 37.5t22.5 53.5t8 61q0 35 -12.5 56t-36.5 21h-223l20 101h293q53 0 82 -43t29 -109q0 -61 -17.5 -114.5t-45.5 -91t-64.5 -60.5t-75.5 -23h-158q-61 0 -86 -118l-31 -146h373l-20 -98h-525z" />
<glyph unicode="&#xb4;" d="M694 1370l29 141l510 107l-41 -195z" />
<glyph unicode="&#xb6;" d="M244 973q0 135 37.5 259t100 217t140.5 149.5t158 56.5h782l-456 -2153h-252l420 1979h-222l-420 -1979h-223l246 1160h-86q-111 0 -168 84.5t-57 226.5z" />
<glyph unicode="&#xb7;" d="M508 676l49 240h277l-50 -240h-276zM508 676z" />
<glyph unicode="&#xb8;" d="M332 -498l84 396h252l-174 -396h-162z" />
<glyph unicode="&#xb9;" d="M537 854l20 96h135l129 609h-119l23 100h268l-151 -709h119l-21 -96h-403z" />
<glyph unicode="&#xba;" d="M381 911q0 29 3 62t13 74l68 313q18 82 42.5 139t60.5 92t83 50.5t111 15.5h305q98 0 144 -39t46 -133q0 -55 -14 -125l-67 -313q-18 -84 -44 -142.5t-63 -93.5t-85 -50.5t-110 -15.5h-305q-98 0 -143 37t-45 129zM610 961q0 -74 64 -74h160q47 0 72.5 37t43.5 123 l68 313q4 25 7 46t3 38q0 72 -61 72h-160q-47 0 -74.5 -38t-44.5 -118l-65 -309q-12 -55 -13 -90z" />
<glyph unicode="&#xbb;" d="M193 336l43 194l337 215l-245 220l41 194l336 -352l-27 -123zM666 336l43 194l338 215l-246 220l41 194l334 -352l-27 -123z" />
<glyph unicode="&#xbc;" d="M14 0l1315 1655h150l-1309 -1655h-156zM166 854l20 96h133l130 609h-117l22 100h269l-152 -709h119l-21 -96h-403zM651 141l23 109l375 553h184l-121 -565h84l-18 -93h-84l-31 -145h-141l28 141h-299zM782 238h203l88 415z" />
<glyph unicode="&#xbd;" d="M12 0l1313 1655h152l-1311 -1655h-154zM162 854l20 96h135l129 609h-116l22 100h266l-151 -709h121l-21 -96h-405zM629 0l51 244q20 98 70.5 156.5t121.5 58.5h150q18 0 37.5 13t34 36.5t23.5 52.5t9 60q0 35 -14 57t-39 22h-223l22 103h291q53 0 82 -41t29 -109 q0 -61 -17.5 -114.5t-45 -93t-65.5 -62.5t-77 -23h-156q-59 0 -84 -116l-30 -146h370l-20 -98h-520z" />
<glyph unicode="&#xbe;" d="M0 0l1315 1655h149l-1308 -1655h-156zM184 852l21 98h266q37 0 68.5 49.5t31.5 135.5q0 31 -11 49t-36 18h-141l23 101h141q41 0 70.5 53t29.5 133q0 66 -47 65h-266l22 105h332q55 0 83 -42t28 -108q0 -78 -32 -143.5t-101 -116.5q53 -53 53 -129q0 -57 -18.5 -106 t-48 -85t-65.5 -56.5t-71 -20.5h-332zM637 141l22 109l373 553h187l-121 -565h82l-19 -93h-82l-30 -145h-142l29 141h-299zM766 238h205l88 415z" />
<glyph unicode="&#xbf;" d="M6 -201q0 109 35 213.5t92 185.5t133 131t160 50h133q117 0 197 97t116 269h80q29 -55 29 -108q0 -66 -26.5 -136.5t-76 -128t-117 -94t-147.5 -36.5h-67q-49 0 -98.5 -31t-89.5 -85t-64.5 -128t-24.5 -158q0 -92 39 -146t109 -54h598l-29 -138h-747q-111 0 -172.5 81 t-61.5 216zM811 918l49 237h277l-50 -237h-276z" />
<glyph unicode="&#xc0;" d="M-57 0l723 1655h399v-1655h-274l8 360h-438l-143 -360h-275zM0 0zM418 502h385l21 975h-13zM551 1765l41 195l465 -107l-29 -141z" />
<glyph unicode="&#xc1;" d="M-57 0l723 1655h399v-1655h-274l8 360h-438l-143 -360h-275zM0 0zM418 502h385l21 975h-13zM704 1712l29 141l510 107l-41 -195z" />
<glyph unicode="&#xc2;" d="M-57 0l723 1655h399v-1655h-274l8 360h-438l-143 -360h-275zM0 0zM418 502h385l21 975h-13zM461 1718l301 242h311l197 -242h-240l-133 160l-197 -160h-239z" />
<glyph unicode="&#xc3;" d="M-57 0l723 1655h399v-1655h-274l8 360h-438l-143 -360h-275zM0 0zM418 502h385l21 975h-13zM426 1753q23 98 101.5 152.5t219.5 54.5q66 0 105 -14.5t70.5 -31t63.5 -30.5t81 -14q47 0 77.5 14t43.5 76h174q-16 -82 -94 -143.5t-222 -61.5q-74 0 -113.5 16.5t-69.5 35 t-58.5 35t-77.5 16.5q-61 0 -88 -24t-39 -81h-174z" />
<glyph unicode="&#xc4;" d="M-57 0l723 1655h399v-1655h-274l8 360h-438l-143 -360h-275zM0 0zM418 502h385l21 975h-13zM459 1751l43 209h276l-43 -209h-276zM1011 1751l43 209h277l-43 -209h-277z" />
<glyph unicode="&#xc5;" d="M4 0l705 1610q-31 18 -31 61q0 18 6 47l25 117q14 70 54 97.5t120 27.5h192q66 0 97.5 -18.5t31.5 -63.5q0 -18 -6 -43l-24 -117q-18 -82 -70 -108l22 -1610h-274l8 360h-438l-143 -360h-275zM479 502h385l21 975h-13zM821 1708q0 -43 39 -53h109q53 12 67 71l23 109 q2 10 2 25q0 39 -45 38h-101q-57 0 -69 -63l-23 -109q-2 -6 -2 -18z" />
<glyph unicode="&#xc6;" d="M-14 0l553 1655h952l-27 -129h-413l-183 -852h256l-28 -137h-256l-82 -390h413l-28 -137h-627l111 527h-258l-176 -537h-207zM416 674h239l183 852h-150z" />
<glyph unicode="&#xc7;" d="M76 0zM76 297q0 31 3 64.5t12 68.5l167 789q18 88 57.5 167.5t92.5 139t117.5 94.5t136.5 35h696l-28 -137h-551q-45 0 -86 -24t-76 -64.5t-60.5 -95t-37.5 -115.5l-168 -789q-4 -25 -7.5 -47.5t-3.5 -44.5q0 -86 37 -143.5t109 -57.5h551l-29 -137h-696 q-115 0 -175.5 83t-60.5 214zM271 -498l84 396h252l-174 -396h-162z" />
<glyph unicode="&#xc8;" d="M-18 0l350 1655h1041l-29 -137h-762l-131 -619h553l-31 -139h-553l-131 -623h762l-29 -137h-1040zM0 0zM551 1765l41 195l465 -107l-29 -141z" />
<glyph unicode="&#xc9;" d="M-18 0l350 1655h1041l-29 -137h-762l-131 -619h553l-31 -139h-553l-131 -623h762l-29 -137h-1040zM0 0zM704 1712l29 141l510 107l-41 -195z" />
<glyph unicode="&#xca;" d="M-18 0l350 1655h1041l-29 -137h-762l-131 -619h553l-31 -139h-553l-131 -623h762l-29 -137h-1040zM0 0zM461 1718l301 242h311l197 -242h-240l-133 160l-197 -160h-239z" />
<glyph unicode="&#xcb;" d="M-18 0l350 1655h1041l-29 -137h-762l-131 -619h553l-31 -139h-553l-131 -623h762l-29 -137h-1040zM0 0zM459 1751l43 209h276l-43 -209h-276zM1011 1751l43 209h277l-43 -209h-277z" />
<glyph unicode="&#xcc;" d="M-18 0l29 137h381l292 1381h-380l28 137h1041l-29 -137h-381l-293 -1381h381l-29 -137h-1040zM0 0zM551 1765l41 195l465 -107l-29 -141z" />
<glyph unicode="&#xcd;" d="M-18 0l29 137h381l292 1381h-380l28 137h1041l-29 -137h-381l-293 -1381h381l-29 -137h-1040zM0 0zM704 1712l29 141l510 107l-41 -195z" />
<glyph unicode="&#xce;" d="M-18 0l29 137h381l292 1381h-380l28 137h1041l-29 -137h-381l-293 -1381h381l-29 -137h-1040zM0 0zM461 1718l301 242h311l197 -242h-240l-133 160l-197 -160h-239z" />
<glyph unicode="&#xcf;" d="M-18 0l29 137h381l292 1381h-380l28 137h1041l-29 -137h-381l-293 -1381h381l-29 -137h-1040zM0 0zM459 1751l43 209h276l-43 -209h-276zM1011 1751l43 209h277l-43 -209h-277z" />
<glyph unicode="&#xd0;" d="M43 -4l168 792h-55l28 136h56l155 731h783q115 0 174 -86t59 -217q0 -31 -3 -65t-11 -68l-168 -791q-18 -90 -58.5 -169t-94.5 -137.5t-118.5 -92t-132.5 -33.5h-782zM350 135h359q45 0 87 24.5t75.5 64.5t59 93.5t38.5 110.5l168 791q4 25 7 49t3 47q0 88 -37 145.5 t-109 57.5h-358l-127 -594h258l-29 -136h-258z" />
<glyph unicode="&#xd1;" d="M-47 0l351 1655h299l294 -1358l289 1358h217l-350 -1655h-352l-281 1214l-258 -1214h-209zM0 0zM426 1753q23 98 101.5 152.5t219.5 54.5q66 0 105 -14.5t70.5 -31t63.5 -30.5t81 -14q47 0 77.5 14t43.5 76h174q-16 -82 -94 -143.5t-222 -61.5q-74 0 -113.5 16.5 t-69.5 35t-58.5 35t-77.5 16.5q-61 0 -88 -24t-39 -81h-174z" />
<glyph unicode="&#xd2;" d="M18 0zM19 297q0 68 14 133l168 789q18 88 57 167.5t92.5 139t118 94.5t134.5 35h501q111 0 171.5 -86t60.5 -217q0 -70 -15 -133l-168 -789q-18 -90 -58 -169t-93 -137t-116.5 -91t-131.5 -33h-502q-113 0 -173 83t-60 214zM279 340q0 -88 40 -145.5t112 -57.5h204 q43 0 84 22.5t76 62.5t60.5 93.5t37.5 114.5l168 789q10 57 11 98q0 86 -36 143.5t-108 57.5h-205q-45 0 -87 -24t-77.5 -64.5t-62.5 -95t-39 -115.5l-168 -789q-6 -23 -7 -45.5t-3 -44.5zM551 1765l41 195l465 -107l-29 -141z" />
<glyph unicode="&#xd3;" d="M18 0zM19 297q0 68 14 133l168 789q18 88 57 167.5t92.5 139t118 94.5t134.5 35h501q111 0 171.5 -86t60.5 -217q0 -70 -15 -133l-168 -789q-18 -90 -58 -169t-93 -137t-116.5 -91t-131.5 -33h-502q-113 0 -173 83t-60 214zM279 340q0 -88 40 -145.5t112 -57.5h204 q43 0 84 22.5t76 62.5t60.5 93.5t37.5 114.5l168 789q10 57 11 98q0 86 -36 143.5t-108 57.5h-205q-45 0 -87 -24t-77.5 -64.5t-62.5 -95t-39 -115.5l-168 -789q-6 -23 -7 -45.5t-3 -44.5zM704 1712l29 141l510 107l-41 -195z" />
<glyph unicode="&#xd4;" d="M18 0zM19 297q0 68 14 133l168 789q18 88 57 167.5t92.5 139t118 94.5t134.5 35h501q111 0 171.5 -86t60.5 -217q0 -70 -15 -133l-168 -789q-18 -90 -58 -169t-93 -137t-116.5 -91t-131.5 -33h-502q-113 0 -173 83t-60 214zM279 340q0 -88 40 -145.5t112 -57.5h204 q43 0 84 22.5t76 62.5t60.5 93.5t37.5 114.5l168 789q10 57 11 98q0 86 -36 143.5t-108 57.5h-205q-45 0 -87 -24t-77.5 -64.5t-62.5 -95t-39 -115.5l-168 -789q-6 -23 -7 -45.5t-3 -44.5zM461 1718l301 242h311l197 -242h-240l-133 160l-197 -160h-239z" />
<glyph unicode="&#xd5;" d="M18 0zM19 297q0 68 14 133l168 789q18 88 57 167.5t92.5 139t118 94.5t134.5 35h501q111 0 171.5 -86t60.5 -217q0 -70 -15 -133l-168 -789q-18 -90 -58 -169t-93 -137t-116.5 -91t-131.5 -33h-502q-113 0 -173 83t-60 214zM279 340q0 -88 40 -145.5t112 -57.5h204 q43 0 84 22.5t76 62.5t60.5 93.5t37.5 114.5l168 789q10 57 11 98q0 86 -36 143.5t-108 57.5h-205q-45 0 -87 -24t-77.5 -64.5t-62.5 -95t-39 -115.5l-168 -789q-6 -23 -7 -45.5t-3 -44.5zM426 1753q23 98 101.5 152.5t219.5 54.5q66 0 105 -14.5t70.5 -31t63.5 -30.5 t81 -14q47 0 77.5 14t43.5 76h174q-16 -82 -94 -143.5t-222 -61.5q-74 0 -113.5 16.5t-69.5 35t-58.5 35t-77.5 16.5q-61 0 -88 -24t-39 -81h-174z" />
<glyph unicode="&#xd6;" d="M18 0zM19 297q0 68 14 133l168 789q18 88 57 167.5t92.5 139t118 94.5t134.5 35h501q111 0 171.5 -86t60.5 -217q0 -70 -15 -133l-168 -789q-18 -90 -58 -169t-93 -137t-116.5 -91t-131.5 -33h-502q-113 0 -173 83t-60 214zM279 340q0 -88 40 -145.5t112 -57.5h204 q43 0 84 22.5t76 62.5t60.5 93.5t37.5 114.5l168 789q10 57 11 98q0 86 -36 143.5t-108 57.5h-205q-45 0 -87 -24t-77.5 -64.5t-62.5 -95t-39 -115.5l-168 -789q-6 -23 -7 -45.5t-3 -44.5zM459 1751l43 209h276l-43 -209h-276zM1011 1751l43 209h277l-43 -209h-277z" />
<glyph unicode="&#xd7;" d="M334 643l315 260l-211 273l119 96l213 -271l330 271l86 -107l-326 -272l205 -264l-119 -101l-209 267l-315 -260z" />
<glyph unicode="&#xd8;" d="M-61 -135l186 252q-37 74 -37 174q0 59 16 137l168 791q18 88 57.5 167.5t92.5 139t116.5 94.5t133.5 35h506q61 0 94 -21l88 115h174l-168 -217q41 -82 41 -186q0 -63 -14 -127l-168 -791q-18 -90 -58.5 -169t-93.5 -137.5t-116.5 -92t-131.5 -33.5h-506q-41 0 -90 18 l-112 -149h-178zM360 428l758 1004q-18 39 -48 62.5t-73 23.5h-202q-47 0 -89 -24t-77 -64.5t-61.5 -95t-39.5 -115.5zM377 213q35 -78 125 -78h203q45 0 85.5 23.5t75.5 63.5t60.5 93.5t38.5 112.5l168 791z" />
<glyph unicode="&#xd9;" d="M25 0zM25 299q0 66 14 131l260 1225h256l-260 -1225q-12 -59 -12 -106q0 -88 39 -137.5t111 -49.5h196q86 0 158 79t100 214l260 1225h262l-260 -1225q-18 -90 -58 -169t-93 -137t-117.5 -91t-132.5 -33h-492q-111 0 -171 83t-60 216zM551 1765l41 195l465 -107l-29 -141 z" />
<glyph unicode="&#xda;" d="M25 0zM25 299q0 66 14 131l260 1225h256l-260 -1225q-12 -59 -12 -106q0 -88 39 -137.5t111 -49.5h196q86 0 158 79t100 214l260 1225h262l-260 -1225q-18 -90 -58 -169t-93 -137t-117.5 -91t-132.5 -33h-492q-111 0 -171 83t-60 216zM704 1712l29 141l510 107l-41 -195z " />
<glyph unicode="&#xdb;" d="M25 0zM25 299q0 66 14 131l260 1225h256l-260 -1225q-12 -59 -12 -106q0 -88 39 -137.5t111 -49.5h196q86 0 158 79t100 214l260 1225h262l-260 -1225q-18 -90 -58 -169t-93 -137t-117.5 -91t-132.5 -33h-492q-111 0 -171 83t-60 216zM461 1718l301 242h311l197 -242 h-240l-133 160l-197 -160h-239z" />
<glyph unicode="&#xdc;" d="M25 0zM25 299q0 66 14 131l260 1225h256l-260 -1225q-12 -59 -12 -106q0 -88 39 -137.5t111 -49.5h196q86 0 158 79t100 214l260 1225h262l-260 -1225q-18 -90 -58 -169t-93 -137t-117.5 -91t-132.5 -33h-492q-111 0 -171 83t-60 216zM459 1751l43 209h276l-43 -209h-276 zM1011 1751l43 209h277l-43 -209h-277z" />
<glyph unicode="&#xdd;" d="M281 0zM281 1655h293l106 -836l471 836h275l-670 -1061l-125 -594h-276l127 598zM704 1712l29 141l510 107l-41 -195z" />
<glyph unicode="&#xde;" d="M20 0l351 1655h274l-72 -342h506q106 0 165 -91.5t59 -238.5q0 -135 -38 -256t-99.5 -212t-139.5 -144.5t-160 -53.5h-506l-65 -317h-275zM391 459h359q53 0 105 40t93 108.5t65.5 158.5t24.5 190q0 98 -34.5 158t-102.5 60h-358z" />
<glyph unicode="&#xdf;" d="M-8 0l268 1270q31 141 68 230t93 140.5t139 71t204 19.5h379q133 0 200.5 -80t67.5 -211q0 -84 -22.5 -172t-62.5 -164t-92 -128t-110 -63q66 -16 99.5 -88.5t33.5 -177.5q0 -111 -36.5 -225.5t-99 -208.5t-147.5 -153.5t-181 -59.5h-371l29 137h251q61 0 116.5 50.5 t99 124t68 158.5t24.5 153q0 94 -36 155.5t-102 61.5h-196l29 137h196q39 0 78 40t69.5 104.5t50 147.5t19.5 169q0 82 -31.5 118.5t-97.5 36.5h-186q-94 0 -156.5 -65.5t-87.5 -181.5l-285 -1346h-282z" />
<glyph unicode="&#xe0;" d="M2 0zM2 236q0 68 19 153q41 197 128 296t241 99h567l35 166q12 61 12 105q0 66 -33 93.5t-106 27.5h-496l29 137h610q147 0 213 -44t66 -165q0 -66 -23 -178l-197 -926h-843q-117 0 -169.5 61.5t-52.5 174.5zM269 283q0 -76 36.5 -111t120.5 -35h394l108 512h-364 q-123 0 -187.5 -56t-93.5 -196q-14 -63 -14 -114zM541 1525l41 195l465 -107l-29 -141z" />
<glyph unicode="&#xe1;" d="M2 0zM2 236q0 68 19 153q41 197 128 296t241 99h567l35 166q12 61 12 105q0 66 -33 93.5t-106 27.5h-496l29 137h610q147 0 213 -44t66 -165q0 -66 -23 -178l-197 -926h-843q-117 0 -169.5 61.5t-52.5 174.5zM269 283q0 -76 36.5 -111t120.5 -35h394l108 512h-364 q-123 0 -187.5 -56t-93.5 -196q-14 -63 -14 -114zM694 1472l29 141l510 107l-41 -195z" />
<glyph unicode="&#xe2;" d="M2 0zM2 236q0 68 19 153q41 197 128 296t241 99h567l35 166q12 61 12 105q0 66 -33 93.5t-106 27.5h-496l29 137h610q147 0 213 -44t66 -165q0 -66 -23 -178l-197 -926h-843q-117 0 -169.5 61.5t-52.5 174.5zM269 283q0 -76 36.5 -111t120.5 -35h394l108 512h-364 q-123 0 -187.5 -56t-93.5 -196q-14 -63 -14 -114zM451 1478l301 242h311l197 -242h-240l-133 160l-197 -160h-239z" />
<glyph unicode="&#xe3;" d="M2 0zM2 236q0 68 19 153q41 197 128 296t241 99h567l35 166q12 61 12 105q0 66 -33 93.5t-106 27.5h-496l29 137h610q147 0 213 -44t66 -165q0 -66 -23 -178l-197 -926h-843q-117 0 -169.5 61.5t-52.5 174.5zM269 283q0 -76 36.5 -111t120.5 -35h394l108 512h-364 q-123 0 -187.5 -56t-93.5 -196q-14 -63 -14 -114zM416 1513q23 98 101.5 152.5t219.5 54.5q66 0 105 -14.5t70.5 -31t63.5 -30.5t81 -14q47 0 77.5 14t43.5 76h174q-16 -82 -94 -143.5t-222 -61.5q-74 0 -113.5 16.5t-69.5 35t-58.5 35t-77.5 16.5q-61 0 -88 -24t-39 -81 h-174z" />
<glyph unicode="&#xe4;" d="M2 0zM2 236q0 68 19 153q41 197 128 296t241 99h567l35 166q12 61 12 105q0 66 -33 93.5t-106 27.5h-496l29 137h610q147 0 213 -44t66 -165q0 -66 -23 -178l-197 -926h-843q-117 0 -169.5 61.5t-52.5 174.5zM269 283q0 -76 36.5 -111t120.5 -35h394l108 512h-364 q-123 0 -187.5 -56t-93.5 -196q-14 -63 -14 -114zM449 1511l43 209h276l-43 -209h-276zM1001 1511l43 209h277l-43 -209h-277z" />
<glyph unicode="&#xe5;" d="M2 0zM2 236q0 68 19 153q41 197 128 296t241 99h567l35 166q12 61 12 105q0 66 -33 93.5t-106 27.5h-496l29 137h610q147 0 213 -44t66 -165q0 -66 -23 -178l-197 -926h-843q-117 0 -169.5 61.5t-52.5 174.5zM269 283q0 -76 36.5 -111t120.5 -35h394l108 512h-364 q-123 0 -187.5 -56t-93.5 -196q-14 -63 -14 -114zM618 1493q0 18 6 47l25 117q14 70 54 97.5t120 27.5h193q66 0 97.5 -18.5t31.5 -63.5q0 -18 -7 -43l-24 -117q-16 -72 -56 -99.5t-120 -27.5h-193q-66 0 -96.5 17.5t-30.5 62.5zM762 1532q0 -27 16 -42t45 -15h63 q43 0 63.5 20.5t27.5 52.5l22 109q2 8 3 14t1 13q0 37 -47 36h-100q-57 0 -70 -63l-22 -109q-2 -6 -2 -16z" />
<glyph unicode="&#xe6;" d="M31 203q0 78 22 186q41 197 112 296t185 99h287l35 166q16 78 16 123q0 55 -23.5 79t-74.5 24h-234l29 137h320q100 0 143 -35q61 35 151 35h236q147 0 147 -199q0 -80 -24 -190q-80 -375 -287 -375h-278l-29 -141q-10 -51 -16.5 -90t-6.5 -68q0 -70 33 -91.5t98 -21.5 h224l-29 -137h-883q-80 0 -116.5 52t-36.5 151zM231 264q0 -127 113 -127h156l108 512h-135q-92 0 -143 -56t-80 -196q-18 -80 -19 -133zM823 686h183q35 0 61.5 11.5t48 38t37.5 72.5t31 116q10 47 15 82.5t5 64.5q0 57 -23.5 81t-70.5 24h-49q-68 0 -111 -55.5t-76 -194.5 z" />
<glyph unicode="&#xe7;" d="M37 0zM37 227q0 76 25 185l104 489q25 117 60 196t86 127t118.5 68.5t159.5 20.5h715l-29 -137h-594q-98 0 -150 -60.5t-85 -212.5l-109 -514q-8 -35 -12 -61.5t-2 -48.5q0 -45 16.5 -73t53.5 -43.5t95 -20.5t142 -5h424l-29 -137h-714q-139 0 -207 49t-68 178zM332 -498 l84 396h252l-174 -396h-162z" />
<glyph unicode="&#xe8;" d="M12 0zM13 225q0 76 24 187l105 487q25 119 60.5 198t86.5 127t118 68.5t157 20.5h499q209 0 209 -230q0 -72 -18 -159q-80 -375 -354 -375h-558l-28 -141q-10 -43 -15.5 -77t-3.5 -63q0 -80 43 -105.5t140 -25.5h483l-29 -137h-647q-137 0 -204.5 49t-67.5 176zM373 686 h426q47 0 82 11.5t61.5 38t46 72.5t33.5 116q16 82 17 127q0 70 -32 97.5t-103 27.5h-250q-92 0 -148.5 -60.5t-87.5 -212.5zM500 1525l41 195l465 -107l-29 -141z" />
<glyph unicode="&#xe9;" d="M12 0zM13 225q0 76 24 187l105 487q25 119 60.5 198t86.5 127t118 68.5t157 20.5h499q209 0 209 -230q0 -72 -18 -159q-80 -375 -354 -375h-558l-28 -141q-10 -43 -15.5 -77t-3.5 -63q0 -80 43 -105.5t140 -25.5h483l-29 -137h-647q-137 0 -204.5 49t-67.5 176zM373 686 h426q47 0 82 11.5t61.5 38t46 72.5t33.5 116q16 82 17 127q0 70 -32 97.5t-103 27.5h-250q-92 0 -148.5 -60.5t-87.5 -212.5zM653 1472l29 141l510 107l-41 -195z" />
<glyph unicode="&#xea;" d="M12 0zM13 225q0 76 24 187l105 487q25 119 60.5 198t86.5 127t118 68.5t157 20.5h499q209 0 209 -230q0 -72 -18 -159q-80 -375 -354 -375h-558l-28 -141q-10 -43 -15.5 -77t-3.5 -63q0 -80 43 -105.5t140 -25.5h483l-29 -137h-647q-137 0 -204.5 49t-67.5 176zM373 686 h426q47 0 82 11.5t61.5 38t46 72.5t33.5 116q16 82 17 127q0 70 -32 97.5t-103 27.5h-250q-92 0 -148.5 -60.5t-87.5 -212.5zM410 1478l301 242h311l197 -242h-240l-133 160l-197 -160h-239z" />
<glyph unicode="&#xeb;" d="M12 0zM13 225q0 76 24 187l105 487q25 119 60.5 198t86.5 127t118 68.5t157 20.5h499q209 0 209 -230q0 -72 -18 -159q-80 -375 -354 -375h-558l-28 -141q-10 -43 -15.5 -77t-3.5 -63q0 -80 43 -105.5t140 -25.5h483l-29 -137h-647q-137 0 -204.5 49t-67.5 176zM373 686 h426q47 0 82 11.5t61.5 38t46 72.5t33.5 116q16 82 17 127q0 70 -32 97.5t-103 27.5h-250q-92 0 -148.5 -60.5t-87.5 -212.5zM408 1511l43 209h276l-43 -209h-276zM960 1511l43 209h277l-43 -209h-277z" />
<glyph unicode="&#xec;" d="M-28 0l28 137h394l219 1037h-393l30 139h670l-250 -1176h393l-28 -137h-1063zM0 0zM492 1525l41 195l465 -107l-29 -141z" />
<glyph unicode="&#xed;" d="M-28 0l28 137h394l219 1037h-393l30 139h670l-250 -1176h393l-28 -137h-1063zM0 0zM633 1472l29 141l510 107l-41 -195z" />
<glyph unicode="&#xee;" d="M-28 0l28 137h394l219 1037h-393l30 139h670l-250 -1176h393l-28 -137h-1063zM0 0zM390 1478l301 242h311l197 -242h-240l-133 160l-197 -160h-239z" />
<glyph unicode="&#xef;" d="M-28 0l28 137h394l219 1037h-393l30 139h670l-250 -1176h393l-28 -137h-1063zM0 0zM388 1511l43 209h276l-43 -209h-276zM940 1511l43 209h277l-43 -209h-277z" />
<glyph unicode="&#xf0;" d="M68 207q0 68 22 176l131 616q31 147 117 230.5t211 83.5h569l17 76q8 39 8 79q0 63 -33 94t-106 31h-445l29 138h557q147 0 214.5 -44.5t67.5 -164.5q0 -37 -6 -80t-16 -94l-205 -965q-25 -113 -57.5 -186.5t-82.5 -117.5t-119 -61.5t-163 -17.5h-432q-147 0 -212.5 43 t-65.5 164zM352 272q0 -135 135 -135h207q92 0 145.5 59.5t86.5 211.5l164 768h-439q-117 0 -155 -187l-134 -631q-6 -25 -8 -46t-2 -40z" />
<glyph unicode="&#xf1;" d="M-47 0l279 1313h766q147 0 211.5 -45t64.5 -162q0 -68 -22 -176l-197 -930h-270l190 901q18 82 19 139q0 76 -34 106t-99 30h-385l-250 -1176h-273zM0 0zM375 1513q23 98 101.5 152.5t219.5 54.5q66 0 105 -14.5t70.5 -31t63.5 -30.5t81 -14q47 0 77.5 14t43.5 76h174 q-16 -82 -94 -143.5t-222 -61.5q-74 0 -113.5 16.5t-69.5 35t-58.5 35t-77.5 16.5q-61 0 -88 -24t-39 -81h-174z" />
<glyph unicode="&#xf2;" d="M-10 223q0 74 25 189l104 489q25 119 60.5 199t86 127t118 66.5t159.5 19.5h479q137 0 204 -49.5t67 -176.5q0 -39 -5.5 -85t-17.5 -101l-104 -489q-25 -121 -61 -200t-86 -126t-117.5 -66.5t-157.5 -19.5h-479q-139 0 -207 48t-68 175zM0 0zM273 276q0 -84 44 -111.5 t138 -27.5h156q61 0 106 10.5t77 40t54.5 82t40.5 138.5l105 495q18 82 18 137q0 72 -32.5 104t-100.5 32h-250q-94 0 -149.5 -61.5t-85.5 -211.5l-99 -469q-10 -49 -16 -88t-6 -70zM500 1525l41 195l465 -107l-29 -141z" />
<glyph unicode="&#xf3;" d="M-10 223q0 74 25 189l104 489q25 119 60.5 199t86 127t118 66.5t159.5 19.5h479q137 0 204 -49.5t67 -176.5q0 -39 -5.5 -85t-17.5 -101l-104 -489q-25 -121 -61 -200t-86 -126t-117.5 -66.5t-157.5 -19.5h-479q-139 0 -207 48t-68 175zM0 0zM273 276q0 -84 44 -111.5 t138 -27.5h156q61 0 106 10.5t77 40t54.5 82t40.5 138.5l105 495q18 82 18 137q0 72 -32.5 104t-100.5 32h-250q-94 0 -149.5 -61.5t-85.5 -211.5l-99 -469q-10 -49 -16 -88t-6 -70zM653 1472l29 141l510 107l-41 -195z" />
<glyph unicode="&#xf4;" d="M-10 223q0 74 25 189l104 489q25 119 60.5 199t86 127t118 66.5t159.5 19.5h479q137 0 204 -49.5t67 -176.5q0 -39 -5.5 -85t-17.5 -101l-104 -489q-25 -121 -61 -200t-86 -126t-117.5 -66.5t-157.5 -19.5h-479q-139 0 -207 48t-68 175zM0 0zM273 276q0 -84 44 -111.5 t138 -27.5h156q61 0 106 10.5t77 40t54.5 82t40.5 138.5l105 495q18 82 18 137q0 72 -32.5 104t-100.5 32h-250q-94 0 -149.5 -61.5t-85.5 -211.5l-99 -469q-10 -49 -16 -88t-6 -70zM410 1478l301 242h311l197 -242h-240l-133 160l-197 -160h-239z" />
<glyph unicode="&#xf5;" d="M-10 223q0 74 25 189l104 489q25 119 60.5 199t86 127t118 66.5t159.5 19.5h479q137 0 204 -49.5t67 -176.5q0 -39 -5.5 -85t-17.5 -101l-104 -489q-25 -121 -61 -200t-86 -126t-117.5 -66.5t-157.5 -19.5h-479q-139 0 -207 48t-68 175zM0 0zM273 276q0 -84 44 -111.5 t138 -27.5h156q61 0 106 10.5t77 40t54.5 82t40.5 138.5l105 495q18 82 18 137q0 72 -32.5 104t-100.5 32h-250q-94 0 -149.5 -61.5t-85.5 -211.5l-99 -469q-10 -49 -16 -88t-6 -70zM375 1513q23 98 101.5 152.5t219.5 54.5q66 0 105 -14.5t70.5 -31t63.5 -30.5t81 -14 q47 0 77.5 14t43.5 76h174q-16 -82 -94 -143.5t-222 -61.5q-74 0 -113.5 16.5t-69.5 35t-58.5 35t-77.5 16.5q-61 0 -88 -24t-39 -81h-174z" />
<glyph unicode="&#xf6;" d="M-10 223q0 74 25 189l104 489q25 119 60.5 199t86 127t118 66.5t159.5 19.5h479q137 0 204 -49.5t67 -176.5q0 -39 -5.5 -85t-17.5 -101l-104 -489q-25 -121 -61 -200t-86 -126t-117.5 -66.5t-157.5 -19.5h-479q-139 0 -207 48t-68 175zM0 0zM273 276q0 -84 44 -111.5 t138 -27.5h156q61 0 106 10.5t77 40t54.5 82t40.5 138.5l105 495q18 82 18 137q0 72 -32.5 104t-100.5 32h-250q-94 0 -149.5 -61.5t-85.5 -211.5l-99 -469q-10 -49 -16 -88t-6 -70zM408 1511l43 209h276l-43 -209h-276zM960 1511l43 209h277l-43 -209h-277z" />
<glyph unicode="&#xf7;" d="M281 834l30 141h918l-31 -141h-917zM516 428l39 182h276l-38 -182h-277zM676 1182l39 180h276l-39 -180h-276z" />
<glyph unicode="&#xf8;" d="M20 -162l142 185q-57 25 -85 69.5t-28 124.5q0 39 7 87t20 108l104 489q25 119 60.5 199t86 127t119 66.5t158.5 19.5h533l135 180h172l-168 -223q41 -25 60.5 -68t19.5 -112q0 -78 -25 -189l-104 -489q-25 -121 -61 -200t-86 -126t-117.5 -66.5t-157.5 -19.5h-479 l-125 -162h-181zM344 344q0 -35 10 -65l664 878q-31 18 -78 19h-250q-96 0 -149.5 -60.5t-85.5 -212.5l-99 -469q-12 -49 -12 -90zM440 156q27 -18 76 -19h156q61 0 106 10.5t77 40t54.5 82t40.5 138.5l105 495l16 90z" />
<glyph unicode="&#xf9;" d="M8 0zM9 205q0 37 5 81t17 97l199 930h270l-192 -905q-18 -80 -19 -134q0 -74 34 -105.5t103 -31.5h383l250 1176h279l-279 -1313h-774q-147 0 -211.5 43t-64.5 162zM500 1525l41 195l465 -107l-29 -141z" />
<glyph unicode="&#xfa;" d="M8 0zM9 205q0 37 5 81t17 97l199 930h270l-192 -905q-18 -80 -19 -134q0 -74 34 -105.5t103 -31.5h383l250 1176h279l-279 -1313h-774q-147 0 -211.5 43t-64.5 162zM653 1472l29 141l510 107l-41 -195z" />
<glyph unicode="&#xfb;" d="M8 0zM9 205q0 37 5 81t17 97l199 930h270l-192 -905q-18 -80 -19 -134q0 -74 34 -105.5t103 -31.5h383l250 1176h279l-279 -1313h-774q-147 0 -211.5 43t-64.5 162zM410 1478l301 242h311l197 -242h-240l-133 160l-197 -160h-239z" />
<glyph unicode="&#xfc;" d="M8 0zM9 205q0 37 5 81t17 97l199 930h270l-192 -905q-18 -80 -19 -134q0 -74 34 -105.5t103 -31.5h383l250 1176h279l-279 -1313h-774q-147 0 -211.5 43t-64.5 162zM408 1511l43 209h276l-43 -209h-276zM960 1511l43 209h277l-43 -209h-277z" />
<glyph unicode="&#xfd;" d="M92 0zM93 -498l313 498l-221 1313h305l117 -996l557 996h217l-1063 -1811h-225zM653 1472l29 141l510 107l-41 -195z" />
<glyph unicode="&#xfe;" d="M-102 -487l469 2218h274l-88 -418h516q139 0 206.5 -52.5t67.5 -181.5q0 -70 -22 -178l-104 -489q-25 -121 -61 -200t-87 -126t-118.5 -66.5t-159.5 -19.5h-517l-104 -487h-272zM303 141h402q96 0 148 57.5t83 200.5l113 531q6 33 10 60.5t4 49.5q0 82 -59.5 108 t-202.5 26h-279z" />
<glyph unicode="&#xff;" d="M92 0zM93 -498l313 498l-221 1313h305l117 -996l557 996h217l-1063 -1811h-225zM408 1511l43 209h276l-43 -209h-276zM960 1511l43 209h277l-43 -209h-277z" />
<glyph unicode="&#x152;" d="M63 207q0 68 23 176l190 893q25 111 57 183.5t80 116.5t115.5 61.5t163.5 17.5h783l-29 -137h-279l-131 -619h232l-31 -139h-231l-132 -623h279l-29 -137h-782q-147 0 -213 43t-66 164zM348 289q0 -152 135 -152h189l293 1381h-189q-178 0 -229 -252l-187 -873 q-12 -59 -12 -104z" />
<glyph unicode="&#x153;" d="M6 190q0 43 6 97.5t23 124.5l104 489q25 119 55.5 199t70.5 127t91.5 66.5t118.5 19.5h234q90 0 137 -39q59 39 153 39h248q143 0 144 -195q0 -82 -25 -194q-80 -375 -283 -375h-290l-29 -141q-10 -51 -16.5 -90t-6.5 -68q0 -70 32 -91.5t97 -21.5h236l-29 -137h-356 q-45 0 -80 8t-57 31q-33 -23 -71 -31t-83 -8h-233q-98 0 -144.5 41t-46.5 149zM213 244q0 -53 20.5 -80t69.5 -27h35q45 0 79 10.5t59.5 40t45 82t37.5 138.5l105 495q10 49 16 88t4 70q0 61 -21.5 88t-68.5 27h-64q-70 0 -113.5 -61.5t-74.5 -211.5l-111 -522 q-18 -84 -18 -137zM823 686h195q35 0 61.5 11.5t48 38t38 72.5t30.5 116q10 47 15.5 81.5t5.5 63.5q0 59 -24 83t-71 24h-63q-68 0 -114 -60.5t-77 -212.5z" />
<glyph unicode="&#x178;" d="M281 0zM281 1655h293l106 -836l471 836h275l-670 -1061l-125 -594h-276l127 598zM459 1751l43 209h276l-43 -209h-276zM1011 1751l43 209h277l-43 -209h-277z" />
<glyph unicode="&#x2c6;" d="M451 1376l301 242h311l197 -242h-240l-133 160l-197 -160h-239z" />
<glyph unicode="&#x2dc;" d="M416 1411q23 98 101.5 152.5t219.5 54.5q66 0 105 -14.5t70.5 -31t63.5 -30.5t81 -14q47 0 77.5 14t43.5 76h174q-16 -82 -94 -143.5t-222 -61.5q-74 0 -113.5 16.5t-69.5 35t-58.5 35t-77.5 16.5q-61 0 -88 -24t-39 -81h-174z" />
<glyph unicode="&#x2000;" horiz-adv-x="980" />
<glyph unicode="&#x2001;" horiz-adv-x="1960" />
<glyph unicode="&#x2002;" horiz-adv-x="980" />
<glyph unicode="&#x2003;" horiz-adv-x="1960" />
<glyph unicode="&#x2004;" horiz-adv-x="653" />
<glyph unicode="&#x2005;" horiz-adv-x="490" />
<glyph unicode="&#x2006;" horiz-adv-x="326" />
<glyph unicode="&#x2007;" horiz-adv-x="326" />
<glyph unicode="&#x2008;" horiz-adv-x="245" />
<glyph unicode="&#x2009;" horiz-adv-x="392" />
<glyph unicode="&#x200a;" horiz-adv-x="108" />
<glyph unicode="&#x2010;" d="M184 694l29 144h1051l-29 -144h-1051z" />
<glyph unicode="&#x2011;" d="M184 694l29 144h1051l-29 -144h-1051z" />
<glyph unicode="&#x2012;" d="M184 694l29 144h1051l-29 -144h-1051z" />
<glyph unicode="&#x2013;" d="M123 694l29 144h1051l-29 -144h-1051zM123 694z" />
<glyph unicode="&#x2014;" d="M123 694l29 144h1051l-29 -144h-1051zM123 694z" />
<glyph unicode="&#x2018;" d="M610 1110l287 621h223l-192 -621h-318z" />
<glyph unicode="&#x2019;" d="M610 1110l193 621h317l-286 -621h-224z" />
<glyph unicode="&#x201a;" d="M293 -381l192 621h318l-287 -621h-223z" />
<glyph unicode="&#x201c;" d="M365 1110l286 621h223l-192 -621h-317zM856 1110l287 621h223l-192 -621h-318z" />
<glyph unicode="&#x201d;" d="M365 1110l192 621h317l-286 -621h-223zM856 1110l193 621h317l-287 -621h-223z" />
<glyph unicode="&#x201e;" d="M47 -381l193 621h317l-287 -621h-223zM539 -381l192 621h318l-287 -621h-223z" />
<glyph unicode="&#x2022;" d="M338 512l145 684h668l-145 -684h-668z" />
<glyph unicode="&#x2026;" d="M-4 0l49 240h277l-50 -240h-276zM426 0l49 240h277l-50 -240h-276zM856 0l49 240h277l-49 -240h-277z" />
<glyph unicode="&#x202f;" horiz-adv-x="392" />
<glyph unicode="&#x2039;" d="M504 690l26 123l486 346l-41 -194l-340 -217l248 -218l-43 -194z" />
<glyph unicode="&#x203a;" d="M428 336l43 194l340 218l-248 217l41 194l338 -346l-27 -123z" />
<glyph unicode="&#x205f;" horiz-adv-x="490" />
<glyph unicode="&#x20ac;" d="M131 520l31 137h151l64 297h-152l29 142h152q119 559 430 559h620l-29 -137h-473q-203 0 -284 -396l-6 -26h344l-29 -142h-344l-64 -297h344l-30 -137h-344l-19 -92q-6 -27 -8 -51.5t-2 -46.5q0 -86 38 -140.5t112 -54.5h473l-31 -139h-621q-229 0 -229 285q0 51 6 110.5 t23 128.5h-152z" />
<glyph unicode="&#x2122;" d="M264 760l168 790h-119l25 111h424l-25 -111h-106l-168 -790h-199zM686 760l193 899h188l-20 -658l260 658h192l-192 -899h-136l93 432l-203 -432h-143v428l-93 -428h-139z" />
<glyph unicode="&#x25fc;" horiz-adv-x="1310" d="M0 0v1311h1311v-1311h-1311z" />
</font>
</defs>
</svg>
