<?xml version="1.0" standalone="no"?>
<!DOCTYPE svg PUBLIC "-//W3C//DTD SVG 1.1//EN" "http://www.w3.org/Graphics/SVG/1.1/DTD/svg11.dtd" >
<svg xmlns="http://www.w3.org/2000/svg" xmlns:xlink="http://www.w3.org/1999/xlink" version="1.1">
<metadata></metadata>
<defs>
<font id="unispaceregular" horiz-adv-x="1251" >
<font-face units-per-em="2048" ascent="1550" descent="-498" />
<missing-glyph horiz-adv-x="500" />
<glyph horiz-adv-x="0" />
<glyph unicode="&#xd;" />
<glyph />
<glyph unicode=" " />
<glyph unicode="!" d="M467 0v246h317v-246h-317zM487 463v1192h277v-1192h-277z" />
<glyph unicode="&#x22;" d="M348 1255v502h193v-502h-193zM713 1255v502h190v-502h-190z" />
<glyph unicode="#" d="M147 428v143h175v441h-175v147h175v496h159v-496h307v496h162v-496h152v-147h-152v-441h152v-143h-152v-428h-162v428h-307v-428h-159v428h-175zM481 571h307v441h-307v-441z" />
<glyph unicode="$" d="M55 1100q0 162 70 257t197 95h235v203h125v-203h418v-139h-418v-410h297q49 0 89 -32.5t69.5 -88t45 -127t15.5 -151.5q0 -78 -15.5 -144.5t-43 -114.5t-68.5 -76t-92 -28h-297v-141h-125v141h-455v138h455v428h-252q-55 0 -100 32.5t-79 87t-52.5 125t-18.5 148.5z M305 1106q0 -86 30 -144.5t81 -58.5h141v410h-141q-49 0 -80 -57.5t-31 -149.5zM682 279h152q59 0 94 63.5t35 149.5q0 41 -9.5 79.5t-26 68.5t-40 48.5t-53.5 18.5h-152v-428z" />
<glyph unicode="%" d="M55 1165v252q0 133 35 185.5t119 52.5h199q80 0 117.5 -52.5t37.5 -185.5v-252q0 -133 -37 -186t-118 -53h-199q-84 0 -119 53t-35 186zM201 1167q0 -70 13 -98.5t40 -28.5h106q31 0 43.5 30t12.5 95v252q0 63 -12.5 94t-43.5 31h-106q-53 0 -53 -125v-250zM283 0 l551 1655h149l-549 -1655h-151zM690 238v254q0 133 35 185t117 52h200q80 0 117 -52t37 -185v-254q0 -131 -37 -184.5t-117 -53.5h-200q-82 0 -117 53t-35 185zM834 242q0 -70 13 -99.5t42 -29.5h104q33 0 45.5 30.5t12.5 94.5v254q0 61 -12.5 91.5t-45.5 30.5h-104 q-55 0 -55 -122v-250z" />
<glyph unicode="&#x26;" d="M82 494q0 141 36 249.5t128 163.5q-82 61 -117 152.5t-35 202.5q0 82 21.5 154.5t62.5 124.5t97.5 83t127.5 31h459v-137h-317q-45 0 -82 -21.5t-62.5 -58.5t-40 -88.5t-14.5 -108.5q0 -117 48 -191.5t138 -74.5h639v-137h-245v-701h245v-137h-780q-72 0 -128 39 t-97 105.5t-62.5 156.5t-21.5 193zM340 487q0 -74 14.5 -138t40 -111.5t62.5 -74t82 -26.5h209v701h-209q-94 0 -146.5 -87t-52.5 -264z" />
<glyph unicode="'" d="M528 1255v502h195v-502h-195z" />
<glyph unicode="(" d="M289 -98v1630q0 90 40 168t107.5 135t157.5 90t190 33h179v-139h-211q-47 0 -90.5 -27t-76 -68t-51 -91t-18.5 -99v-1616q0 -78 16.5 -131t58.5 -85t114.5 -46t183.5 -14h74v-140h-142q-119 0 -216 28t-167.5 79t-109.5 124.5t-39 168.5z" />
<glyph unicode=")" d="M289 -358h76q111 0 182 15t113 48t58.5 85t16.5 128v1616q0 49 -19.5 99t-52 91t-75.5 68t-90 27h-209v139h178q98 0 187 -33t158 -91t110 -136t41 -166v-1630q0 -94 -40 -168t-111 -125t-169 -79t-215 -28h-139v140z" />
<glyph unicode="*" d="M178 1210l256 50l-196 172l163 163l174 -200l50 260l225 -60l-90 -249l252 86l59 -222l-258 -51l199 -176l-162 -162l-174 199l-51 -260l-224 61l84 248l-247 -86z" />
<glyph unicode="+" d="M166 834v141h383v340h156v-340h378v-141h-378v-367h-156v367h-383z" />
<glyph unicode="," d="M467 246h317l-94 -621h-223v621z" />
<glyph unicode="-" d="M98 694v144h1051v-144h-1051z" />
<glyph unicode="." d="M487 0v240h277v-240h-277z" />
<glyph unicode="/" d="M90 0l899 1655h174l-893 -1655h-180z" />
<glyph unicode="0" d="M72 430v789q0 88 21.5 167.5t61.5 139t97 94.5t127 35h493q70 0 127.5 -35t98.5 -94.5t62.5 -139t21.5 -167.5v-789q0 -90 -22.5 -169t-63.5 -137t-98.5 -91t-125.5 -33h-493q-68 0 -124 33t-97 91t-63.5 137t-22.5 169zM303 430q0 -78 25 -141l448 1210q-35 18 -76 19 h-196q-45 0 -82 -24t-63.5 -64.5t-41 -95t-14.5 -115.5v-789zM483 152q31 -14 72 -15h193q45 0 80.5 23.5t62.5 63.5t41 93.5t14 112.5v789q0 76 -22 143z" />
<glyph unicode="1" d="M88 0v137h416v1381h-268v137h540v-1518h389v-137h-1077z" />
<glyph unicode="2" d="M74 0v483q0 94 20.5 173t59.5 136.5t95 90t126 32.5h342q45 0 82 24t63.5 64.5t39.5 95t13 118.5q0 63 -14 117.5t-40.5 95t-63.5 64.5t-80 24h-473v137h620q70 0 127.5 -35t98 -94.5t63.5 -140t23 -175.5q0 -90 -21.5 -168.5t-61.5 -137t-97.5 -92.5t-131.5 -34h-344 q-86 0 -131 -80t-45 -215v-346h838v-137h-1108z" />
<glyph unicode="3" d="M82 0v137h627q43 0 79.5 25.5t62.5 69.5t41 102.5t15 126.5q0 61 -14 118.5t-40 100.5t-62.5 68.5t-81.5 25.5h-275v139h275q94 0 139 85t45 216q0 66 -14.5 121.5t-41 96.5t-63.5 63.5t-80 22.5h-596v137h744q70 0 127 -32t98 -90t63.5 -138t22.5 -174 q0 -129 -38 -223.5t-118 -143.5q43 -25 75 -69t53.5 -98t31.5 -114.5t10 -121.5q0 -90 -22.5 -172t-63.5 -143.5t-98 -98.5t-127 -37h-774z" />
<glyph unicode="4" d="M68 311v185l563 1159h366v-1213h185v-129h-185v-313h-245v311h-684zM246 442h506v1084z" />
<glyph unicode="5" d="M68 0v137h616q129 0 183.5 96.5t54.5 294.5q0 98 -13.5 162t-39 99.5t-65.5 50t-91 14.5h-645v801h976v-137h-716v-525h471q203 0 293 -113.5t90 -359.5t-92.5 -383t-266.5 -137h-755z" />
<glyph unicode="6" d="M72 383v889q0 113 17 187.5t56 117.5t103.5 60.5t161.5 17.5h557v-137h-443q-94 0 -135 -59.5t-41 -207.5v-262h572q125 0 193.5 -83t68.5 -230v-293q0 -113 -17.5 -186.5t-57.5 -117.5t-105.5 -61.5t-159.5 -17.5h-432q-96 0 -161 17.5t-104 61.5t-56 117.5t-17 186.5z M348 408q0 -152 41 -211.5t135 -59.5h205q172 0 172 221v308q0 186 -115 186h-438v-444z" />
<glyph unicode="7" d="M57 1518v137h1139l-704 -1655h-259l662 1518h-838z" />
<glyph unicode="8" d="M82 449q0 102 12 173.5t39 121t65 80t91 50.5q-98 45 -134 131.5t-36 221.5q0 98 17.5 177t54 135t95 86t142.5 30h395q84 0 143.5 -30t96.5 -86t53.5 -135t16.5 -177q0 -135 -37 -221t-131 -132q51 -20 89 -50.5t64.5 -80t39.5 -121t13 -173.5q0 -215 -77.5 -332 t-270.5 -117h-395q-96 0 -161.5 29.5t-106.5 87t-59.5 140.5t-18.5 192zM340 459q0 -172 53 -247t146 -75h174q92 0 145 75t53 247q0 174 -52 249.5t-146 75.5h-174q-98 0 -148.5 -76.5t-50.5 -248.5zM365 1221q0 -164 55 -230.5t147 -66.5h119q92 0 147.5 66.5t55.5 230.5 q0 86 -15.5 143t-42 91t-63.5 48.5t-82 14.5h-119q-47 0 -84 -14.5t-63.5 -48.5t-40.5 -91t-14 -143z" />
<glyph unicode="9" d="M74 915v365q0 113 16 187.5t55 117.5t102.5 60.5t160.5 17.5h434q94 0 159.5 -17.5t105.5 -60.5t57.5 -117.5t17.5 -187.5v-897q0 -113 -17.5 -186.5t-57.5 -117.5t-105.5 -61.5t-159.5 -17.5h-684v137h571q92 0 132 58.5t40 207.5v201h-569q-129 0 -193.5 81t-64.5 230z M344 993q0 -252 119 -252h438v508q0 154 -41 211.5t-131 57.5h-209q-176 0 -176 -224v-301z" />
<glyph unicode=":" d="M467 0v246h317v-246h-317zM467 725v242h317v-242h-317z" />
<glyph unicode=";" d="M467 246h317l-94 -621h-223v621zM467 725v242h317v-242h-317z" />
<glyph unicode="&#x3c;" d="M260 860l733 629v-186l-487 -414v-35l487 -414v-186z" />
<glyph unicode="=" d="M201 629v141h852v-141h-852zM201 1063v145h852v-145h-852z" />
<glyph unicode="&#x3e;" d="M258 254v186l487 414v35l-487 414v186l735 -629z" />
<glyph unicode="?" d="M98 1518v137h748q68 0 124 -32t97 -89t64.5 -136t23.5 -173q0 -90 -21.5 -171t-61.5 -142.5t-97 -97.5t-129 -36h-133q-117 0 -176.5 -97t-59.5 -269h-80q-37 47 -49 90t-12 106q0 57 21.5 112.5t60.5 98.5t92 69.5t119 26.5h67q88 0 143.5 84t55.5 218q0 63 -14.5 118.5 t-41 96.5t-63.5 63.5t-80 22.5h-598zM299 0v240h276v-240h-276z" />
<glyph unicode="@" d="M109 -96v1112q0 297 235 297h588q207 0 207 -297v-848h-521q-203 0 -202 350q0 332 223 332h199v-551h145v711q0 166 -76 166h-575q-37 0 -52.5 -40t-15.5 -126v-1102q0 -113 68 -113h807v-137h-795q-236 0 -235 246zM557 520q0 -221 66 -221h92v436h-92q-66 0 -66 -215z " />
<glyph unicode="A" d="M66 0l372 1655h375l375 -1655h-275l-67 360h-438l-68 -360h-274zM434 502h385l-186 975h-12z" />
<glyph unicode="B" d="M68 0v1655h784q70 0 127 -33t98 -90t63.5 -138t22.5 -175q0 -129 -36.5 -214t-110.5 -149q88 -61 129 -154.5t41 -242.5q0 -92 -22.5 -175t-63.5 -145.5t-98.5 -100.5t-127.5 -38h-806zM340 137h387q43 0 80 24.5t62.5 68.5t40 102.5t14.5 126.5q0 63 -13.5 120.5 t-39 101.5t-62.5 70.5t-82 26.5h-387v-641zM340 920h365q92 0 144 77.5t52 212.5q0 66 -14.5 122.5t-40 97t-62 64.5t-79.5 24h-365v-598z" />
<glyph unicode="C" d="M123 430v789q0 88 22.5 167.5t62.5 139t97 94.5t129 35h696v-137h-550q-45 0 -81 -24t-61.5 -64.5t-40 -95t-14.5 -115.5v-789q0 -59 14.5 -111.5t40 -93.5t61.5 -64.5t81 -23.5h550v-137h-696q-72 0 -129 33t-97 91t-62.5 137t-22.5 169z" />
<glyph unicode="D" d="M82 0v1655h780q70 0 127.5 -35t98 -94.5t63.5 -139t23 -167.5v-789q0 -90 -23 -168t-63.5 -136t-98 -92t-127.5 -34h-780zM354 137h361q43 0 78.5 22.5t61.5 62.5t41 93.5t15 114.5v789q0 61 -14 115.5t-40 95t-62.5 64.5t-79.5 24h-361v-1381z" />
<glyph unicode="E" d="M104 0v1655h1041v-137h-762v-619h553v-139h-553v-623h762v-137h-1041z" />
<glyph unicode="F" d="M94 0v1655h1063v-137h-782v-644h575v-139h-575v-735h-281z" />
<glyph unicode="G" d="M94 430v789q0 88 21.5 167.5t62.5 139t99.5 94.5t130.5 35h722v-137h-575q-47 0 -83 -24t-62.5 -64.5t-40 -95t-13.5 -115.5v-789q0 -61 14.5 -114.5t41 -93.5t63.5 -62.5t80 -22.5h352v623h-299v141h549v-901h-749q-68 0 -125.5 34t-99.5 92t-65.5 136t-23.5 168z" />
<glyph unicode="H" d="M68 0v1655h276v-756h563v756h279v-1655h-279v760h-563v-760h-276z" />
<glyph unicode="I" d="M104 0v137h381v1381h-381v137h1041v-137h-381v-1381h381v-137h-1041z" />
<glyph unicode="J" d="M109 0v137h575q45 0 82 22.5t63.5 62.5t41 93.5t14.5 114.5v1088h-451v137h709v-1225q0 -90 -22.5 -169t-64.5 -137t-98.5 -91t-123.5 -33h-725z" />
<glyph unicode="K" d="M82 0v1655h276v-719h17l514 719h282l-565 -778l565 -877h-309l-487 788l-17 -4v-784h-276z" />
<glyph unicode="L" d="M82 0v1655h276v-1518h809v-137h-1085z" />
<glyph unicode="M" d="M76 0v1655h311l236 -1409l239 1409h314v-1655h-213v1266l-220 -1266h-237l-217 1257v-1257h-213z" />
<glyph unicode="N" d="M76 0v1655h299l583 -1358v1358h218v-1655h-353l-538 1214v-1214h-209z" />
<glyph unicode="O" d="M66 430v789q0 88 22.5 167.5t62 139t97 94.5t127.5 35h502q70 0 126 -35t97 -94.5t63.5 -139t22.5 -167.5v-789q0 -90 -22.5 -169t-64.5 -137t-98.5 -91t-123.5 -33h-502q-70 0 -126 33t-97 91t-63.5 137t-22.5 169zM322 430q0 -61 15 -114.5t42 -93.5t64.5 -62.5 t80.5 -22.5h205q43 0 80 22.5t62.5 62.5t40 93.5t14.5 114.5v789q0 61 -14.5 115.5t-40 95t-61.5 64.5t-81 24h-205q-45 0 -81.5 -24t-63.5 -64.5t-42 -95t-15 -115.5v-789z" />
<glyph unicode="P" d="M82 0v1655h780q68 0 125 -39t99 -107.5t65 -161t23 -198.5q0 -104 -23 -193.5t-63.5 -155t-98 -102t-127.5 -36.5h-506v-662h-274zM356 803h359q45 0 82 26.5t62.5 73.5t38.5 111.5t13 140.5t-13 141.5t-38.5 114.5t-62.5 78t-82 29h-359v-715z" />
<glyph unicode="Q" d="M68 428v791q0 88 22.5 167.5t62.5 139t96 94.5t126 35h499q70 0 128.5 -35t98.5 -94.5t62.5 -139t22.5 -167.5v-791q0 -90 -23.5 -168t-64.5 -136t-98.5 -91t-125.5 -33h-100l121 -254h-219l-121 254h-180q-68 0 -124 33t-97 90t-63.5 136t-22.5 169zM326 428 q0 -61 14 -113.5t41 -92.5t63.5 -62.5t81.5 -22.5h201q43 0 80 23.5t62.5 63.5t40 92.5t14.5 111.5v791q0 61 -14.5 115.5t-40 95t-61.5 64.5t-81 24h-201q-45 0 -81.5 -24t-63.5 -64.5t-41 -95t-14 -115.5v-791z" />
<glyph unicode="R" d="M78 0v1655h776q72 0 131 -36t101 -96.5t65 -140t23 -168.5q0 -272 -185 -395q174 -88 174 -436v-383h-260v383q0 76 -14.5 142.5t-40 115.5t-61 78t-80.5 29h-357v-748h-272zM350 889h359q45 0 80.5 24.5t61.5 66.5t39 98.5t13 121.5q0 66 -15.5 124t-41 101t-61 68 t-78.5 25h-357v-629z" />
<glyph unicode="S" d="M76 1196q0 229 86 344t241 115h670v-137h-557q-41 0 -74.5 -14.5t-58.5 -48.5t-38 -89t-13 -137q0 -160 56 -221.5t171 -61.5h205q223 0 317.5 -118.5t94.5 -333.5q0 -111 -24 -201t-71 -155.5t-116.5 -101.5t-161.5 -36h-666v137h570q45 0 83.5 16.5t65.5 55.5t42 103.5 t15 160.5q0 88 -16 143.5t-55 85t-103.5 40t-160.5 10.5h-152q-88 0 -153.5 32.5t-109.5 92t-65.5 140.5t-21.5 179z" />
<glyph unicode="T" d="M115 1518v137h1024v-137h-369v-1518h-272v1518h-383z" />
<glyph unicode="U" d="M72 430v1225h256v-1225q0 -135 53 -214t145 -79h197q86 0 141.5 79t55.5 214v1225h262v-1225q0 -90 -22.5 -169t-64.5 -137t-99.5 -91t-125.5 -33h-491q-68 0 -124 33t-97 91t-63.5 137t-22.5 169z" />
<glyph unicode="V" d="M66 1655h274l274 -1477h19l280 1477h275l-375 -1655h-375z" />
<glyph unicode="W" d="M4 1655h275l100 -1440h10l164 991h147l162 -991h10l101 1440h270l-192 -1655h-303l-119 723h-8l-117 -723h-301z" />
<glyph unicode="X" d="M78 0l403 846l-381 809h287l258 -635l275 635h256l-381 -809l379 -846h-291l-252 670l-271 -670h-282z" />
<glyph unicode="Y" d="M53 1655h293l283 -836l295 836h274l-444 -1061v-594h-277v598z" />
<glyph unicode="Z" d="M82 0v90l815 1428h-815v137h1085v-129l-776 -1389h776v-137h-1085z" />
<glyph unicode="[" d="M289 -498v2456h674v-139h-447v-2177h447v-140h-674z" />
<glyph unicode="\" d="M90 1655h172l901 -1655h-180z" />
<glyph unicode="]" d="M289 -358h446v2177h-446v139h674v-2456h-674v140z" />
<glyph unicode="^" d="M10 924l613 731l618 -731h-182l-416 485h-35l-413 -485h-185z" />
<glyph unicode="_" d="M-4 -301h1261v-176h-1261v176z" />
<glyph unicode="`" d="M301 1423v195l487 -107v-141z" />
<glyph unicode="a" d="M61 389q0 197 66 296t219 99h567v166q0 125 -38.5 175.5t-137.5 50.5h-495v137h610q94 0 159.5 -17.5t104.5 -61.5t56.5 -119t17.5 -189v-926h-844q-150 0 -217.5 102.5t-67.5 286.5zM322 397q0 -135 44 -197.5t154 -62.5h393v512h-364q-123 0 -175 -56t-52 -196z" />
<glyph unicode="b" d="M78 0v1731h276v-418h486q88 0 152.5 -22.5t104.5 -75t59.5 -137.5t19.5 -208v-430q0 -125 -19.5 -209t-61.5 -135t-105.5 -73.5t-149.5 -22.5h-762zM354 137h371q39 0 71.5 9.5t55 39t35 83t12.5 143.5v485q0 154 -40 215.5t-132 61.5h-373v-1037z" />
<glyph unicode="c" d="M98 412v489q0 117 18.5 196t58.5 127t103.5 68.5t155.5 20.5h715v-137h-594q-98 0 -137 -60.5t-39 -212.5v-514q0 -82 14.5 -132t52 -76.5t105 -35t174.5 -8.5h424v-137h-715q-90 0 -153.5 19.5t-104.5 67.5t-59.5 127t-18.5 198z" />
<glyph unicode="d" d="M82 440v430q0 123 17.5 207t57.5 136.5t104.5 76t156.5 23.5h479v418h274v-1731h-753q-88 0 -151.5 22.5t-104.5 73.5t-60.5 135t-19.5 209zM354 563q0 -141 13.5 -225t45 -128t87 -58.5t141.5 -14.5h256v1037h-367q-94 0 -135 -62.5t-41 -214.5v-334z" />
<glyph unicode="e" d="M74 412v487q0 119 18.5 198t59.5 127t103 68.5t153 20.5h499q274 0 275 -389q0 -375 -275 -375h-557v-141q0 -86 11.5 -138.5t37 -82t67.5 -40t105 -10.5h484v-137h-647q-90 0 -152.5 19.5t-103.5 66.5t-59.5 126t-18.5 200zM350 686h426q47 0 80 11.5t54.5 38t30.5 72.5 t9 116q0 143 -39 197.5t-135 54.5h-250q-92 0 -134 -60.5t-42 -212.5v-217z" />
<glyph unicode="f" d="M92 1176v137h326q0 98 16.5 176t55 131t103 82t161.5 29h405v-140h-282q-53 0 -88 -21.5t-55.5 -59t-30 -89t-9.5 -108.5h316v-137h-316v-1176h-276v1176h-326z" />
<glyph unicode="g" d="M78 416v485q0 119 18.5 198t59.5 126t105.5 67.5t154.5 20.5h760v-1397q0 -121 -18.5 -201t-59.5 -127t-104.5 -66.5t-153.5 -19.5h-527v138h269q102 0 165.5 11t97.5 39.5t45 78t11 125.5v106h-485q-94 0 -158.5 20.5t-104.5 68.5t-57.5 128t-17.5 199zM350 397 q0 -145 42 -202.5t136 -57.5h373v1039h-278q-78 0 -130.5 -11.5t-84 -40t-45 -76t-13.5 -118.5v-533z" />
<glyph unicode="h" d="M74 0v1731h276v-418h496q94 0 157.5 -17.5t103.5 -61.5t57.5 -119t17.5 -187v-928h-275v903q0 152 -41 213.5t-131 61.5h-385v-1178h-276z" />
<glyph unicode="i" d="M94 0v137h393v1037h-393v139h670v-1176h393v-137h-1063zM467 1501v230h317v-230h-317z" />
<glyph unicode="j" d="M233 -360h248q80 0 130.5 7t80 35.5t39.5 86t10 159.5v1248h-508v137h785v-1428q0 -113 -17.5 -186.5t-57.5 -117.5t-104.5 -61.5t-156.5 -17.5h-449v138zM721 1501v230h317v-230h-317z" />
<glyph unicode="k" d="M74 0v1731h276v-932h19l491 514h279l-553 -592l596 -721h-324l-493 606h-15v-606h-276z" />
<glyph unicode="l" d="M92 0v137h389v1454h-389v140h664v-1594h401v-137h-1065z" />
<glyph unicode="m" d="M61 0v1313h793q94 0 158.5 -17.5t103.5 -61.5t56.5 -118t17.5 -186v-930h-270v901q0 152 -42 213.5t-135 61.5h-71v-1176h-160v1176h-180v-1176h-271z" />
<glyph unicode="n" d="M76 0v1313h766q94 0 158.5 -18.5t104.5 -62.5t56.5 -118t16.5 -184v-930h-271v901q0 156 -42 215.5t-132 59.5h-385v-1176h-272z" />
<glyph unicode="o" d="M51 412v489q0 119 18.5 199t58.5 127t103.5 66.5t155.5 19.5h479q90 0 153.5 -19.5t104.5 -66.5t59.5 -127t18.5 -199v-489q0 -121 -18.5 -200t-59.5 -126t-104.5 -66.5t-153.5 -19.5h-479q-92 0 -155.5 19.5t-103.5 66.5t-58.5 126t-18.5 200zM326 434q0 -92 11 -150.5 t36.5 -90t68.5 -44t107 -12.5h156q63 0 105 10.5t67.5 40t37 82t11.5 138.5v495q0 150 -40 211.5t-134 61.5h-250q-94 0 -135 -61.5t-41 -211.5v-469z" />
<glyph unicode="p" d="M61 -498v1811h791q88 0 152.5 -20.5t106.5 -68.5t61.5 -127t19.5 -196v-489q0 -121 -18.5 -200t-59.5 -126t-105.5 -66.5t-156.5 -19.5h-516v-498h-275zM336 137h401q98 0 137 58.5t39 201.5v535q0 76 -12 124t-46 74.5t-91 36t-150 9.5h-278v-1039z" />
<glyph unicode="q" d="M82 412v489q0 119 18.5 198t59.5 126t104.5 67.5t153.5 20.5h753v-1811h-274v498h-479q-94 0 -158.5 19.5t-103.5 67.5t-56.5 127t-17.5 198zM354 397q0 -145 41 -202.5t135 -57.5h367v1039h-274q-78 0 -129.5 -11.5t-82 -40t-44 -76t-13.5 -116.5v-535z" />
<glyph unicode="r" d="M119 0v915q0 397 475 398h539v-137h-490q-78 0 -126 -8.5t-74.5 -38t-36 -88t-9.5 -156.5v-885h-278z" />
<glyph unicode="s" d="M55 926q0 186 77 286.5t243 100.5h725v-137h-684q-49 0 -84 -60.5t-35 -148.5q0 -86 35 -144.5t84 -58.5h491q76 0 131.5 -31t91 -82t52 -117.5t16.5 -136.5q0 -184 -66.5 -290.5t-207.5 -106.5h-822v137h732q31 0 55 18.5t42.5 49.5t28 71.5t9.5 83.5q0 41 -7.5 79 t-23.5 67t-42 45t-62 16h-502q-66 0 -117 32t-87 82t-54.5 114.5t-18.5 130.5z" />
<glyph unicode="t" d="M92 1176v137h338v342h275v-342h452v-137h-452v-805q0 -74 7 -119t33.5 -70.5t77.5 -35t140 -9.5v-137h-197q-106 0 -172 13.5t-102.5 50t-49 100t-12.5 162.5v850h-338z" />
<glyph unicode="u" d="M74 383v930h270v-905q0 -150 41 -210.5t135 -60.5h383v1176h279v-1313h-774q-96 0 -160 17.5t-103 61.5t-55 117.5t-16 186.5z" />
<glyph unicode="v" d="M43 1313h279l301 -1168l309 1168h278l-391 -1313h-385z" />
<glyph unicode="w" d="M18 1313h279l121 -1168l135 818h147l129 -818l125 1168h279l-207 -1313h-311l-90 623l-86 -623h-312z" />
<glyph unicode="x" d="M63 1313h271l295 -502l311 502h250l-424 -639l422 -674h-270l-293 508l-295 -508h-264l417 664z" />
<glyph unicode="y" d="M29 1313h305l330 -996l344 996h217l-678 -1811h-225l206 498z" />
<glyph unicode="z" d="M113 0v82l733 1094h-733v137h1026v-121l-695 -1055h695v-137h-1026z" />
<glyph unicode="{" d="M227 729q111 59 167.5 135t56.5 176v492q0 90 39.5 168t107.5 135t158 90t190 33h80v-139h-113q-47 0 -89 -27t-74.5 -68t-51 -91t-18.5 -99v-494q0 -47 -18.5 -91t-50 -84t-72.5 -74.5t-86 -61.5q45 -29 86 -61.5t72.5 -69.5t50 -78t18.5 -86v-516q0 -78 8 -131t36 -85 t82 -46t144 -14h76v-140h-43q-117 0 -215 28t-169 79t-109.5 124.5t-38.5 168.5v532q0 193 -224 295z" />
<glyph unicode="|" d="M526 -498v2456h199v-2456h-199z" />
<glyph unicode="}" d="M227 -358h70q86 0 139 14t84 46t41 85t10 131v516q0 45 18.5 86t49.5 78t72 69.5t86 61.5q-45 27 -86 61.5t-72 74.5t-49.5 84t-18.5 91v494q0 49 -19.5 99t-51 91t-74.5 68t-90 27h-109v139h76q98 0 188.5 -33t159 -90t108.5 -135t40 -168v-492q0 -100 55 -176t172 -135 q-117 -51 -172 -126t-55 -169v-532q0 -94 -39 -168t-109.5 -125t-169 -79t-217.5 -28h-37v140z" />
<glyph unicode="~" d="M176 682q0 63 11.5 122.5t35 104.5t57 72t80.5 27h154q51 0 86 -28t65.5 -61.5t62.5 -61.5t75 -28q51 0 80.5 49.5t29.5 129.5h160q0 -59 -15.5 -116.5t-43 -104t-65.5 -75t-83 -28.5h-112q-66 0 -101 30.5t-61.5 67.5t-57 68t-85.5 31q-31 0 -52.5 -18.5t-35 -47.5 t-19.5 -63.5t-6 -69.5h-160z" />
<glyph unicode="&#xa0;" />
<glyph unicode="&#xa1;" d="M467 911v242h317v-242h-317zM487 -498v1192h277v-1192h-277z" />
<glyph unicode="&#xa2;" d="M246 532v592q0 86 13 142.5t43 90.5t75 47t108 13h154v238h96v-238h266v-98h-266v-981h266v-98h-266v-240h-96v240h-154q-63 0 -108 13t-75 47t-43 90t-13 142zM444 516q0 -59 7.5 -94t29 -53.5t59.5 -24.5t99 -6v981h-70q-125 0 -125 -191v-612z" />
<glyph unicode="&#xa3;" d="M109 786v144h188v297q0 92 22.5 170t64.5 135t98.5 90t123.5 33h508v-137h-358q-43 0 -80 -22.5t-63.5 -61.5t-41 -92.5t-14.5 -114.5v-297h336v-144h-336v-645h586v-141h-846v786h-188z" />
<glyph unicode="&#xa5;" d="M53 1655h291l281 -858l282 858h291l-444 -1061v-37h258v-96h-258v-201h258v-94h-258v-166h-277v166h-231v94h231v201h-231v96h231v41z" />
<glyph unicode="&#xa6;" d="M520 375h213v-826h-213v826zM520 1135v823h213v-823h-213z" />
<glyph unicode="&#xa7;" d="M117 696q0 193 129 291q-74 55 -101.5 138t-27.5 178q0 162 72.5 257t209.5 95h637v-137h-559q-49 0 -83 -60.5t-34 -146.5t34 -145.5t83 -59.5h397q66 0 115 -33t81 -88t48.5 -127t16.5 -151q0 -94 -28 -170t-85 -125q61 -49 87 -134t26 -180q0 -78 -15.5 -143.5 t-46.5 -113.5t-78 -75.5t-110 -27.5h-719v137h604q31 0 55.5 18.5t43 49t28.5 70.5t10 85q0 82 -38 143.5t-99 61.5h-377q-63 0 -114.5 33t-87 87t-55 124.5t-19.5 148.5zM360 705q0 -86 33 -144.5t84 -58.5h350q37 27 58.5 83t21.5 120q0 82 -38 142t-99 60h-297 q-49 -2 -81 -59t-32 -143z" />
<glyph unicode="&#xa8;" d="M211 1409v209h276v-209h-276zM764 1409v209h276v-209h-276z" />
<glyph unicode="&#xa9;" d="M68 827q0 264 14 434.5t70.5 267.5t168 135t304.5 38q195 0 306 -38t166.5 -135t70 -267t14.5 -435q0 -264 -14.5 -434t-70 -268t-167 -135t-305.5 -37q-129 0 -220.5 15.5t-153 54t-98 103t-56 161t-24.5 230.5t-5 310zM178 827q0 -240 21.5 -386t73 -226t137.5 -106.5 t215 -26.5q131 0 217 26.5t137 106.5t72.5 226.5t21.5 385.5q0 238 -20.5 384.5t-71.5 227.5t-138 108.5t-218 27.5t-217 -27.5t-137.5 -108.5t-72 -227.5t-20.5 -384.5zM356 596v446q0 109 56.5 178.5t142.5 69.5h274v-76h-180q-59 0 -94 -51t-35 -121v-446q0 -70 35 -119 t94 -49h180v-78h-274q-86 0 -142.5 67.5t-56.5 178.5z" />
<glyph unicode="&#xaa;" d="M246 1032q0 59 15 110.5t43 90.5t66 60.5t83 21.5h333v78q0 74 -19 97t-67 23h-340v144h410q63 0 108.5 -13.5t74 -46t41 -86t12.5 -135.5v-628h-553q-45 0 -83 21.5t-66 59t-43 90t-15 113.5zM461 1044q0 -156 59 -155h264v289h-176q-88 0 -117.5 -31t-29.5 -103z" />
<glyph unicode="&#xab;" d="M184 690v123l412 346v-194l-293 -217l293 -218v-194zM657 690v123l410 346v-194l-293 -217l293 -218v-194z" />
<glyph unicode="&#xac;" d="M166 834v141h917v-481h-139v340h-778z" />
<glyph unicode="&#xad;" d="M98 694v144h1051v-144h-1051zM98 694z" />
<glyph unicode="&#xae;" d="M94 1135q0 119 43 222t116 180t169.5 121t202.5 44q111 0 207 -44t168.5 -121t114.5 -180.5t42 -221.5q0 -119 -42 -222.5t-113.5 -179.5t-169 -120t-207.5 -44q-109 0 -206 44t-169 120t-114 179.5t-42 222.5zM190 1130q0 -94 35 -180t93.5 -152.5t137.5 -106.5t169 -40 q88 0 167.5 38t140 103.5t95.5 152.5t35 185q0 96 -35 183.5t-95.5 153t-140 103.5t-167.5 38q-90 0 -169 -40t-137.5 -105.5t-93.5 -151.5t-35 -181zM371 813v637h364q66 0 108 -48t42 -122q0 -104 -86 -154q82 -31 82 -168v-145h-125v145q0 143 -92 144h-166v-289h-127z M498 1155h168q94 0 94 121t-94 121h-168v-242z" />
<glyph unicode="&#xaf;" d="M170 1432v186h911v-186h-911z" />
<glyph unicode="&#xb0;" d="M238 1120v316q0 164 54 229.5t181 65.5h305q125 0 181.5 -66t56.5 -229v-316q0 -164 -56.5 -231.5t-181.5 -67.5h-305q-127 0 -181 67.5t-54 231.5zM410 1100q0 -86 19.5 -125t66.5 -39h260q47 0 66.5 39t19.5 121v364q0 80 -19.5 116t-66.5 36h-260q-47 0 -66.5 -36 t-19.5 -116v-360z" />
<glyph unicode="&#xb1;" d="M166 0v141h917v-141h-917zM166 0zM166 834v141h383v340h156v-340h378v-141h-378v-367h-156v367h-383z" />
<glyph unicode="&#xb2;" d="M371 852v98h291q37 0 52 34t15 93q0 53 -15.5 89t-51.5 36h-142v101h142q37 0 52 33.5t15 90.5q0 59 -15.5 93t-51.5 34h-291v105h356q74 0 114 -67.5t40 -159.5q0 -109 -86 -183q86 -72 86 -176q0 -98 -42 -159.5t-112 -61.5h-356z" />
<glyph unicode="&#xb3;" d="M365 852v244q0 98 38.5 156.5t110.5 58.5h150q33 0 52 35.5t19 85.5q0 51 -19.5 86.5t-51.5 35.5h-224v101h293q68 0 109 -65.5t41 -162.5q0 -94 -40 -153.5t-110 -59.5h-158q-59 0 -59 -118v-146h373v-98h-524z" />
<glyph unicode="&#xb4;" d="M465 1370v141l487 107v-195z" />
<glyph unicode="&#xb6;" d="M82 1149q0 106 22.5 198.5t63.5 161t97.5 107.5t125.5 39h783v-2153h-252v1979h-222v-1979h-223v1160h-86q-72 0 -128 36.5t-97 102t-62.5 154.5t-21.5 194z" />
<glyph unicode="&#xb7;" d="M487 676v240h277v-240h-277zM487 676z" />
<glyph unicode="&#xb8;" d="M500 -102h252l-90 -396h-162v396z" />
<glyph unicode="&#xb9;" d="M418 854v96h135v609h-119v100h268v-709h119v-96h-403z" />
<glyph unicode="&#xba;" d="M238 1047v313q0 166 54 231.5t181 65.5h305q125 0 181.5 -66.5t56.5 -230.5v-313q0 -84 -13.5 -142.5t-43 -93.5t-74.5 -50.5t-107 -15.5h-305q-63 0 -107 15.5t-73 50.5t-42 93.5t-13 142.5zM461 1051q0 -86 19.5 -125t66.5 -39h160q47 0 65.5 37t18.5 123v313 q0 80 -18.5 118t-65.5 38h-160q-47 0 -66.5 -38t-19.5 -118v-309z" />
<glyph unicode="&#xbb;" d="M184 336v194l293 215l-293 220v194l412 -352v-123zM657 336v194l293 215l-293 220v194l410 -352v-123z" />
<glyph unicode="&#xbc;" d="M47 854v96h133v609h-117v100h269v-709h119v-96h-404zM76 0l964 1655h150l-959 -1655h-155zM684 141v109l256 553h184v-565h84v-93h-84v-145h-141v141h-299zM795 238h202v415z" />
<glyph unicode="&#xbd;" d="M43 854v96h135v609h-117v100h267v-709h121v-96h-406zM74 0l962 1655h152l-961 -1655h-153zM690 0v244q0 98 38 156.5t110 58.5h149q33 0 53.5 35.5t20.5 85.5q0 51 -20.5 85.5t-53.5 34.5h-223v103h291q68 0 109.5 -64.5t41.5 -163.5q0 -94 -41 -154.5t-110 -60.5h-156 q-59 0 -59 -116v-146h370v-98h-520z" />
<glyph unicode="&#xbe;" d="M61 0l965 1655h150l-959 -1655h-156zM66 852v98h266q35 0 51 34t16 93q0 53 -16 89t-51 36h-142v101h142q35 0 51 33.5t16 90.5q0 59 -16 93t-51 34h-266v105h331q72 0 112 -67.5t40 -159.5q0 -109 -86 -183q86 -72 86 -176q0 -98 -41 -159.5t-111 -61.5h-331zM670 141 v109l254 553h186v-565h82v-93h-82v-145h-141v141h-299zM778 238h205v415z" />
<glyph unicode="&#xbf;" d="M98 -68q0 90 21.5 171t61.5 142.5t97.5 97.5t129.5 36h133q117 0 176 97t59 269h80q37 -47 49.5 -90t12.5 -106q0 -57 -22 -112.5t-60.5 -98.5t-93 -69.5t-117.5 -26.5h-68q-88 0 -143.5 -84t-55.5 -217q0 -66 14.5 -120t41 -95t63.5 -63.5t80 -22.5h598v-138h-747 q-68 0 -124.5 32t-97.5 89.5t-64.5 136t-23.5 172.5zM678 918v237h276v-237h-276z" />
<glyph unicode="&#xc0;" d="M66 0l372 1655h375l375 -1655h-275l-67 360h-438l-68 -360h-274zM66 0zM301 1765v195l487 -107v-141zM434 502h385l-186 975h-12z" />
<glyph unicode="&#xc1;" d="M66 0l372 1655h375l375 -1655h-275l-67 360h-438l-68 -360h-274zM66 0zM434 502h385l-186 975h-12zM465 1712v141l487 107v-195z" />
<glyph unicode="&#xc2;" d="M66 0l372 1655h375l375 -1655h-275l-67 360h-438l-68 -360h-274zM66 0zM221 1718l250 242h311l248 -242h-239l-168 160l-162 -160h-240zM434 502h385l-186 975h-12z" />
<glyph unicode="&#xc3;" d="M66 0l372 1655h375l375 -1655h-275l-67 360h-438l-68 -360h-274zM66 0zM178 1753q0 98 68.5 152.5t210.5 54.5q66 0 107.5 -14.5t76.5 -31t69.5 -30.5t84.5 -14q47 0 74.5 14t27.5 76h174q0 -82 -64.5 -143.5t-207.5 -61.5q-74 0 -117 16.5t-77 35t-66.5 35t-81.5 16.5 q-61 0 -83 -24t-22 -81h-174zM434 502h385l-186 975h-12z" />
<glyph unicode="&#xc4;" d="M66 0l372 1655h375l375 -1655h-275l-67 360h-438l-68 -360h-274zM66 0zM211 1751v209h276v-209h-276zM434 502h385l-186 975h-12zM764 1751v209h276v-209h-276z" />
<glyph unicode="&#xc5;" d="M66 0l362 1610q-47 27 -47 108v117q0 70 34 97.5t113 27.5h193q80 0 114.5 -27.5t34.5 -97.5v-117q0 -82 -47 -108l365 -1610h-275l-67 360h-438l-68 -360h-274zM434 502h385l-186 975h-12zM518 1726q0 -29 15.5 -47t37.5 -24h109q51 12 51 71v109q0 33 -12 48t-45 15 h-101q-31 0 -43 -15t-12 -48v-109z" />
<glyph unicode="&#xc6;" d="M47 0l203 1655h952v-129h-414v-852h256v-137h-256v-390h414v-137h-627v527h-258l-63 -537h-207zM336 674h239v852h-149z" />
<glyph unicode="&#xc7;" d="M123 0zM123 430v789q0 88 22.5 167.5t62.5 139t97 94.5t129 35h696v-137h-550q-45 0 -81 -24t-61.5 -64.5t-40 -95t-14.5 -115.5v-789q0 -59 14.5 -111.5t40 -93.5t61.5 -64.5t81 -23.5h550v-137h-696q-72 0 -129 33t-97 91t-62.5 137t-22.5 169zM500 -102h252l-90 -396 h-162v396z" />
<glyph unicode="&#xc8;" d="M104 0v1655h1041v-137h-762v-619h553v-139h-553v-623h762v-137h-1041zM104 0zM301 1765v195l487 -107v-141z" />
<glyph unicode="&#xc9;" d="M104 0v1655h1041v-137h-762v-619h553v-139h-553v-623h762v-137h-1041zM104 0zM465 1712v141l487 107v-195z" />
<glyph unicode="&#xca;" d="M104 0v1655h1041v-137h-762v-619h553v-139h-553v-623h762v-137h-1041zM104 0zM221 1718l250 242h311l248 -242h-239l-168 160l-162 -160h-240z" />
<glyph unicode="&#xcb;" d="M104 0v1655h1041v-137h-762v-619h553v-139h-553v-623h762v-137h-1041zM104 0zM211 1751v209h276v-209h-276zM764 1751v209h276v-209h-276z" />
<glyph unicode="&#xcc;" d="M104 0v137h381v1381h-381v137h1041v-137h-381v-1381h381v-137h-1041zM104 0zM301 1765v195l487 -107v-141z" />
<glyph unicode="&#xcd;" d="M104 0v137h381v1381h-381v137h1041v-137h-381v-1381h381v-137h-1041zM104 0zM465 1712v141l487 107v-195z" />
<glyph unicode="&#xce;" d="M104 0v137h381v1381h-381v137h1041v-137h-381v-1381h381v-137h-1041zM104 0zM221 1718l250 242h311l248 -242h-239l-168 160l-162 -160h-240z" />
<glyph unicode="&#xcf;" d="M104 0v137h381v1381h-381v137h1041v-137h-381v-1381h381v-137h-1041zM104 0zM211 1751v209h276v-209h-276zM764 1751v209h276v-209h-276z" />
<glyph unicode="&#xd0;" d="M51 788v136h55v731h783q70 0 128 -35t98 -94.5t62.5 -139t22.5 -167.5v-791q0 -90 -22.5 -169t-64.5 -137.5t-99.5 -92t-124.5 -33.5h-783v792h-55zM383 135h358q45 0 82 24.5t62.5 64.5t40 93.5t14.5 110.5v791q0 61 -14.5 115.5t-41 95t-62.5 64.5t-81 24h-358v-594 h258v-136h-258v-653z" />
<glyph unicode="&#xd1;" d="M76 0v1655h299l583 -1358v1358h218v-1655h-353l-538 1214v-1214h-209zM76 0zM178 1753q0 98 68.5 152.5t210.5 54.5q66 0 107.5 -14.5t76.5 -31t69.5 -30.5t84.5 -14q47 0 74.5 14t27.5 76h174q0 -82 -64.5 -143.5t-207.5 -61.5q-74 0 -117 16.5t-77 35t-66.5 35 t-81.5 16.5q-61 0 -83 -24t-22 -81h-174z" />
<glyph unicode="&#xd2;" d="M66 0zM66 430v789q0 88 22.5 167.5t62 139t97 94.5t127.5 35h502q70 0 126 -35t97 -94.5t63.5 -139t22.5 -167.5v-789q0 -90 -22.5 -169t-64.5 -137t-98.5 -91t-123.5 -33h-502q-70 0 -126 33t-97 91t-63.5 137t-22.5 169zM301 1765v195l487 -107v-141zM322 430 q0 -61 15 -114.5t42 -93.5t64.5 -62.5t80.5 -22.5h205q43 0 80 22.5t62.5 62.5t40 93.5t14.5 114.5v789q0 61 -14.5 115.5t-40 95t-61.5 64.5t-81 24h-205q-45 0 -81.5 -24t-63.5 -64.5t-42 -95t-15 -115.5v-789z" />
<glyph unicode="&#xd3;" d="M66 0zM66 430v789q0 88 22.5 167.5t62 139t97 94.5t127.5 35h502q70 0 126 -35t97 -94.5t63.5 -139t22.5 -167.5v-789q0 -90 -22.5 -169t-64.5 -137t-98.5 -91t-123.5 -33h-502q-70 0 -126 33t-97 91t-63.5 137t-22.5 169zM322 430q0 -61 15 -114.5t42 -93.5t64.5 -62.5 t80.5 -22.5h205q43 0 80 22.5t62.5 62.5t40 93.5t14.5 114.5v789q0 61 -14.5 115.5t-40 95t-61.5 64.5t-81 24h-205q-45 0 -81.5 -24t-63.5 -64.5t-42 -95t-15 -115.5v-789zM465 1712v141l487 107v-195z" />
<glyph unicode="&#xd4;" d="M66 0zM66 430v789q0 88 22.5 167.5t62 139t97 94.5t127.5 35h502q70 0 126 -35t97 -94.5t63.5 -139t22.5 -167.5v-789q0 -90 -22.5 -169t-64.5 -137t-98.5 -91t-123.5 -33h-502q-70 0 -126 33t-97 91t-63.5 137t-22.5 169zM221 1718l250 242h311l248 -242h-239l-168 160 l-162 -160h-240zM322 430q0 -61 15 -114.5t42 -93.5t64.5 -62.5t80.5 -22.5h205q43 0 80 22.5t62.5 62.5t40 93.5t14.5 114.5v789q0 61 -14.5 115.5t-40 95t-61.5 64.5t-81 24h-205q-45 0 -81.5 -24t-63.5 -64.5t-42 -95t-15 -115.5v-789z" />
<glyph unicode="&#xd5;" d="M66 0zM66 430v789q0 88 22.5 167.5t62 139t97 94.5t127.5 35h502q70 0 126 -35t97 -94.5t63.5 -139t22.5 -167.5v-789q0 -90 -22.5 -169t-64.5 -137t-98.5 -91t-123.5 -33h-502q-70 0 -126 33t-97 91t-63.5 137t-22.5 169zM178 1753q0 98 68.5 152.5t210.5 54.5 q66 0 107.5 -14.5t76.5 -31t69.5 -30.5t84.5 -14q47 0 74.5 14t27.5 76h174q0 -82 -64.5 -143.5t-207.5 -61.5q-74 0 -117 16.5t-77 35t-66.5 35t-81.5 16.5q-61 0 -83 -24t-22 -81h-174zM322 430q0 -61 15 -114.5t42 -93.5t64.5 -62.5t80.5 -22.5h205q43 0 80 22.5 t62.5 62.5t40 93.5t14.5 114.5v789q0 61 -14.5 115.5t-40 95t-61.5 64.5t-81 24h-205q-45 0 -81.5 -24t-63.5 -64.5t-42 -95t-15 -115.5v-789z" />
<glyph unicode="&#xd6;" d="M66 0zM66 430v789q0 88 22.5 167.5t62 139t97 94.5t127.5 35h502q70 0 126 -35t97 -94.5t63.5 -139t22.5 -167.5v-789q0 -90 -22.5 -169t-64.5 -137t-98.5 -91t-123.5 -33h-502q-70 0 -126 33t-97 91t-63.5 137t-22.5 169zM211 1751v209h276v-209h-276zM322 430 q0 -61 15 -114.5t42 -93.5t64.5 -62.5t80.5 -22.5h205q43 0 80 22.5t62.5 62.5t40 93.5t14.5 114.5v789q0 61 -14.5 115.5t-40 95t-61.5 64.5t-81 24h-205q-45 0 -81.5 -24t-63.5 -64.5t-42 -95t-15 -115.5v-789zM764 1751v209h276v-209h-276z" />
<glyph unicode="&#xd7;" d="M250 1176l100 96l271 -271l272 271l108 -107l-268 -272l260 -264l-96 -101l-266 267l-260 -260l-111 108l260 260z" />
<glyph unicode="&#xd8;" d="M29 -135l133 252q-41 59 -63.5 138t-22.5 173v791q0 88 22.5 167.5t62.5 139t96 94.5t126 35h506q59 0 98 -21l64 115h174l-121 -217q43 -61 67.5 -140t24.5 -173v-791q0 -90 -22.5 -169t-63.5 -137.5t-97.5 -92t-123.5 -33.5h-506q-43 0 -94 18l-80 -149h-180zM332 428 l545 1004q-27 39 -62 62.5t-78 23.5h-202q-47 0 -84 -24t-64 -64.5t-41 -95t-14 -115.5v-791zM393 213q53 -78 142 -78h202q45 0 81 23.5t62.5 63.5t41 93.5t14.5 112.5v791z" />
<glyph unicode="&#xd9;" d="M72 0zM72 430v1225h256v-1225q0 -135 53 -214t145 -79h197q86 0 141.5 79t55.5 214v1225h262v-1225q0 -90 -22.5 -169t-64.5 -137t-99.5 -91t-125.5 -33h-491q-68 0 -124 33t-97 91t-63.5 137t-22.5 169zM301 1765v195l487 -107v-141z" />
<glyph unicode="&#xda;" d="M72 0zM72 430v1225h256v-1225q0 -135 53 -214t145 -79h197q86 0 141.5 79t55.5 214v1225h262v-1225q0 -90 -22.5 -169t-64.5 -137t-99.5 -91t-125.5 -33h-491q-68 0 -124 33t-97 91t-63.5 137t-22.5 169zM465 1712v141l487 107v-195z" />
<glyph unicode="&#xdb;" d="M72 0zM72 430v1225h256v-1225q0 -135 53 -214t145 -79h197q86 0 141.5 79t55.5 214v1225h262v-1225q0 -90 -22.5 -169t-64.5 -137t-99.5 -91t-125.5 -33h-491q-68 0 -124 33t-97 91t-63.5 137t-22.5 169zM221 1718l250 242h311l248 -242h-239l-168 160l-162 -160h-240z " />
<glyph unicode="&#xdc;" d="M72 0zM72 430v1225h256v-1225q0 -135 53 -214t145 -79h197q86 0 141.5 79t55.5 214v1225h262v-1225q0 -90 -22.5 -169t-64.5 -137t-99.5 -91t-125.5 -33h-491q-68 0 -124 33t-97 91t-63.5 137t-22.5 169zM211 1751v209h276v-209h-276zM764 1751v209h276v-209h-276z" />
<glyph unicode="&#xdd;" d="M53 0zM53 1655h293l283 -836l295 836h274l-444 -1061v-594h-277v598zM465 1712v141l487 107v-195z" />
<glyph unicode="&#xde;" d="M82 0v1655h274v-342h506q68 0 125 -39t99 -107.5t65 -161t23 -198.5q0 -104 -23 -193.5t-63.5 -156t-98 -103.5t-127.5 -37h-506v-317h-274zM356 459h359q45 0 82 26.5t62.5 74.5t38.5 112.5t13 140.5t-13 141.5t-38.5 114.5t-62.5 77t-82 28h-359v-715z" />
<glyph unicode="&#xdf;" d="M53 0v1270q0 141 18.5 230t64.5 140.5t124 71t199 19.5h379q82 0 145.5 -32t107.5 -87.5t67.5 -133t23.5 -169.5q0 -72 -12.5 -138.5t-36 -121t-59.5 -91t-81 -45.5q45 -10 82 -47t64.5 -93t43 -128t15.5 -149q0 -94 -23.5 -183.5t-68.5 -159t-108.5 -111.5t-143.5 -42 h-371v137h252q49 0 89 35t68 89t43 122t15 133q0 66 -15 125t-41 103t-61.5 70t-76.5 26h-197v137h197q33 0 58.5 22.5t41.5 62.5t24.5 95t8.5 119q0 172 -42 244.5t-134 72.5h-187q-94 0 -142 -65.5t-48 -181.5v-1346h-283z" />
<glyph unicode="&#xe0;" d="M61 0zM61 389q0 197 66 296t219 99h567v166q0 125 -38.5 175.5t-137.5 50.5h-495v137h610q94 0 159.5 -17.5t104.5 -61.5t56.5 -119t17.5 -189v-926h-844q-150 0 -217.5 102.5t-67.5 286.5zM322 397q0 -135 44 -197.5t154 -62.5h393v512h-364q-123 0 -175 -56t-52 -196z M342 1525v195l487 -107v-141z" />
<glyph unicode="&#xe1;" d="M61 0zM61 389q0 197 66 296t219 99h567v166q0 125 -38.5 175.5t-137.5 50.5h-495v137h610q94 0 159.5 -17.5t104.5 -61.5t56.5 -119t17.5 -189v-926h-844q-150 0 -217.5 102.5t-67.5 286.5zM322 397q0 -135 44 -197.5t154 -62.5h393v512h-364q-123 0 -175 -56t-52 -196z M506 1472v141l487 107v-195z" />
<glyph unicode="&#xe2;" d="M61 0zM61 389q0 197 66 296t219 99h567v166q0 125 -38.5 175.5t-137.5 50.5h-495v137h610q94 0 159.5 -17.5t104.5 -61.5t56.5 -119t17.5 -189v-926h-844q-150 0 -217.5 102.5t-67.5 286.5zM262 1478l250 242h311l248 -242h-239l-168 160l-162 -160h-240zM322 397 q0 -135 44 -197.5t154 -62.5h393v512h-364q-123 0 -175 -56t-52 -196z" />
<glyph unicode="&#xe3;" d="M61 0zM61 389q0 197 66 296t219 99h567v166q0 125 -38.5 175.5t-137.5 50.5h-495v137h610q94 0 159.5 -17.5t104.5 -61.5t56.5 -119t17.5 -189v-926h-844q-150 0 -217.5 102.5t-67.5 286.5zM219 1513q0 98 68.5 152.5t210.5 54.5q66 0 107.5 -14.5t76.5 -31t69.5 -30.5 t84.5 -14q47 0 74.5 14t27.5 76h174q0 -82 -64.5 -143.5t-207.5 -61.5q-74 0 -117 16.5t-77 35t-66.5 35t-81.5 16.5q-61 0 -83 -24t-22 -81h-174zM322 397q0 -135 44 -197.5t154 -62.5h393v512h-364q-123 0 -175 -56t-52 -196z" />
<glyph unicode="&#xe4;" d="M61 0zM61 389q0 197 66 296t219 99h567v166q0 125 -38.5 175.5t-137.5 50.5h-495v137h610q94 0 159.5 -17.5t104.5 -61.5t56.5 -119t17.5 -189v-926h-844q-150 0 -217.5 102.5t-67.5 286.5zM252 1511v209h276v-209h-276zM322 397q0 -135 44 -197.5t154 -62.5h393v512 h-364q-123 0 -175 -56t-52 -196zM805 1511v209h276v-209h-276z" />
<glyph unicode="&#xe5;" d="M61 0zM61 389q0 197 66 296t219 99h567v166q0 125 -38.5 175.5t-137.5 50.5h-495v137h610q94 0 159.5 -17.5t104.5 -61.5t56.5 -119t17.5 -189v-926h-844q-150 0 -217.5 102.5t-67.5 286.5zM322 397q0 -135 44 -197.5t154 -62.5h393v512h-364q-123 0 -175 -56t-52 -196z M422 1540v117q0 70 34 97.5t113 27.5h193q80 0 114.5 -27.5t34.5 -97.5v-117q0 -72 -34.5 -99.5t-114.5 -27.5h-193q-80 0 -113.5 28t-33.5 99zM559 1548q0 -33 21.5 -53t52.5 -20h63q43 0 59.5 20.5t16.5 52.5v109q0 33 -12 48t-45 15h-101q-31 0 -43 -15t-12 -48v-109z " />
<glyph unicode="&#xe6;" d="M33 389q0 197 49 296t164 99h286v166q0 125 -28.5 175.5t-102.5 50.5h-233v137h319q98 0 152 -35q29 18 64.5 26.5t78.5 8.5h236q207 0 207 -389q0 -375 -207 -375h-279v-141q0 -86 8.5 -138.5t28 -82t51 -40t78.5 -10.5h223v-137h-882q-113 0 -163 102.5t-50 286.5z M227 397q0 -135 34 -197.5t116 -62.5h155v512h-135q-92 0 -131 -56t-39 -196zM739 686h183q35 0 59.5 11.5t39.5 38t22.5 72.5t7.5 116q0 143 -29 197.5t-100 54.5h-50q-68 0 -98.5 -55.5t-34.5 -194.5v-240z" />
<glyph unicode="&#xe7;" d="M98 0zM98 412v489q0 117 18.5 196t58.5 127t103.5 68.5t155.5 20.5h715v-137h-594q-98 0 -137 -60.5t-39 -212.5v-514q0 -82 14.5 -132t52 -76.5t105 -35t174.5 -8.5h424v-137h-715q-90 0 -153.5 19.5t-104.5 67.5t-59.5 127t-18.5 198zM561 -102h252l-90 -396h-162v396z " />
<glyph unicode="&#xe8;" d="M74 0zM74 412v487q0 119 18.5 198t59.5 127t103 68.5t153 20.5h499q274 0 275 -389q0 -375 -275 -375h-557v-141q0 -86 11.5 -138.5t37 -82t67.5 -40t105 -10.5h484v-137h-647q-90 0 -152.5 19.5t-103.5 66.5t-59.5 126t-18.5 200zM301 1525v195l487 -107v-141zM350 686 h426q47 0 80 11.5t54.5 38t30.5 72.5t9 116q0 143 -39 197.5t-135 54.5h-250q-92 0 -134 -60.5t-42 -212.5v-217z" />
<glyph unicode="&#xe9;" d="M74 0zM74 412v487q0 119 18.5 198t59.5 127t103 68.5t153 20.5h499q274 0 275 -389q0 -375 -275 -375h-557v-141q0 -86 11.5 -138.5t37 -82t67.5 -40t105 -10.5h484v-137h-647q-90 0 -152.5 19.5t-103.5 66.5t-59.5 126t-18.5 200zM350 686h426q47 0 80 11.5t54.5 38 t30.5 72.5t9 116q0 143 -39 197.5t-135 54.5h-250q-92 0 -134 -60.5t-42 -212.5v-217zM465 1472v141l487 107v-195z" />
<glyph unicode="&#xea;" d="M74 0zM74 412v487q0 119 18.5 198t59.5 127t103 68.5t153 20.5h499q274 0 275 -389q0 -375 -275 -375h-557v-141q0 -86 11.5 -138.5t37 -82t67.5 -40t105 -10.5h484v-137h-647q-90 0 -152.5 19.5t-103.5 66.5t-59.5 126t-18.5 200zM221 1478l250 242h311l248 -242h-239 l-168 160l-162 -160h-240zM350 686h426q47 0 80 11.5t54.5 38t30.5 72.5t9 116q0 143 -39 197.5t-135 54.5h-250q-92 0 -134 -60.5t-42 -212.5v-217z" />
<glyph unicode="&#xeb;" d="M74 0zM74 412v487q0 119 18.5 198t59.5 127t103 68.5t153 20.5h499q274 0 275 -389q0 -375 -275 -375h-557v-141q0 -86 11.5 -138.5t37 -82t67.5 -40t105 -10.5h484v-137h-647q-90 0 -152.5 19.5t-103.5 66.5t-59.5 126t-18.5 200zM211 1511v209h276v-209h-276zM350 686 h426q47 0 80 11.5t54.5 38t30.5 72.5t9 116q0 143 -39 197.5t-135 54.5h-250q-92 0 -134 -60.5t-42 -212.5v-217zM764 1511v209h276v-209h-276z" />
<glyph unicode="&#xec;" d="M94 0v137h393v1037h-393v139h670v-1176h393v-137h-1063zM94 0zM293 1525v195l487 -107v-141z" />
<glyph unicode="&#xed;" d="M94 0v137h393v1037h-393v139h670v-1176h393v-137h-1063zM94 0zM445 1472v141l487 107v-195z" />
<glyph unicode="&#xee;" d="M94 0v137h393v1037h-393v139h670v-1176h393v-137h-1063zM94 0zM201 1478l250 242h311l248 -242h-239l-168 160l-162 -160h-240z" />
<glyph unicode="&#xef;" d="M94 0v137h393v1037h-393v139h670v-1176h393v-137h-1063zM94 0zM191 1511v209h276v-209h-276zM744 1511v209h276v-209h-276z" />
<glyph unicode="&#xf0;" d="M72 383v616q0 147 67.5 230.5t192.5 83.5h569v76q0 104 -40 154t-134 50h-444v138h557q94 0 159.5 -17.5t105.5 -61.5t58.5 -118t18.5 -186v-965q0 -113 -18.5 -186.5t-58.5 -117.5t-105.5 -61.5t-159.5 -17.5h-432q-96 0 -160 17.5t-104 61.5t-56 117.5t-16 186.5z M348 358q0 -221 172 -221h207q92 0 133 59.5t41 211.5v768h-438q-115 0 -115 -187v-631z" />
<glyph unicode="&#xf1;" d="M76 0v1313h766q94 0 158.5 -18.5t104.5 -62.5t56.5 -118t16.5 -184v-930h-271v901q0 156 -42 215.5t-132 59.5h-385v-1176h-272zM76 0zM178 1513q0 98 68.5 152.5t210.5 54.5q66 0 107.5 -14.5t76.5 -31t69.5 -30.5t84.5 -14q47 0 74.5 14t27.5 76h174 q0 -82 -64.5 -143.5t-207.5 -61.5q-74 0 -117 16.5t-77 35t-66.5 35t-81.5 16.5q-61 0 -83 -24t-22 -81h-174z" />
<glyph unicode="&#xf2;" d="M51 0zM51 412v489q0 119 18.5 199t58.5 127t103.5 66.5t155.5 19.5h479q90 0 153.5 -19.5t104.5 -66.5t59.5 -127t18.5 -199v-489q0 -121 -18.5 -200t-59.5 -126t-104.5 -66.5t-153.5 -19.5h-479q-92 0 -155.5 19.5t-103.5 66.5t-58.5 126t-18.5 200zM301 1525v195 l487 -107v-141zM326 434q0 -92 11 -150.5t36.5 -90t68.5 -44t107 -12.5h156q63 0 105 10.5t67.5 40t37 82t11.5 138.5v495q0 150 -40 211.5t-134 61.5h-250q-94 0 -135 -61.5t-41 -211.5v-469z" />
<glyph unicode="&#xf3;" d="M51 0zM51 412v489q0 119 18.5 199t58.5 127t103.5 66.5t155.5 19.5h479q90 0 153.5 -19.5t104.5 -66.5t59.5 -127t18.5 -199v-489q0 -121 -18.5 -200t-59.5 -126t-104.5 -66.5t-153.5 -19.5h-479q-92 0 -155.5 19.5t-103.5 66.5t-58.5 126t-18.5 200zM326 434 q0 -92 11 -150.5t36.5 -90t68.5 -44t107 -12.5h156q63 0 105 10.5t67.5 40t37 82t11.5 138.5v495q0 150 -40 211.5t-134 61.5h-250q-94 0 -135 -61.5t-41 -211.5v-469zM465 1472v141l487 107v-195z" />
<glyph unicode="&#xf4;" d="M51 0zM51 412v489q0 119 18.5 199t58.5 127t103.5 66.5t155.5 19.5h479q90 0 153.5 -19.5t104.5 -66.5t59.5 -127t18.5 -199v-489q0 -121 -18.5 -200t-59.5 -126t-104.5 -66.5t-153.5 -19.5h-479q-92 0 -155.5 19.5t-103.5 66.5t-58.5 126t-18.5 200zM221 1478l250 242 h311l248 -242h-239l-168 160l-162 -160h-240zM326 434q0 -92 11 -150.5t36.5 -90t68.5 -44t107 -12.5h156q63 0 105 10.5t67.5 40t37 82t11.5 138.5v495q0 150 -40 211.5t-134 61.5h-250q-94 0 -135 -61.5t-41 -211.5v-469z" />
<glyph unicode="&#xf5;" d="M51 0zM51 412v489q0 119 18.5 199t58.5 127t103.5 66.5t155.5 19.5h479q90 0 153.5 -19.5t104.5 -66.5t59.5 -127t18.5 -199v-489q0 -121 -18.5 -200t-59.5 -126t-104.5 -66.5t-153.5 -19.5h-479q-92 0 -155.5 19.5t-103.5 66.5t-58.5 126t-18.5 200zM178 1513 q0 98 68.5 152.5t210.5 54.5q66 0 107.5 -14.5t76.5 -31t69.5 -30.5t84.5 -14q47 0 74.5 14t27.5 76h174q0 -82 -64.5 -143.5t-207.5 -61.5q-74 0 -117 16.5t-77 35t-66.5 35t-81.5 16.5q-61 0 -83 -24t-22 -81h-174zM326 434q0 -92 11 -150.5t36.5 -90t68.5 -44t107 -12.5 h156q63 0 105 10.5t67.5 40t37 82t11.5 138.5v495q0 150 -40 211.5t-134 61.5h-250q-94 0 -135 -61.5t-41 -211.5v-469z" />
<glyph unicode="&#xf6;" d="M51 0zM51 412v489q0 119 18.5 199t58.5 127t103.5 66.5t155.5 19.5h479q90 0 153.5 -19.5t104.5 -66.5t59.5 -127t18.5 -199v-489q0 -121 -18.5 -200t-59.5 -126t-104.5 -66.5t-153.5 -19.5h-479q-92 0 -155.5 19.5t-103.5 66.5t-58.5 126t-18.5 200zM211 1511v209h276 v-209h-276zM326 434q0 -92 11 -150.5t36.5 -90t68.5 -44t107 -12.5h156q63 0 105 10.5t67.5 40t37 82t11.5 138.5v495q0 150 -40 211.5t-134 61.5h-250q-94 0 -135 -61.5t-41 -211.5v-469zM764 1511v209h276v-209h-276z" />
<glyph unicode="&#xf7;" d="M166 834v141h917v-141h-917zM487 428v182h277v-182h-277zM487 1182v180h277v-180h-277z" />
<glyph unicode="&#xf8;" d="M51 412v489q0 119 18.5 199t58.5 127t104.5 66.5t154.5 19.5h533l98 180h172l-121 -223q70 -37 101.5 -123t31.5 -246v-489q0 -121 -18.5 -200t-59.5 -126t-104.5 -66.5t-153.5 -19.5h-479l-90 -162h-180l102 185q-47 18 -78.5 47.5t-51 76t-29 111t-9.5 154.5zM326 434 q0 -96 32 -155l476 878q-35 18 -82 19h-250q-96 0 -136 -60.5t-40 -212.5v-469zM469 156q33 -18 80 -19h156q63 0 105 10.5t67.5 40t37 82t11.5 138.5v495q0 27 -1 48.5t-3 41.5z" />
<glyph unicode="&#xf9;" d="M74 0zM74 383v930h270v-905q0 -150 41 -210.5t135 -60.5h383v1176h279v-1313h-774q-96 0 -160 17.5t-103 61.5t-55 117.5t-16 186.5zM301 1525v195l487 -107v-141z" />
<glyph unicode="&#xfa;" d="M74 0zM74 383v930h270v-905q0 -150 41 -210.5t135 -60.5h383v1176h279v-1313h-774q-96 0 -160 17.5t-103 61.5t-55 117.5t-16 186.5zM465 1472v141l487 107v-195z" />
<glyph unicode="&#xfb;" d="M74 0zM74 383v930h270v-905q0 -150 41 -210.5t135 -60.5h383v1176h279v-1313h-774q-96 0 -160 17.5t-103 61.5t-55 117.5t-16 186.5zM221 1478l250 242h311l248 -242h-239l-168 160l-162 -160h-240z" />
<glyph unicode="&#xfc;" d="M74 0zM74 383v930h270v-905q0 -150 41 -210.5t135 -60.5h383v1176h279v-1313h-774q-96 0 -160 17.5t-103 61.5t-55 117.5t-16 186.5zM211 1511v209h276v-209h-276zM764 1511v209h276v-209h-276z" />
<glyph unicode="&#xfd;" d="M29 0zM29 1313h305l330 -996l344 996h217l-678 -1811h-225l206 498zM465 1472v141l487 107v-195z" />
<glyph unicode="&#xfe;" d="M61 -487v2218h275v-418h516q88 0 152.5 -20.5t106.5 -68.5t61.5 -127t19.5 -196v-489q0 -121 -18.5 -200t-59.5 -126t-105.5 -66.5t-156.5 -19.5h-516v-487h-275zM336 141h401q98 0 137 57.5t39 200.5v531q0 78 -12 126t-46 73.5t-91 35t-150 9.5h-278v-1033z" />
<glyph unicode="&#xff;" d="M29 0zM29 1313h305l330 -996l344 996h217l-678 -1811h-225l206 498zM211 1511v209h276v-209h-276zM764 1511v209h276v-209h-276z" />
<glyph unicode="&#x152;" d="M68 383v893q0 111 16 183.5t56 116.5t103.5 61.5t159.5 17.5h783v-137h-279v-619h232v-139h-232v-623h279v-137h-783q-96 0 -159.5 17.5t-103.5 61.5t-56 117.5t-16 186.5zM340 393q0 -256 176 -256h189v1381h-189q-176 0 -176 -252v-873z" />
<glyph unicode="&#x153;" d="M10 412v489q0 119 13.5 199t43 127t76.5 66.5t115 19.5h234q92 0 145 -39q53 39 145 39h248q203 0 203 -389q0 -375 -203 -375h-291v-141q0 -86 8.5 -138.5t28 -82t50 -40t77.5 -10.5h236v-137h-357q-45 0 -80.5 8t-64.5 31q-29 -23 -64.5 -31t-80.5 -8h-234 q-68 0 -115 19.5t-76.5 66.5t-43 126t-13.5 200zM213 381q0 -123 24.5 -183.5t98.5 -60.5h35q47 0 78.5 10.5t50 40t27 82t8.5 138.5v495q0 150 -30 211.5t-99 61.5h-64q-70 0 -99.5 -61.5t-29.5 -211.5v-522zM739 686h195q35 0 59.5 11.5t40 38t22.5 72.5t7 116 q0 143 -28.5 197.5t-100.5 54.5h-64q-68 0 -99.5 -60.5t-31.5 -212.5v-217z" />
<glyph unicode="&#x178;" d="M53 0zM53 1655h293l283 -836l295 836h274l-444 -1061v-594h-277v598zM211 1751v209h276v-209h-276zM764 1751v209h276v-209h-276z" />
<glyph unicode="&#x2c6;" d="M221 1376l250 242h311l248 -242h-239l-168 160l-162 -160h-240z" />
<glyph unicode="&#x2dc;" d="M178 1411q0 98 68.5 152.5t210.5 54.5q66 0 107.5 -14.5t76.5 -31t69.5 -30.5t84.5 -14q47 0 74.5 14t27.5 76h174q0 -82 -64.5 -143.5t-207.5 -61.5q-74 0 -117 16.5t-77 35t-66.5 35t-81.5 16.5q-61 0 -83 -24t-22 -81h-174z" />
<glyph unicode="&#x2000;" horiz-adv-x="980" />
<glyph unicode="&#x2001;" horiz-adv-x="1960" />
<glyph unicode="&#x2002;" horiz-adv-x="980" />
<glyph unicode="&#x2003;" horiz-adv-x="1960" />
<glyph unicode="&#x2004;" horiz-adv-x="653" />
<glyph unicode="&#x2005;" horiz-adv-x="490" />
<glyph unicode="&#x2006;" horiz-adv-x="326" />
<glyph unicode="&#x2007;" horiz-adv-x="326" />
<glyph unicode="&#x2008;" horiz-adv-x="245" />
<glyph unicode="&#x2009;" horiz-adv-x="392" />
<glyph unicode="&#x200a;" horiz-adv-x="108" />
<glyph unicode="&#x2010;" d="M98 694v144h1051v-144h-1051z" />
<glyph unicode="&#x2011;" d="M98 694v144h1051v-144h-1051z" />
<glyph unicode="&#x2012;" d="M98 694v144h1051v-144h-1051z" />
<glyph unicode="&#x2013;" d="M98 694v144h1051v-144h-1051zM98 694z" />
<glyph unicode="&#x2014;" d="M98 694v144h1051v-144h-1051zM98 694z" />
<glyph unicode="&#x2018;" d="M436 1110l156 621h223l-61 -621h-318z" />
<glyph unicode="&#x2019;" d="M436 1110l62 621h317l-156 -621h-223z" />
<glyph unicode="&#x201a;" d="M436 -381l62 621h317l-156 -621h-223z" />
<glyph unicode="&#x201c;" d="M190 1110l156 621h223l-61 -621h-318zM682 1110l156 621h223l-62 -621h-317z" />
<glyph unicode="&#x201d;" d="M190 1110l62 621h317l-155 -621h-224zM682 1110l61 621h318l-156 -621h-223z" />
<glyph unicode="&#x201e;" d="M190 -381l62 621h317l-155 -621h-224zM682 -381l61 621h318l-156 -621h-223z" />
<glyph unicode="&#x2022;" d="M291 512v684h667v-684h-667z" />
<glyph unicode="&#x2026;" d="M57 0v240h277v-240h-277zM487 0v240h277v-240h-277zM918 0v240h276v-240h-276z" />
<glyph unicode="&#x202f;" horiz-adv-x="392" />
<glyph unicode="&#x2039;" d="M420 690v123l411 346v-194l-292 -217l292 -218v-194z" />
<glyph unicode="&#x203a;" d="M420 336v194l295 218l-295 217v194l411 -346v-123z" />
<glyph unicode="&#x205f;" horiz-adv-x="490" />
<glyph unicode="&#x20ac;" d="M84 520v137h152v297h-152v142h152q0 559 311 559h620v-137h-473q-201 0 -200 -396v-26h344v-142h-344v-297h344v-137h-344v-92q0 -61 13 -115.5t39.5 -93.5t63.5 -61.5t84 -22.5h473v-139h-620q-311 0 -311 524h-152z" />
<glyph unicode="&#x2122;" d="M47 1550v111h424v-111h-106v-790h-199v790h-119zM588 760v899h188l121 -658l119 658h192v-899h-135v432l-110 -432h-136l-100 428v-428h-139z" />
<glyph unicode="&#x25fc;" horiz-adv-x="1310" d="M0 0v1311h1311v-1311h-1311z" />
</font>
</defs>
</svg>
