<?xml version="1.0" standalone="no"?>
<!DOCTYPE svg PUBLIC "-//W3C//DTD SVG 1.1//EN" "http://www.w3.org/Graphics/SVG/1.1/DTD/svg11.dtd" >
<svg xmlns="http://www.w3.org/2000/svg" xmlns:xlink="http://www.w3.org/1999/xlink" version="1.1">
<metadata></metadata>
<defs>
<font id="unispacebold" horiz-adv-x="1251" >
<font-face units-per-em="2048" ascent="1550" descent="-498" />
<missing-glyph horiz-adv-x="500" />
<glyph horiz-adv-x="0" />
<glyph unicode="&#xd;" />
<glyph />
<glyph unicode=" " />
<glyph unicode="!" d="M438 0v274h375v-274h-375zM438 442v1213h375v-1213h-375z" />
<glyph unicode="&#x22;" d="M264 1157v600h273v-600h-273zM715 1157v600h272v-600h-272z" />
<glyph unicode="#" d="M147 428v170h175v389h-175v172h175v496h184v-496h258v496h186v-496h152v-172h-152v-389h152v-170h-152v-428h-186v428h-258v-428h-184v428h-175zM506 598h258v389h-258v-389z" />
<glyph unicode="$" d="M55 1100q0 162 70 257t197 95h215v203h159v-203h404v-139h-404v-410h283q49 0 89 -32.5t69.5 -88t45 -127t15.5 -151.5q0 -78 -15.5 -144.5t-43 -114.5t-68.5 -76t-92 -28h-283v-141h-159v141h-435v138h435v428h-232q-55 0 -100 32.5t-79 87t-52.5 125t-18.5 148.5z M332 1106q0 -86 29.5 -144.5t78.5 -58.5h97v410h-97q-49 0 -78.5 -57.5t-29.5 -149.5zM696 279h113q59 0 93 63.5t34 149.5q0 41 -8 79.5t-24.5 68.5t-40 48.5t-54.5 18.5h-113v-428z" />
<glyph unicode="%" d="M55 1165v252q0 133 35 185.5t119 52.5h199q80 0 117.5 -52.5t37.5 -185.5v-252q0 -133 -37 -186t-118 -53h-199q-84 0 -119 53t-35 186zM227 1167q0 -70 12.5 -98.5t39.5 -28.5h57q29 0 42 30t13 95v252q0 125 -55 125h-57q-51 0 -52 -125v-250zM307 0l490 1655h159 l-485 -1655h-164zM690 238v254q0 133 35 185t117 52h200q80 0 117 -52t37 -185v-254q0 -131 -37 -184.5t-117 -53.5h-200q-82 0 -117 53t-35 185zM860 242q0 -70 12.5 -99.5t40.5 -29.5h56q33 0 45 30.5t12 94.5v254q0 61 -12.5 91.5t-44.5 30.5h-56q-53 0 -53 -122v-250z " />
<glyph unicode="&#x26;" d="M94 498q0 141 44 244.5t136 156.5q-96 57 -132 151.5t-36 209.5q0 82 22 154.5t61.5 125.5t95 84t125.5 31h464v-207h-327q-35 0 -61.5 -18.5t-45 -49t-29 -71.5t-10.5 -84q0 -98 38 -158.5t108 -60.5h608v-207h-205v-596h205v-203h-745q-70 0 -128.5 39t-99.5 106.5 t-64.5 158.5t-23.5 194zM401 504q0 -301 146 -301h170v596h-170q-145 0 -146 -295z" />
<glyph unicode="'" d="M492 1157v600h272v-600h-272z" />
<glyph unicode="(" d="M285 -82v1595q0 90 38.5 171t104.5 141.5t155 96.5t187 36h197v-205h-230q-35 0 -65.5 -22.5t-55 -56.5t-39 -76t-14.5 -80v-1584q0 -66 12.5 -109.5t46 -70t92 -37t150.5 -10.5h103v-205h-164q-115 0 -210 29t-164 82t-106.5 130t-37.5 175z" />
<glyph unicode=")" d="M285 -293h104q92 0 150.5 10.5t92.5 37t46 70.5t12 109v1584q0 39 -14 80.5t-39 75.5t-56.5 56.5t-66.5 22.5h-229v205h196q98 0 187.5 -36t155 -96.5t104.5 -141t39 -171.5v-1595q0 -98 -38 -175t-106.5 -130t-164 -82t-209.5 -29h-164v205z" />
<glyph unicode="*" d="M178 1210l256 50l-196 172l163 163l174 -200l50 260l225 -60l-90 -249l252 86l59 -222l-258 -51l199 -176l-162 -162l-174 199l-51 -260l-224 61l84 248l-247 -86z" />
<glyph unicode="+" d="M168 797v209h352v327h209v-327h352v-209h-352v-357h-209v357h-352z" />
<glyph unicode="," d="M438 246h375l-90 -621h-285v621z" />
<glyph unicode="-" d="M115 664v208h1020v-208h-1020z" />
<glyph unicode="." d="M438 0v274h375v-274h-375z" />
<glyph unicode="/" d="M82 0l874 1655h215l-874 -1655h-215z" />
<glyph unicode="0" d="M84 449v751q0 96 23.5 179t65.5 144.5t100.5 96.5t127.5 35h449q68 0 126 -35t100 -96.5t65.5 -144.5t23.5 -179v-751q0 -92 -22.5 -174t-64.5 -143.5t-100 -96.5t-128 -35h-449q-72 0 -130 35t-99 96.5t-64.5 143t-23.5 174.5zM365 399l378 1049h-231q-35 0 -61.5 -20.5 t-46 -54.5t-29.5 -79t-10 -94v-801zM516 203h221q33 0 61.5 20.5t48 54t31 77.5t11.5 94v792z" />
<glyph unicode="1" d="M102 0v203h379v1241h-243v211h559v-1452h350v-203h-1045z" />
<glyph unicode="2" d="M90 0v498q0 96 20.5 179t60.5 143.5t96.5 95t129.5 34.5h310q68 0 107.5 71t39.5 177t-40 178t-107 72h-463v207h598q70 0 128 -36t100 -99.5t64.5 -147.5t22.5 -180t-22.5 -178t-63.5 -142.5t-99.5 -94.5t-129.5 -34h-314q-127 0 -127 -245v-295h762v-203h-1073z" />
<glyph unicode="3" d="M90 0v203h619q66 0 105.5 74.5t39.5 195.5q0 55 -10 103.5t-29.5 84t-46.5 56t-59 20.5h-301v207h274q70 0 107.5 62.5t37.5 185.5t-37.5 189.5t-107.5 66.5h-592v207h723q72 0 131.5 -35t101 -96.5t64.5 -144.5t23 -179q0 -236 -140 -344q35 -23 66 -65.5t53.5 -97 t34.5 -114t12 -116.5q0 -98 -23.5 -182t-64.5 -146.5t-100.5 -98.5t-128.5 -36h-752z" />
<glyph unicode="4" d="M84 297v223l524 1135h389v-1159h170v-199h-170v-297h-292v297h-621zM311 496h394v850z" />
<glyph unicode="5" d="M84 0v203h621q37 0 65.5 29.5t48 77.5t30.5 109.5t11 125.5q0 129 -32.5 201.5t-102.5 72.5h-641v836h956v-207h-651v-422h467q72 0 129 -39t97 -104.5t61.5 -152.5t21.5 -181q0 -102 -24.5 -201.5t-67.5 -176.5t-103.5 -124t-129.5 -47h-756z" />
<glyph unicode="6" d="M90 403v850q0 117 18.5 194t58.5 123t104.5 65.5t156.5 19.5h541v-213h-445q-70 0 -96.5 -45t-26.5 -174v-205h492q131 0 200.5 -90t69.5 -246v-279q0 -117 -18.5 -194.5t-59.5 -123.5t-105.5 -65.5t-158.5 -19.5h-393q-92 0 -156.5 19.5t-104.5 65.5t-58.5 124 t-18.5 194zM401 424q0 -66 6.5 -109t20.5 -67.5t37.5 -34.5t58.5 -10h211q61 0 90 38t29 138v295q0 139 -68 139h-385v-389z" />
<glyph unicode="7" d="M66 1448v207h1120l-666 -1655h-311l600 1448h-743z" />
<glyph unicode="8" d="M82 483q0 166 38 259.5t113 142.5q-29 27 -51 55.5t-38.5 67.5t-25.5 92t-9 127q0 205 82.5 316.5t257.5 111.5h354q174 0 255 -106.5t81 -321.5q0 -74 -9.5 -127t-26 -92t-38 -68t-47.5 -55q74 -49 111.5 -142.5t37.5 -259.5q0 -483 -338 -483h-409q-166 0 -252 118 t-86 365zM383 494q0 -147 41 -219t106 -72h189q68 0 109.5 71.5t41.5 219.5q0 137 -42 195.5t-109 58.5h-189q-66 0 -106.5 -58.5t-40.5 -195.5zM387 1200q0 -119 39 -182.5t104 -63.5h189q68 0 106.5 63.5t38.5 182.5t-39 183.5t-106 64.5h-189q-66 0 -104.5 -64.5 t-38.5 -183.5z" />
<glyph unicode="9" d="M88 993v267q0 113 17.5 190.5t57.5 123.5t104.5 66.5t158.5 20.5h393q94 0 159.5 -20.5t106.5 -66.5t59.5 -124t18.5 -190v-857q0 -117 -18.5 -193.5t-59.5 -123.5t-106.5 -66.5t-159.5 -19.5h-635v203h533q35 0 58.5 9t38.5 33.5t21.5 66.5t6.5 108v237h-484 q-135 0 -202.5 93.5t-67.5 242.5zM399 1126q0 -135 13.5 -199.5t58.5 -64.5h371v365q0 129 -28 175t-97 46h-193q-39 0 -63.5 -16.5t-37.5 -54.5t-18.5 -99t-5.5 -152z" />
<glyph unicode=":" d="M438 0v274h375v-274h-375zM438 723v274h375v-274h-375z" />
<glyph unicode=";" d="M438 246h375l-90 -621h-285v621zM438 723v274h375v-274h-375z" />
<glyph unicode="&#x3c;" d="M250 856l751 680v-270l-442 -396l442 -397v-270z" />
<glyph unicode="=" d="M205 563v207h844v-207h-844zM205 979v209h844v-209h-844z" />
<glyph unicode="&#x3e;" d="M250 203v270l442 397l-442 396v270l751 -680z" />
<glyph unicode="?" d="M113 1448v207h714q68 0 125.5 -36t99.5 -99.5t64.5 -147.5t22.5 -180q0 -94 -21.5 -176t-62.5 -142.5t-98.5 -95.5t-129.5 -35h-120q-180 0 -181 -346h-129q-35 49 -50 100.5t-15 120.5q0 70 21.5 131.5t61.5 105.5t94 69.5t120 25.5h63q66 0 107 71t41 177t-41 178 t-107 72h-579zM297 0v274h375v-274h-375z" />
<glyph unicode="@" d="M84 -96v1112q0 297 233 297h639q209 0 209 -297v-881h-555q-203 0 -202 383q0 332 223 332h207v-545h135v635q0 166 -78 166h-539q-39 0 -53 -40t-14 -126v-967q0 -113 67 -112h809v-203h-848q-233 0 -233 246zM563 520q0 -215 66 -215h71v395h-71q-66 0 -66 -180z" />
<glyph unicode="A" d="M74 0l342 1655h418l344 -1655h-318l-53 346h-365l-49 -346h-319zM473 553h303l-135 895h-33z" />
<glyph unicode="B" d="M84 0v1655h737q72 0 130.5 -35t100.5 -96.5t64.5 -144.5t22.5 -179q0 -119 -33 -205t-107 -139q37 -23 68 -67t53.5 -97t34.5 -113.5t12 -115.5q0 -98 -22.5 -182t-64.5 -146.5t-100 -98.5t-130 -36h-766zM401 203h316q66 0 105.5 74.5t39.5 195.5q0 55 -10 103.5 t-29.5 84t-46 56t-59.5 20.5h-316v-534zM401 944h289q143 0 144 248q0 123 -37 189.5t-107 66.5h-289v-504z" />
<glyph unicode="C" d="M135 449v751q0 96 22.5 179t64.5 144.5t99.5 96.5t127.5 35h667v-207h-530q-35 0 -61.5 -20.5t-46 -54.5t-30 -79t-10.5 -94v-751q0 -47 10.5 -91.5t29 -79t46 -55t62.5 -20.5h530v-203h-667q-72 0 -129.5 35t-98.5 95t-63.5 142t-22.5 177z" />
<glyph unicode="D" d="M98 0v1655h744q70 0 127 -35t98 -96.5t64.5 -144.5t23.5 -179v-751q0 -94 -22.5 -176.5t-63.5 -142.5t-99.5 -95t-127.5 -35h-744zM416 203h291q33 0 60.5 20.5t47 55t29.5 78.5t10 92v751q0 49 -10 94t-29.5 79t-47.5 54.5t-60 20.5h-291v-1245z" />
<glyph unicode="E" d="M119 0v1655h1014v-207h-693v-516h504v-203h-504v-526h693v-203h-1014z" />
<glyph unicode="F" d="M106 0v1655h1037v-207h-713v-541h524v-202h-524v-705h-324z" />
<glyph unicode="G" d="M109 449v751q0 96 23.5 179t64.5 144.5t99 96.5t128 35h690v-207h-557q-33 0 -59.5 -20.5t-46 -54.5t-30.5 -79t-11 -94v-751q0 -47 10 -91.5t29.5 -79t47 -55t60.5 -20.5h289v526h-275v205h568v-934h-715q-72 0 -130 35t-99 95t-63.5 142t-22.5 177z" />
<glyph unicode="H" d="M84 0v1655h324v-723h444v723h315v-1655h-315v729h-444v-729h-324z" />
<glyph unicode="I" d="M117 0v203h350v1245h-350v207h1016v-207h-347v-1245h347v-203h-1016z" />
<glyph unicode="J" d="M123 0v203h557q33 0 59.5 20.5t45 55t28.5 78.5t10 92v999h-405v207h712v-1206q0 -92 -22.5 -174t-64.5 -143.5t-100 -96.5t-130 -35h-690z" />
<glyph unicode="K" d="M78 0v1655h321v-631h23l424 631h330l-492 -725l487 -930h-352l-395 772l-25 -2v-770h-321z" />
<glyph unicode="L" d="M98 0v1655h318v-1452h733v-203h-1051z" />
<glyph unicode="M" d="M92 0v1655h318l215 -1262l213 1262h319v-1655h-233v1049l-176 -1049h-250l-166 1040v-1040h-240z" />
<glyph unicode="N" d="M92 0v1655h316l499 -1245v1245h250v-1655h-358l-459 1110v-1110h-248z" />
<glyph unicode="O" d="M82 449v751q0 96 22.5 179t64.5 144.5t100.5 96.5t129.5 35h455q70 0 129 -35t100 -96.5t64.5 -144.5t23.5 -179v-751q0 -92 -22.5 -174t-63.5 -142.5t-99 -96.5t-132 -36h-455q-72 0 -130 35t-100 96.5t-64.5 143t-22.5 174.5zM387 449q0 -47 10.5 -91.5t28.5 -79 t46 -55t63 -20.5h184q35 0 62.5 20.5t46 54t28.5 77.5t10 94v751q0 51 -10 96t-29.5 79t-47 53.5t-60.5 19.5h-184q-35 0 -62 -20.5t-46 -54.5t-29.5 -79t-10.5 -94v-751z" />
<glyph unicode="P" d="M94 0v1655h746q70 0 128 -42t99 -112.5t64.5 -166t23.5 -199.5q0 -109 -22.5 -201t-63.5 -159.5t-99.5 -105.5t-129.5 -38h-428v-631h-318zM412 840h293q147 0 147 299q0 309 -147 309h-293v-608z" />
<glyph unicode="Q" d="M84 444v756q0 96 23.5 179t65.5 144.5t100.5 96.5t127.5 35h453q70 0 127 -35t99 -96.5t64.5 -144.5t22.5 -179v-756q0 -94 -21.5 -175t-62.5 -141t-99 -94t-130 -34h-41l98 -217h-264l-98 217h-148q-72 0 -130 35t-99 95t-64.5 141t-23.5 173zM389 444q0 -47 10.5 -90 t28.5 -76.5t46 -54t63 -20.5h180q35 0 62.5 20.5t47 54t29.5 76.5t10 90v756q0 49 -10 94t-29.5 79t-47 54.5t-62.5 20.5h-180q-35 0 -61.5 -20.5t-46 -54.5t-30 -79t-10.5 -94v-756z" />
<glyph unicode="R" d="M98 0v1655h676q193 0 282 -107.5t89 -351.5q0 -125 -46 -220t-163 -142q51 -18 91 -43t67.5 -62t43 -88t15.5 -121v-520h-303v401q0 315 -150 316h-284v-717h-318zM416 922h291q70 0 109.5 70.5t39.5 189.5q0 123 -40 194.5t-109 71.5h-291v-526z" />
<glyph unicode="S" d="M92 1178q0 98 22.5 185t63.5 151.5t99.5 102.5t130.5 38h671v-207h-538q-35 0 -61.5 -18.5t-45 -51t-28 -74.5t-9.5 -90q0 -106 39 -171.5t105 -65.5h276q84 0 147.5 -35t106.5 -96.5t64.5 -146.5t21.5 -185q0 -109 -23.5 -202t-66.5 -162.5t-102.5 -109.5t-130.5 -40 h-684v203h550q37 0 66 21.5t49.5 58t30.5 87t10 107.5q0 68 -11 115t-39 74.5t-73 40t-115 12.5h-178q-84 0 -149.5 33.5t-109.5 94t-66.5 144.5t-22.5 187z" />
<glyph unicode="T" d="M117 1448v207h1018v-207h-344v-1448h-314v1448h-360z" />
<glyph unicode="U" d="M88 449v1206h303v-1206q0 -49 10.5 -93.5t29 -78t45 -54t61.5 -20.5h176q33 0 59.5 20.5t45 54t28.5 77.5t10 94v1206h307v-1206q0 -94 -22.5 -176.5t-63.5 -142.5t-99 -95t-132 -35h-443q-74 0 -132 35t-99 95t-62.5 142t-21.5 177z" />
<glyph unicode="V" d="M66 1655h315l225 -1323h33l256 1323h291l-381 -1655h-389z" />
<glyph unicode="W" d="M16 1655h293l99 -1307h10l112 877h193l111 -881h12l96 1311h293l-166 -1655h-334l-104 682h-10l-101 -682h-336z" />
<glyph unicode="X" d="M57 0l402 846l-379 809h330l233 -590h10l244 590h301l-381 -805l379 -850h-332l-231 621h-10l-242 -621h-324z" />
<glyph unicode="Y" d="M47 1655h342l236 -789h8l235 789h338l-428 -1059v-596h-317v600z" />
<glyph unicode="Z" d="M98 0v133l715 1315h-715v207h1055v-170l-680 -1282h680v-203h-1055z" />
<glyph unicode="[" d="M289 -498v2456h674v-166h-422v-2124h422v-166h-674z" />
<glyph unicode="\" d="M82 1655h211l878 -1655h-221z" />
<glyph unicode="]" d="M289 -332h420v2124h-420v166h674v-2456h-674v166z" />
<glyph unicode="^" d="M10 924l613 731l618 -731h-182l-416 485h-35l-413 -485h-185z" />
<glyph unicode="_" d="M-4 -188h1264v-271h-1264v271z" />
<glyph unicode="`" d="M238 1417v201l610 -107v-161z" />
<glyph unicode="a" d="M78 408q0 86 21.5 161.5t61.5 132t94 88t120 31.5h481v113q0 102 -27.5 137t-95.5 35h-489v207h587q94 0 159 -18.5t106 -64.5t59.5 -125t18.5 -198v-907h-799q-66 0 -120 30.5t-94 85t-61.5 129t-21.5 163.5zM387 426q0 -223 82 -223h385v418h-256q-63 0 -104 -10.5 t-64.5 -34t-33 -60.5t-9.5 -90z" />
<glyph unicode="b" d="M92 0v1731h320v-418h407q182 0 261 -108.5t79 -350.5v-395q0 -242 -79 -350.5t-261 -108.5h-727zM412 203h225q63 0 103 6t62.5 28.5t31 67.5t8.5 125v453q0 68 -6.5 110.5t-20.5 68t-38.5 35t-59.5 9.5h-305v-903z" />
<glyph unicode="c" d="M109 430v455q0 119 19 200.5t60 132t105.5 73t155.5 22.5h694v-207h-588q-37 0 -61.5 -10.5t-38 -35t-19.5 -67.5t-6 -108v-477q0 -158 68 -191q33 -16 215 -16q33 0 85 1t132 1h213v-203h-694q-90 0 -155 22.5t-106 72.5t-60 132t-19 203z" />
<glyph unicode="d" d="M98 459v395q0 123 19.5 210t60.5 142.5t105.5 81t154.5 25.5h400v418h317v-1731h-717q-90 0 -154.5 25.5t-105.5 81t-60.5 142.5t-19.5 210zM410 571q0 -123 10 -195.5t35.5 -111.5t70.5 -50t115 -11h197v903h-299q-35 0 -59.5 -9.5t-40 -35t-22.5 -68.5t-7 -110v-312z " />
<glyph unicode="e" d="M90 430v455q0 119 19.5 200.5t60.5 132t104.5 73t153.5 22.5h455q129 0 204.5 -93.5t75.5 -295.5q0 -203 -70.5 -291t-209.5 -88h-473v-117q0 -74 7 -119t25.5 -68.5t50 -30.5t78.5 -7h480v-203h-623q-90 0 -153.5 22.5t-104.5 72.5t-60.5 132t-19.5 203zM410 733h344 q33 0 56.5 6t37.5 26.5t20 58.5t6 102q0 61 -5 97t-18 54.5t-36.5 23.5t-60.5 5h-219q-37 0 -61.5 -10.5t-39 -35t-19.5 -66.5t-5 -105v-156z" />
<glyph unicode="f" d="M106 1106v207h302q0 129 18 210t59 127t104.5 63.5t153.5 17.5h402v-207h-289q-35 0 -60.5 -8.5t-42 -32t-23.5 -64.5t-7 -106h287v-207h-287v-1106h-315v1106h-302z" />
<glyph unicode="g" d="M92 430v453q0 121 20.5 203.5t61.5 133t105.5 72t154.5 21.5h723v-1381q0 -123 -18.5 -204.5t-59.5 -132t-104.5 -72t-155.5 -21.5h-514v205h281q80 0 130 6t77.5 27.5t38 61.5t10.5 110v88h-408q-92 0 -157.5 22.5t-106.5 72.5t-59.5 132t-18.5 203zM408 412 q0 -119 25.5 -164t101.5 -45h307v903h-219q-66 0 -107 -7t-65.5 -28.5t-33.5 -60.5t-9 -103v-495z" />
<glyph unicode="h" d="M88 0v1731h320v-418h413q94 0 158.5 -19.5t105.5 -66.5t59.5 -125t18.5 -195v-907h-317v885q0 66 -6 108.5t-20.5 67t-38 35t-58.5 10.5h-315v-1106h-320z" />
<glyph unicode="i" d="M106 0v203h363v903h-363v207h680v-1110h357v-203h-1037zM440 1477v254h375v-254h-375z" />
<glyph unicode="j" d="M236 -293h258q68 0 108.5 11.5t61 38t26.5 72.5t6 118v1159h-460v207h780v-1407q0 -115 -18.5 -193t-59.5 -125t-105.5 -66.5t-156.5 -19.5h-440v205zM676 1477v254h375v-254h-375z" />
<glyph unicode="k" d="M66 0v1731h321v-873h21l399 455h332l-516 -602l565 -711h-369l-416 551h-16v-551h-321z" />
<glyph unicode="l" d="M106 0v203h357v1321h-357v207h674v-1528h365v-203h-1039z" />
<glyph unicode="m" d="M78 0v1313h756q92 0 157.5 -19.5t106.5 -66.5t59.5 -125t18.5 -195v-907h-277v885q0 66 -6 108.5t-21.5 67t-39 35t-58.5 10.5h-49v-1106h-215v1106h-145v-1106h-287z" />
<glyph unicode="n" d="M90 0v1313h731q92 0 156.5 -18.5t104.5 -64.5t58.5 -125t18.5 -198v-907h-313v885q0 66 -6 108.5t-21.5 67t-39 35t-56.5 10.5h-315v-1106h-318z" />
<glyph unicode="o" d="M66 430v455q0 119 18 200.5t59 132t106.5 73t158.5 22.5h438q88 0 151.5 -22.5t105.5 -73t62.5 -132t20.5 -200.5v-455q0 -121 -19.5 -203t-61.5 -132t-106.5 -72.5t-152.5 -22.5h-438q-92 0 -158 22.5t-107 72.5t-59 132t-18 203zM387 434q0 -123 27.5 -177t97.5 -54 h225q72 0 98.5 54t26.5 173v455q0 117 -26.5 169t-98.5 52h-225q-70 0 -97.5 -52.5t-27.5 -168.5v-451z" />
<glyph unicode="p" d="M78 -498v1811h751q88 0 154 -21.5t108 -72t62.5 -133t20.5 -203.5v-453q0 -121 -19.5 -203t-60.5 -132t-106.5 -72.5t-158.5 -22.5h-436v-498h-315zM393 203h336q35 0 59.5 9t39 32.5t20.5 63.5t6 104v501q0 70 -10 109t-37 57.5t-74 22.5t-119 4h-221v-903z" />
<glyph unicode="q" d="M98 430v453q0 121 19.5 203.5t60.5 133t105.5 72t154.5 21.5h717v-1811h-315v498h-402q-92 0 -156.5 22.5t-105.5 72.5t-59.5 132t-18.5 203zM412 412q0 -119 27.5 -164t99.5 -45h301v903h-234q-57 0 -94 -8t-59.5 -29.5t-31.5 -60.5t-9 -101v-495z" />
<glyph unicode="r" d="M131 0v913q0 211 111.5 305.5t332.5 94.5h545v-207h-479q-59 0 -97 -7t-59.5 -32t-28.5 -73t-7 -130v-864h-318z" />
<glyph unicode="s" d="M72 930q0 180 77.5 281.5t239.5 101.5h701v-207h-629q-53 0 -83 -35t-30 -121q0 -155 112 -155h1h432q70 0 123 -30t90 -80t56.5 -118.5t19.5 -148.5q0 -199 -76 -308.5t-225 -109.5h-766v203h698q41 0 65.5 41t24.5 127t-24.5 125t-65.5 39h-448q-74 0 -129.5 29.5 t-91 82.5t-54 126t-18.5 157z" />
<glyph unicode="t" d="M106 1106v207h306v342h321v-342h412v-207h-412v-715q0 -68 5 -105.5t29 -56t70 -22.5t130 -4v-203h-213q-102 0 -168 15.5t-105 54.5t-54 106.5t-15 171.5v758h-306z" />
<glyph unicode="u" d="M88 403v910h315v-887q0 -70 6.5 -113t19.5 -67.5t38 -33.5t61 -9h318v1110h317v-1313h-737q-92 0 -155.5 19.5t-104.5 65.5t-59.5 124t-18.5 194z" />
<glyph unicode="v" d="M43 1313h324l254 -996h10l254 996h325l-381 -1313h-403z" />
<glyph unicode="w" d="M20 1313h299l64 -938h10l133 608h199l129 -604h12l62 934h303l-164 -1313h-342l-96 492h-11l-92 -492h-342z" />
<glyph unicode="x" d="M45 1313h320l264 -449l278 449h301l-426 -639l424 -674h-334l-251 455l-250 -455h-324l414 666z" />
<glyph unicode="y" d="M33 1313h344l282 -854h11l284 854h271l-658 -1811h-282l213 533z" />
<glyph unicode="z" d="M123 0v125l633 981h-633v207h1003v-164l-600 -946h600v-203h-1003z" />
<glyph unicode="{" d="M213 729q111 59 168 135t57 176v492q0 90 41 168t108.5 135t158 90t188.5 33h102v-139h-86q-45 0 -87 -27t-74.5 -68t-52 -91t-19.5 -99v-494q0 -47 -18.5 -91t-49.5 -84t-71.5 -74.5t-85.5 -61.5q45 -29 85.5 -61.5t71.5 -69.5t49.5 -78t18.5 -86v-516q0 -78 11 -131 t41 -85t83 -46t137 -14h47v-140h-63q-119 0 -217.5 28t-169 79t-109.5 124.5t-39 168.5v532q0 193 -225 295z" />
<glyph unicode="|" d="M514 -498v2456h221v-2456h-221z" />
<glyph unicode="}" d="M213 -358h47q84 0 137.5 14t84 46t42 85t11.5 131v516q0 90 66.5 163t158.5 132q-47 27 -88 61.5t-72 74.5t-48 84t-17 91v494q0 49 -19.5 99t-52.5 91t-76 68t-90 27h-84v139h102q100 0 190.5 -33t159 -90t108.5 -135t40 -168v-492q0 -100 56.5 -176t166.5 -135 q-223 -102 -223 -295v-532q0 -94 -40 -168t-110.5 -125t-169 -79t-214.5 -28h-66v140z" />
<glyph unicode="~" d="M176 682q0 63 11.5 122.5t35 104.5t57 72t80.5 27h154q51 0 86 -28t65.5 -61.5t62.5 -61.5t75 -28q51 0 80.5 49.5t29.5 129.5h160q0 -59 -15.5 -116.5t-43 -104t-65.5 -75t-83 -28.5h-112q-66 0 -101 30.5t-61.5 67.5t-57 68t-85.5 31q-31 0 -52.5 -18.5t-35 -47.5 t-19.5 -63.5t-6 -69.5h-160z" />
<glyph unicode="&#xa0;" />
<glyph unicode="&#xa1;" d="M438 -498v1213h375v-1213h-375zM438 883v274h375v-274h-375z" />
<glyph unicode="&#xa2;" d="M250 518v598q0 176 56 246t192 70h106v223h152v-223h245v-168h-245v-895h245v-166h-245v-203h-152v203h-106q-131 0 -189.5 69.5t-58.5 245.5zM496 502q0 -45 4 -70.5t15 -39t32.5 -17.5t56.5 -6v895h-29q-47 0 -63 -29t-16 -117v-616z" />
<glyph unicode="&#xa3;" d="M82 786v207h86v215q0 92 22.5 174t64.5 142.5t100.5 95.5t129.5 35h570v-203h-437q-33 0 -59.5 -20.5t-45.5 -54.5t-29.5 -78t-10.5 -91v-215h485v-207h-485v-577h694v-209h-999v786h-86z" />
<glyph unicode="&#xa5;" d="M55 1655h342l232 -744l227 744h340l-418 -1065h230v-137h-230v-146h230v-137h-230v-170h-319v170h-205v137h205v146h-205v137h205z" />
<glyph unicode="&#xa6;" d="M496 428h260v-858h-260v858zM496 1083v875h260v-875h-260z" />
<glyph unicode="&#xa7;" d="M133 717q0 86 30 157.5t105 118.5q-37 20 -62.5 53t-42 73t-23.5 83t-7 84q0 168 79 268.5t239 100.5h575v-207h-530q-33 0 -59.5 -36t-26.5 -118q0 -78 26.5 -116.5t59.5 -38.5h358q61 0 109.5 -35t82 -92.5t52 -131t18.5 -153.5q0 -45 -7 -90t-22.5 -84t-39 -68.5 t-58.5 -44.5q72 -47 99.5 -122.5t27.5 -161.5q0 -84 -18.5 -154t-52 -121t-82 -79.5t-109.5 -28.5h-676v202h574q39 0 64.5 40t25.5 126t-25.5 125t-64.5 39h-332q-66 0 -119 35t-90 92t-57.5 132t-20.5 153zM410 725q0 -76 24.5 -125t52.5 -53h265q39 0 64.5 41t25.5 127 t-25.5 124t-64.5 38h-265q-29 -4 -53 -39t-24 -113z" />
<glyph unicode="&#xa8;" d="M211 1409v209h276v-209h-276zM764 1409v209h276v-209h-276z" />
<glyph unicode="&#xa9;" d="M68 827q0 264 14 434.5t70.5 267.5t168 135t304.5 38q195 0 306 -38t166.5 -135t70 -267t14.5 -435q0 -264 -14.5 -434t-70 -268t-167 -135t-305.5 -37q-129 0 -220.5 15.5t-153 54t-98 103t-56 161t-24.5 230.5t-5 310zM178 827q0 -240 21.5 -386t73 -226t137.5 -106.5 t215 -26.5q131 0 217 26.5t137 106.5t72.5 226.5t21.5 385.5q0 238 -20.5 384.5t-71.5 227.5t-138 108.5t-218 27.5t-217 -27.5t-137.5 -108.5t-72 -227.5t-20.5 -384.5zM356 596v446q0 109 56.5 178.5t142.5 69.5h274v-76h-180q-59 0 -94 -51t-35 -121v-446q0 -70 35 -119 t94 -49h180v-78h-274q-86 0 -142.5 67.5t-56.5 178.5z" />
<glyph unicode="&#xaa;" d="M246 1044q0 59 15 113.5t43 95.5t66 64.5t83 23.5h307v27q0 74 -18.5 97.5t-67.5 23.5h-314v168h410q63 0 108.5 -13.5t74 -46t41 -86t12.5 -135.5v-628h-553q-45 0 -83 23.5t-66 63t-43 94t-15 115.5zM485 1044q0 -78 14.5 -105.5t45.5 -27.5h215v267h-127 q-88 0 -118 -31t-30 -103z" />
<glyph unicode="&#xab;" d="M184 690v123l412 346v-194l-293 -217l293 -218v-194zM657 690v123l410 346v-194l-293 -217l293 -218v-194z" />
<glyph unicode="&#xac;" d="M168 797v209h913v-551h-207v342h-706z" />
<glyph unicode="&#xad;" d="M115 664v208h1020v-208h-1020zM115 664z" />
<glyph unicode="&#xae;" d="M94 1135q0 119 43 222t116 180t169.5 121t202.5 44q111 0 207 -44t168.5 -121t114.5 -180.5t42 -221.5q0 -119 -42 -222.5t-113.5 -179.5t-169 -120t-207.5 -44q-109 0 -206 44t-169 120t-114 179.5t-42 222.5zM190 1130q0 -94 35 -180t93.5 -152.5t137.5 -106.5t169 -40 q88 0 167.5 38t140 103.5t95.5 152.5t35 185q0 96 -35 183.5t-95.5 153t-140 103.5t-167.5 38q-90 0 -169 -40t-137.5 -105.5t-93.5 -151.5t-35 -181zM371 813v637h364q66 0 108 -48t42 -122q0 -104 -86 -154q82 -31 82 -168v-145h-125v145q0 143 -92 144h-166v-289h-127z M498 1155h168q94 0 94 121t-94 121h-168v-242z" />
<glyph unicode="&#xaf;" d="M170 1417v201h911v-201h-911z" />
<glyph unicode="&#xb0;" d="M238 1120v316q0 164 54 229.5t181 65.5h305q125 0 181.5 -66t56.5 -229v-316q0 -164 -56.5 -231.5t-181.5 -67.5h-305q-127 0 -181 67.5t-54 231.5zM461 1124q0 -86 19.5 -123.5t66.5 -37.5h160q47 0 65.5 37.5t18.5 119.5v316q0 80 -18.5 115.5t-65.5 35.5h-160 q-47 0 -66.5 -35.5t-19.5 -115.5v-312z" />
<glyph unicode="&#xb1;" d="M168 0v209h913v-209h-913zM168 0zM168 797v209h352v327h209v-327h352v-209h-352v-357h-209v357h-352z" />
<glyph unicode="&#xb2;" d="M371 852v98h291q37 0 52 34t15 93q0 53 -15.5 89t-51.5 36h-142v101h142q37 0 52 33.5t15 90.5q0 59 -15.5 93t-51.5 34h-291v105h356q74 0 114 -67.5t40 -159.5q0 -109 -86 -183q86 -72 86 -176q0 -98 -42 -159.5t-112 -61.5h-356z" />
<glyph unicode="&#xb3;" d="M365 852v244q0 98 38.5 156.5t110.5 58.5h150q33 0 52 35.5t19 85.5q0 51 -19.5 86.5t-51.5 35.5h-224v101h293q68 0 109 -65.5t41 -162.5q0 -94 -40 -153.5t-110 -59.5h-158q-59 0 -59 -118v-146h373v-98h-524z" />
<glyph unicode="&#xb4;" d="M401 1350v161l611 107v-201z" />
<glyph unicode="&#xb6;" d="M82 1149q0 106 22.5 198.5t63.5 161t97.5 107.5t125.5 39h783v-2153h-252v1876h-222v-1876h-223v1160h-86q-72 0 -128 36.5t-97 102t-62.5 154.5t-21.5 194z" />
<glyph unicode="&#xb7;" d="M438 694v274h375v-274h-375zM438 694z" />
<glyph unicode="&#xb8;" d="M471 -72h309l-90 -426h-219v426z" />
<glyph unicode="&#xb9;" d="M420 854v96h135v609h-119v100h269v-709h118v-96h-403z" />
<glyph unicode="&#xba;" d="M238 1047v313q0 166 54 231.5t181 65.5h305q125 0 181.5 -66.5t56.5 -230.5v-313q0 -84 -13.5 -142.5t-43 -93.5t-74.5 -50.5t-107 -15.5h-305q-63 0 -107 15.5t-73 50.5t-42 93.5t-13 142.5zM485 1075q0 -86 19.5 -125t66.5 -39h111q84 0 84 158v266q0 80 -19.5 117 t-64.5 37h-111q-47 0 -66.5 -37t-19.5 -117v-260z" />
<glyph unicode="&#xbb;" d="M184 336v194l293 215l-293 220v194l412 -352v-123zM657 336v194l293 215l-293 220v194l410 -352v-123z" />
<glyph unicode="&#xbc;" d="M47 854v96h133v609h-117v100h269v-709h119v-96h-404zM76 0l964 1655h150l-959 -1655h-155zM684 141v109l256 553h184v-565h84v-93h-84v-145h-141v141h-299zM795 238h202v415z" />
<glyph unicode="&#xbd;" d="M43 854v96h135v609h-117v100h267v-709h121v-96h-406zM74 0l962 1655h152l-961 -1655h-153zM690 0v244q0 98 38 156.5t110 58.5h149q33 0 53.5 35.5t20.5 85.5q0 51 -20.5 85.5t-53.5 34.5h-223v103h291q68 0 109.5 -64.5t41.5 -163.5q0 -94 -41 -154.5t-110 -60.5h-156 q-59 0 -59 -116v-146h370v-98h-520z" />
<glyph unicode="&#xbe;" d="M61 0l965 1655h150l-959 -1655h-156zM66 852v98h266q35 0 51 34t16 93q0 53 -16 89t-51 36h-142v101h142q35 0 51 33.5t16 90.5q0 59 -16 93t-51 34h-266v105h331q72 0 112 -67.5t40 -159.5q0 -109 -86 -183q86 -72 86 -176q0 -98 -41 -159.5t-111 -61.5h-331zM670 141 v109l254 553h186v-565h82v-93h-82v-145h-141v141h-299zM778 238h205v415z" />
<glyph unicode="&#xbf;" d="M113 -33q0 94 21.5 176t62.5 142.5t98 95.5t129 35h121q180 0 180 346h129q35 -49 50.5 -100.5t15.5 -120.5q0 -72 -21.5 -132.5t-61.5 -104.5t-94.5 -69.5t-119.5 -25.5h-64q-66 0 -106.5 -70.5t-40.5 -177.5q0 -106 41 -178t106 -72h580v-207h-715q-68 0 -125 36 t-99 99.5t-64.5 147.5t-22.5 180zM580 885v274h374v-274h-374z" />
<glyph unicode="&#xc0;" d="M74 0l342 1655h418l344 -1655h-318l-53 346h-365l-49 -346h-319zM74 0zM238 1759v201l610 -107v-161zM473 553h303l-135 895h-33z" />
<glyph unicode="&#xc1;" d="M74 0l342 1655h418l344 -1655h-318l-53 346h-365l-49 -346h-319zM74 0zM401 1692v161l611 107v-201zM473 553h303l-135 895h-33z" />
<glyph unicode="&#xc2;" d="M74 0l342 1655h418l344 -1655h-318l-53 346h-365l-49 -346h-319zM74 0zM201 1718l250 242h352l248 -242h-281l-147 146l-142 -146h-280zM473 553h303l-135 895h-33z" />
<glyph unicode="&#xc3;" d="M74 0l342 1655h418l344 -1655h-318l-53 346h-365l-49 -346h-319zM74 0zM178 1753q0 98 68.5 152.5t210.5 54.5q66 0 112.5 -9.5t84.5 -21.5t71 -21.5t70 -9.5q47 0 74.5 13.5t27.5 48.5h174q0 -82 -64.5 -143.5t-207.5 -61.5q-74 0 -123 11.5t-86 25.5t-67.5 25.5 t-65.5 11.5q-61 0 -83 -17.5t-22 -58.5h-174zM473 553h303l-135 895h-33z" />
<glyph unicode="&#xc4;" d="M74 0l342 1655h418l344 -1655h-318l-53 346h-365l-49 -346h-319zM74 0zM211 1751v209h276v-209h-276zM473 553h303l-135 895h-33zM764 1751v209h276v-209h-276z" />
<glyph unicode="&#xc5;" d="M74 0l329 1602q-63 20 -63 116v117q0 70 34 97.5t113 27.5h275q80 0 114.5 -27.5t34.5 -97.5v-117q0 -96 -67 -116l334 -1602h-318l-53 346h-365l-49 -346h-319zM473 553h303l-135 895h-33zM528 1720q0 -33 21.5 -50t52.5 -17h43q43 0 59.5 17.5t16.5 49.5v115 q0 33 -12.5 48t-44.5 15h-80q-31 0 -43.5 -15t-12.5 -48v-115z" />
<glyph unicode="&#xc6;" d="M63 0l164 1655h963v-199h-377v-534h229v-203h-229v-506h377v-203h-637v504h-162l-33 -514h-295zM403 717h150v739h-104z" />
<glyph unicode="&#xc7;" d="M135 0zM135 449v751q0 96 22.5 179t64.5 144.5t99.5 96.5t127.5 35h667v-207h-530q-35 0 -61.5 -20.5t-46 -54.5t-30 -79t-10.5 -94v-751q0 -47 10.5 -91.5t29 -79t46 -55t62.5 -20.5h530v-203h-667q-72 0 -129.5 35t-98.5 95t-63.5 142t-22.5 177zM471 -72h309l-90 -426 h-219v426z" />
<glyph unicode="&#xc8;" d="M119 0v1655h1014v-207h-693v-516h504v-203h-504v-526h693v-203h-1014zM119 0zM238 1759v201l610 -107v-161z" />
<glyph unicode="&#xc9;" d="M119 0v1655h1014v-207h-693v-516h504v-203h-504v-526h693v-203h-1014zM119 0zM401 1692v161l611 107v-201z" />
<glyph unicode="&#xca;" d="M119 0v1655h1014v-207h-693v-516h504v-203h-504v-526h693v-203h-1014zM119 0zM201 1718l250 242h352l248 -242h-281l-147 146l-142 -146h-280z" />
<glyph unicode="&#xcb;" d="M119 0v1655h1014v-207h-693v-516h504v-203h-504v-526h693v-203h-1014zM119 0zM211 1751v209h276v-209h-276zM764 1751v209h276v-209h-276z" />
<glyph unicode="&#xcc;" d="M117 0v203h350v1245h-350v207h1016v-207h-347v-1245h347v-203h-1016zM117 0zM238 1759v201l610 -107v-161z" />
<glyph unicode="&#xcd;" d="M117 0v203h350v1245h-350v207h1016v-207h-347v-1245h347v-203h-1016zM117 0zM401 1692v161l611 107v-201z" />
<glyph unicode="&#xce;" d="M117 0v203h350v1245h-350v207h1016v-207h-347v-1245h347v-203h-1016zM117 0zM201 1718l250 242h352l248 -242h-281l-147 146l-142 -146h-280z" />
<glyph unicode="&#xcf;" d="M117 0v203h350v1245h-350v207h1016v-207h-347v-1245h347v-203h-1016zM117 0zM211 1751v209h276v-209h-276zM764 1751v209h276v-209h-276z" />
<glyph unicode="&#xd0;" d="M31 756v194h84v705h745q68 0 126 -35t100 -96.5t66 -144.5t24 -179v-756q0 -92 -23 -174t-63.5 -142t-99 -96t-130.5 -36h-745v760h-84zM434 201h291q33 0 60.5 20.5t47 54t29.5 77.5t10 91v756q0 49 -10 94t-29.5 79t-47 54.5t-60.5 20.5h-291v-498h301v-194h-301v-555z " />
<glyph unicode="&#xd1;" d="M92 0v1655h316l499 -1245v1245h250v-1655h-358l-459 1110v-1110h-248zM92 0zM178 1753q0 98 68.5 152.5t210.5 54.5q66 0 112.5 -9.5t84.5 -21.5t71 -21.5t70 -9.5q47 0 74.5 13.5t27.5 48.5h174q0 -82 -64.5 -143.5t-207.5 -61.5q-74 0 -123 11.5t-86 25.5t-67.5 25.5 t-65.5 11.5q-61 0 -83 -17.5t-22 -58.5h-174z" />
<glyph unicode="&#xd2;" d="M82 0zM82 449v751q0 96 22.5 179t64.5 144.5t100.5 96.5t129.5 35h455q70 0 129 -35t100 -96.5t64.5 -144.5t23.5 -179v-751q0 -92 -22.5 -174t-63.5 -142.5t-99 -96.5t-132 -36h-455q-72 0 -130 35t-100 96.5t-64.5 143t-22.5 174.5zM238 1759v201l610 -107v-161z M387 449q0 -47 10.5 -91.5t28.5 -79t46 -55t63 -20.5h184q35 0 62.5 20.5t46 54t28.5 77.5t10 94v751q0 51 -10 96t-29.5 79t-47 53.5t-60.5 19.5h-184q-35 0 -62 -20.5t-46 -54.5t-29.5 -79t-10.5 -94v-751z" />
<glyph unicode="&#xd3;" d="M82 0zM82 449v751q0 96 22.5 179t64.5 144.5t100.5 96.5t129.5 35h455q70 0 129 -35t100 -96.5t64.5 -144.5t23.5 -179v-751q0 -92 -22.5 -174t-63.5 -142.5t-99 -96.5t-132 -36h-455q-72 0 -130 35t-100 96.5t-64.5 143t-22.5 174.5zM387 449q0 -47 10.5 -91.5t28.5 -79 t46 -55t63 -20.5h184q35 0 62.5 20.5t46 54t28.5 77.5t10 94v751q0 51 -10 96t-29.5 79t-47 53.5t-60.5 19.5h-184q-35 0 -62 -20.5t-46 -54.5t-29.5 -79t-10.5 -94v-751zM401 1692v161l611 107v-201z" />
<glyph unicode="&#xd4;" d="M82 0zM82 449v751q0 96 22.5 179t64.5 144.5t100.5 96.5t129.5 35h455q70 0 129 -35t100 -96.5t64.5 -144.5t23.5 -179v-751q0 -92 -22.5 -174t-63.5 -142.5t-99 -96.5t-132 -36h-455q-72 0 -130 35t-100 96.5t-64.5 143t-22.5 174.5zM201 1718l250 242h352l248 -242 h-281l-147 146l-142 -146h-280zM387 449q0 -47 10.5 -91.5t28.5 -79t46 -55t63 -20.5h184q35 0 62.5 20.5t46 54t28.5 77.5t10 94v751q0 51 -10 96t-29.5 79t-47 53.5t-60.5 19.5h-184q-35 0 -62 -20.5t-46 -54.5t-29.5 -79t-10.5 -94v-751z" />
<glyph unicode="&#xd5;" d="M82 0zM82 449v751q0 96 22.5 179t64.5 144.5t100.5 96.5t129.5 35h455q70 0 129 -35t100 -96.5t64.5 -144.5t23.5 -179v-751q0 -92 -22.5 -174t-63.5 -142.5t-99 -96.5t-132 -36h-455q-72 0 -130 35t-100 96.5t-64.5 143t-22.5 174.5zM178 1753q0 98 68.5 152.5 t210.5 54.5q66 0 112.5 -9.5t84.5 -21.5t71 -21.5t70 -9.5q47 0 74.5 13.5t27.5 48.5h174q0 -82 -64.5 -143.5t-207.5 -61.5q-74 0 -123 11.5t-86 25.5t-67.5 25.5t-65.5 11.5q-61 0 -83 -17.5t-22 -58.5h-174zM387 449q0 -47 10.5 -91.5t28.5 -79t46 -55t63 -20.5h184 q35 0 62.5 20.5t46 54t28.5 77.5t10 94v751q0 51 -10 96t-29.5 79t-47 53.5t-60.5 19.5h-184q-35 0 -62 -20.5t-46 -54.5t-29.5 -79t-10.5 -94v-751z" />
<glyph unicode="&#xd6;" d="M82 0zM82 449v751q0 96 22.5 179t64.5 144.5t100.5 96.5t129.5 35h455q70 0 129 -35t100 -96.5t64.5 -144.5t23.5 -179v-751q0 -92 -22.5 -174t-63.5 -142.5t-99 -96.5t-132 -36h-455q-72 0 -130 35t-100 96.5t-64.5 143t-22.5 174.5zM211 1751v209h276v-209h-276z M387 449q0 -47 10.5 -91.5t28.5 -79t46 -55t63 -20.5h184q35 0 62.5 20.5t46 54t28.5 77.5t10 94v751q0 51 -10 96t-29.5 79t-47 53.5t-60.5 19.5h-184q-35 0 -62 -20.5t-46 -54.5t-29.5 -79t-10.5 -94v-751zM764 1751v209h276v-209h-276z" />
<glyph unicode="&#xd7;" d="M227 1149l148 149l250 -254l252 250l149 -147l-252 -250l252 -250l-145 -149l-256 254l-246 -250l-148 147l250 248z" />
<glyph unicode="&#xd8;" d="M20 -131l146 276q-39 57 -57.5 135t-18.5 164v756q0 96 22.5 179t64.5 144.5t100.5 96.5t130.5 35h454q49 0 92 -17l66 119h213l-133 -250q78 -121 78 -307v-756q0 -90 -21.5 -170.5t-62.5 -142t-99.5 -98.5t-132.5 -37h-454q-51 0 -95 16l-75 -143h-218zM393 575 l430 814q-41 59 -96 59h-186q-33 0 -60.5 -20.5t-47 -54.5t-30 -79t-10.5 -94v-625zM442 258q18 -27 44 -42t55 -15h186q35 0 62.5 19.5t46 53t28.5 77.5t10 93v633z" />
<glyph unicode="&#xd9;" d="M88 0zM88 449v1206h303v-1206q0 -49 10.5 -93.5t29 -78t45 -54t61.5 -20.5h176q33 0 59.5 20.5t45 54t28.5 77.5t10 94v1206h307v-1206q0 -94 -22.5 -176.5t-63.5 -142.5t-99 -95t-132 -35h-443q-74 0 -132 35t-99 95t-62.5 142t-21.5 177zM238 1759v201l610 -107v-161z " />
<glyph unicode="&#xda;" d="M88 0zM88 449v1206h303v-1206q0 -49 10.5 -93.5t29 -78t45 -54t61.5 -20.5h176q33 0 59.5 20.5t45 54t28.5 77.5t10 94v1206h307v-1206q0 -94 -22.5 -176.5t-63.5 -142.5t-99 -95t-132 -35h-443q-74 0 -132 35t-99 95t-62.5 142t-21.5 177zM401 1692v161l611 107v-201z " />
<glyph unicode="&#xdb;" d="M88 0zM88 449v1206h303v-1206q0 -49 10.5 -93.5t29 -78t45 -54t61.5 -20.5h176q33 0 59.5 20.5t45 54t28.5 77.5t10 94v1206h307v-1206q0 -94 -22.5 -176.5t-63.5 -142.5t-99 -95t-132 -35h-443q-74 0 -132 35t-99 95t-62.5 142t-21.5 177zM201 1718l250 242h352 l248 -242h-281l-147 146l-142 -146h-280z" />
<glyph unicode="&#xdc;" d="M88 0zM88 449v1206h303v-1206q0 -49 10.5 -93.5t29 -78t45 -54t61.5 -20.5h176q33 0 59.5 20.5t45 54t28.5 77.5t10 94v1206h307v-1206q0 -94 -22.5 -176.5t-63.5 -142.5t-99 -95t-132 -35h-443q-74 0 -132 35t-99 95t-62.5 142t-21.5 177zM211 1751v209h276v-209h-276z M764 1751v209h276v-209h-276z" />
<glyph unicode="&#xdd;" d="M47 0zM47 1655h342l236 -789h8l235 789h338l-428 -1059v-596h-317v600zM401 1692v161l611 107v-201z" />
<glyph unicode="&#xde;" d="M94 0v1655h318v-342h428q70 0 128 -42t99 -114t64.5 -166t23.5 -200q0 -109 -22.5 -200t-63.5 -158.5t-99.5 -105.5t-129.5 -38h-428v-289h-318zM412 496h293q147 0 147 301q0 307 -147 307h-293v-608z" />
<glyph unicode="&#xdf;" d="M74 0v1337q0 111 17.5 186.5t56 122t101 66t152.5 19.5h422q162 0 242 -118t80 -308q0 -55 -6 -111.5t-21.5 -107t-42 -90.5t-67.5 -60q33 -18 64.5 -52t56 -86.5t39 -122t14.5 -161.5q0 -102 -23.5 -194.5t-69 -164t-110 -113.5t-145.5 -42h-330v203h221q35 0 65.5 31.5 t52 79.5t34 106.5t12.5 114.5q0 55 -10.5 106t-30 90t-46 62.5t-57.5 23.5h-157v203h157q94 0 95 254q0 135 -29 194.5t-88 59.5h-203q-59 0 -91 -48t-32 -126v-1354h-323z" />
<glyph unicode="&#xe0;" d="M78 0zM78 408q0 86 21.5 161.5t61.5 132t94 88t120 31.5h481v113q0 102 -27.5 137t-95.5 35h-489v207h587q94 0 159 -18.5t106 -64.5t59.5 -125t18.5 -198v-907h-799q-66 0 -120 30.5t-94 85t-61.5 129t-21.5 163.5zM279 1519v201l610 -107v-161zM387 426q0 -223 82 -223 h385v418h-256q-63 0 -104 -10.5t-64.5 -34t-33 -60.5t-9.5 -90z" />
<glyph unicode="&#xe1;" d="M78 0zM78 408q0 86 21.5 161.5t61.5 132t94 88t120 31.5h481v113q0 102 -27.5 137t-95.5 35h-489v207h587q94 0 159 -18.5t106 -64.5t59.5 -125t18.5 -198v-907h-799q-66 0 -120 30.5t-94 85t-61.5 129t-21.5 163.5zM387 426q0 -223 82 -223h385v418h-256 q-63 0 -104 -10.5t-64.5 -34t-33 -60.5t-9.5 -90zM442 1452v161l611 107v-201z" />
<glyph unicode="&#xe2;" d="M78 0zM78 408q0 86 21.5 161.5t61.5 132t94 88t120 31.5h481v113q0 102 -27.5 137t-95.5 35h-489v207h587q94 0 159 -18.5t106 -64.5t59.5 -125t18.5 -198v-907h-799q-66 0 -120 30.5t-94 85t-61.5 129t-21.5 163.5zM242 1478l250 242h352l248 -242h-281l-147 146 l-142 -146h-280zM387 426q0 -223 82 -223h385v418h-256q-63 0 -104 -10.5t-64.5 -34t-33 -60.5t-9.5 -90z" />
<glyph unicode="&#xe3;" d="M78 0zM78 408q0 86 21.5 161.5t61.5 132t94 88t120 31.5h481v113q0 102 -27.5 137t-95.5 35h-489v207h587q94 0 159 -18.5t106 -64.5t59.5 -125t18.5 -198v-907h-799q-66 0 -120 30.5t-94 85t-61.5 129t-21.5 163.5zM219 1513q0 98 68.5 152.5t210.5 54.5 q66 0 112.5 -9.5t84.5 -21.5t71 -21.5t70 -9.5q47 0 74.5 13.5t27.5 48.5h174q0 -82 -64.5 -143.5t-207.5 -61.5q-74 0 -123 11.5t-86 25.5t-67.5 25.5t-65.5 11.5q-61 0 -83 -17.5t-22 -58.5h-174zM387 426q0 -223 82 -223h385v418h-256q-63 0 -104 -10.5t-64.5 -34 t-33 -60.5t-9.5 -90z" />
<glyph unicode="&#xe4;" d="M78 0zM78 408q0 86 21.5 161.5t61.5 132t94 88t120 31.5h481v113q0 102 -27.5 137t-95.5 35h-489v207h587q94 0 159 -18.5t106 -64.5t59.5 -125t18.5 -198v-907h-799q-66 0 -120 30.5t-94 85t-61.5 129t-21.5 163.5zM252 1511v209h276v-209h-276zM387 426q0 -223 82 -223 h385v418h-256q-63 0 -104 -10.5t-64.5 -34t-33 -60.5t-9.5 -90zM805 1511v209h276v-209h-276z" />
<glyph unicode="&#xe5;" d="M78 0zM78 408q0 86 21.5 161.5t61.5 132t94 88t120 31.5h481v113q0 102 -27.5 137t-95.5 35h-489v207h587q94 0 159 -18.5t106 -64.5t59.5 -125t18.5 -198v-907h-799q-66 0 -120 30.5t-94 85t-61.5 129t-21.5 163.5zM381 1540v117q0 70 34 97.5t113 27.5h275 q80 0 114.5 -27.5t34.5 -97.5v-117q0 -72 -34.5 -99.5t-114.5 -27.5h-275q-80 0 -113.5 28t-33.5 99zM387 426q0 -223 82 -223h385v418h-256q-63 0 -104 -10.5t-64.5 -34t-33 -60.5t-9.5 -90zM569 1542q0 -33 21.5 -50t52.5 -17h43q43 0 59.5 17.5t16.5 49.5v115 q0 33 -12.5 48t-44.5 15h-80q-31 0 -43.5 -15t-12.5 -48v-115z" />
<glyph unicode="&#xe6;" d="M16 408q0 217 67 315t171 98h252v113q0 102 -22.5 137t-75.5 35h-258v207h337q47 0 84 -7.5t66 -23.5q55 31 139 31h232q104 0 163.5 -93.5t59.5 -295.5q0 -203 -56.5 -291t-166.5 -88h-248v-117q0 -74 6 -119t20.5 -68.5t40 -30.5t62.5 -7h252v-203h-887q-53 0 -96 29.5 t-75 83t-49.5 128t-17.5 167.5zM262 426q0 -223 66 -223h176v418h-74q-51 0 -84 -10.5t-51.5 -34t-25.5 -60.5t-7 -90zM760 733h145q27 0 45.5 6t29.5 26.5t16 58.5t5 102q0 61 -4 97t-15 54.5t-29.5 23.5t-47.5 5h-45q-59 0 -79.5 -45t-20.5 -172v-156z" />
<glyph unicode="&#xe7;" d="M109 0zM109 430v455q0 119 19 200.5t60 132t105.5 73t155.5 22.5h694v-207h-588q-37 0 -61.5 -10.5t-38 -35t-19.5 -67.5t-6 -108v-477q0 -158 68 -191q33 -16 215 -16q33 0 85 1t132 1h213v-203h-694q-90 0 -155 22.5t-106 72.5t-60 132t-19 203zM512 -72h309l-90 -426 h-219v426z" />
<glyph unicode="&#xe8;" d="M90 0zM90 430v455q0 119 19.5 200.5t60.5 132t104.5 73t153.5 22.5h455q129 0 204.5 -93.5t75.5 -295.5q0 -203 -70.5 -291t-209.5 -88h-473v-117q0 -74 7 -119t25.5 -68.5t50 -30.5t78.5 -7h480v-203h-623q-90 0 -153.5 22.5t-104.5 72.5t-60.5 132t-19.5 203zM238 1519 v201l610 -107v-161zM410 733h344q33 0 56.5 6t37.5 26.5t20 58.5t6 102q0 61 -5 97t-18 54.5t-36.5 23.5t-60.5 5h-219q-37 0 -61.5 -10.5t-39 -35t-19.5 -66.5t-5 -105v-156z" />
<glyph unicode="&#xe9;" d="M90 0zM90 430v455q0 119 19.5 200.5t60.5 132t104.5 73t153.5 22.5h455q129 0 204.5 -93.5t75.5 -295.5q0 -203 -70.5 -291t-209.5 -88h-473v-117q0 -74 7 -119t25.5 -68.5t50 -30.5t78.5 -7h480v-203h-623q-90 0 -153.5 22.5t-104.5 72.5t-60.5 132t-19.5 203zM401 1452 v161l611 107v-201zM410 733h344q33 0 56.5 6t37.5 26.5t20 58.5t6 102q0 61 -5 97t-18 54.5t-36.5 23.5t-60.5 5h-219q-37 0 -61.5 -10.5t-39 -35t-19.5 -66.5t-5 -105v-156z" />
<glyph unicode="&#xea;" d="M90 0zM90 430v455q0 119 19.5 200.5t60.5 132t104.5 73t153.5 22.5h455q129 0 204.5 -93.5t75.5 -295.5q0 -203 -70.5 -291t-209.5 -88h-473v-117q0 -74 7 -119t25.5 -68.5t50 -30.5t78.5 -7h480v-203h-623q-90 0 -153.5 22.5t-104.5 72.5t-60.5 132t-19.5 203zM201 1478 l250 242h352l248 -242h-281l-147 146l-142 -146h-280zM410 733h344q33 0 56.5 6t37.5 26.5t20 58.5t6 102q0 61 -5 97t-18 54.5t-36.5 23.5t-60.5 5h-219q-37 0 -61.5 -10.5t-39 -35t-19.5 -66.5t-5 -105v-156z" />
<glyph unicode="&#xeb;" d="M90 0zM90 430v455q0 119 19.5 200.5t60.5 132t104.5 73t153.5 22.5h455q129 0 204.5 -93.5t75.5 -295.5q0 -203 -70.5 -291t-209.5 -88h-473v-117q0 -74 7 -119t25.5 -68.5t50 -30.5t78.5 -7h480v-203h-623q-90 0 -153.5 22.5t-104.5 72.5t-60.5 132t-19.5 203zM211 1511 v209h276v-209h-276zM410 733h344q33 0 56.5 6t37.5 26.5t20 58.5t6 102q0 61 -5 97t-18 54.5t-36.5 23.5t-60.5 5h-219q-37 0 -61.5 -10.5t-39 -35t-19.5 -66.5t-5 -105v-156zM764 1511v209h276v-209h-276z" />
<glyph unicode="&#xec;" d="M106 0v203h363v903h-363v207h680v-1110h357v-203h-1037zM106 0zM218 1519v201l610 -107v-161z" />
<glyph unicode="&#xed;" d="M106 0v203h363v903h-363v207h680v-1110h357v-203h-1037zM106 0zM340 1452v161l611 107v-201z" />
<glyph unicode="&#xee;" d="M106 0v203h363v903h-363v207h680v-1110h357v-203h-1037zM106 0zM160 1478l250 242h352l248 -242h-281l-147 146l-142 -146h-280z" />
<glyph unicode="&#xef;" d="M106 0v203h363v903h-363v207h680v-1110h357v-203h-1037zM106 0zM170 1511v209h276v-209h-276zM723 1511v209h276v-209h-276z" />
<glyph unicode="&#xf0;" d="M90 403v574q0 152 68.5 245t201.5 93h486q0 66 -7.5 106.5t-21.5 64t-37.5 33t-56.5 9.5h-440v203h540q92 0 156.5 -18.5t105.5 -63.5t59.5 -122t18.5 -192v-932q0 -117 -18.5 -194.5t-59.5 -123.5t-105.5 -65.5t-156.5 -19.5h-393q-92 0 -157.5 19.5t-105.5 65.5 t-58.5 124t-18.5 194zM408 379q0 -100 29.5 -138t92.5 -38h193q33 0 56.5 10t37.5 34.5t21.5 67.5t7.5 109v682h-369q-68 0 -67 -139z" />
<glyph unicode="&#xf1;" d="M90 0v1313h731q92 0 156.5 -18.5t104.5 -64.5t58.5 -125t18.5 -198v-907h-313v885q0 66 -6 108.5t-21.5 67t-39 35t-56.5 10.5h-315v-1106h-318zM90 0zM178 1513q0 98 68.5 152.5t210.5 54.5q66 0 112.5 -9.5t84.5 -21.5t71 -21.5t70 -9.5q47 0 74.5 13.5t27.5 48.5h174 q0 -82 -64.5 -143.5t-207.5 -61.5q-74 0 -123 11.5t-86 25.5t-67.5 25.5t-65.5 11.5q-61 0 -83 -17.5t-22 -58.5h-174z" />
<glyph unicode="&#xf2;" d="M66 0zM66 430v455q0 119 18 200.5t59 132t106.5 73t158.5 22.5h438q88 0 151.5 -22.5t105.5 -73t62.5 -132t20.5 -200.5v-455q0 -121 -19.5 -203t-61.5 -132t-106.5 -72.5t-152.5 -22.5h-438q-92 0 -158 22.5t-107 72.5t-59 132t-18 203zM238 1519v201l610 -107v-161z M387 434q0 -123 27.5 -177t97.5 -54h225q72 0 98.5 54t26.5 173v455q0 117 -26.5 169t-98.5 52h-225q-70 0 -97.5 -52.5t-27.5 -168.5v-451z" />
<glyph unicode="&#xf3;" d="M66 0zM66 430v455q0 119 18 200.5t59 132t106.5 73t158.5 22.5h438q88 0 151.5 -22.5t105.5 -73t62.5 -132t20.5 -200.5v-455q0 -121 -19.5 -203t-61.5 -132t-106.5 -72.5t-152.5 -22.5h-438q-92 0 -158 22.5t-107 72.5t-59 132t-18 203zM387 434q0 -123 27.5 -177 t97.5 -54h225q72 0 98.5 54t26.5 173v455q0 117 -26.5 169t-98.5 52h-225q-70 0 -97.5 -52.5t-27.5 -168.5v-451zM401 1452v161l611 107v-201z" />
<glyph unicode="&#xf4;" d="M66 0zM66 430v455q0 119 18 200.5t59 132t106.5 73t158.5 22.5h438q88 0 151.5 -22.5t105.5 -73t62.5 -132t20.5 -200.5v-455q0 -121 -19.5 -203t-61.5 -132t-106.5 -72.5t-152.5 -22.5h-438q-92 0 -158 22.5t-107 72.5t-59 132t-18 203zM201 1478l250 242h352l248 -242 h-281l-147 146l-142 -146h-280zM387 434q0 -123 27.5 -177t97.5 -54h225q72 0 98.5 54t26.5 173v455q0 117 -26.5 169t-98.5 52h-225q-70 0 -97.5 -52.5t-27.5 -168.5v-451z" />
<glyph unicode="&#xf5;" d="M66 0zM66 430v455q0 119 18 200.5t59 132t106.5 73t158.5 22.5h438q88 0 151.5 -22.5t105.5 -73t62.5 -132t20.5 -200.5v-455q0 -121 -19.5 -203t-61.5 -132t-106.5 -72.5t-152.5 -22.5h-438q-92 0 -158 22.5t-107 72.5t-59 132t-18 203zM178 1513q0 98 68.5 152.5 t210.5 54.5q66 0 112.5 -9.5t84.5 -21.5t71 -21.5t70 -9.5q47 0 74.5 13.5t27.5 48.5h174q0 -82 -64.5 -143.5t-207.5 -61.5q-74 0 -123 11.5t-86 25.5t-67.5 25.5t-65.5 11.5q-61 0 -83 -17.5t-22 -58.5h-174zM387 434q0 -123 27.5 -177t97.5 -54h225q72 0 98.5 54 t26.5 173v455q0 117 -26.5 169t-98.5 52h-225q-70 0 -97.5 -52.5t-27.5 -168.5v-451z" />
<glyph unicode="&#xf6;" d="M66 0zM66 430v455q0 119 18 200.5t59 132t106.5 73t158.5 22.5h438q88 0 151.5 -22.5t105.5 -73t62.5 -132t20.5 -200.5v-455q0 -121 -19.5 -203t-61.5 -132t-106.5 -72.5t-152.5 -22.5h-438q-92 0 -158 22.5t-107 72.5t-59 132t-18 203zM211 1511v209h276v-209h-276z M387 434q0 -123 27.5 -177t97.5 -54h225q72 0 98.5 54t26.5 173v455q0 117 -26.5 169t-98.5 52h-225q-70 0 -97.5 -52.5t-27.5 -168.5v-451zM764 1511v209h276v-209h-276z" />
<glyph unicode="&#xf7;" d="M168 797v209h913v-209h-913zM467 410v247h317v-247h-317zM467 1163v244h317v-244h-317z" />
<glyph unicode="&#xf8;" d="M63 -156l115 219q-59 45 -84.5 132.5t-25.5 234.5v455q0 119 19 200.5t60 132t105.5 73t155.5 22.5h432l100 186h213l-121 -223q80 -43 118 -134t38 -257v-455q0 -121 -20.5 -203t-61.5 -132t-106.5 -72.5t-153.5 -22.5h-481l-86 -156h-216zM389 459l344 647h-219 q-72 0 -98.5 -52.5t-26.5 -168.5v-426zM471 209q25 -6 43 -6h227q70 0 96.5 54t26.5 173v520z" />
<glyph unicode="&#xf9;" d="M88 0zM88 403v910h315v-887q0 -70 6.5 -113t19.5 -67.5t38 -33.5t61 -9h318v1110h317v-1313h-737q-92 0 -155.5 19.5t-104.5 65.5t-59.5 124t-18.5 194zM238 1519v201l610 -107v-161z" />
<glyph unicode="&#xfa;" d="M88 0zM88 403v910h315v-887q0 -70 6.5 -113t19.5 -67.5t38 -33.5t61 -9h318v1110h317v-1313h-737q-92 0 -155.5 19.5t-104.5 65.5t-59.5 124t-18.5 194zM401 1452v161l611 107v-201z" />
<glyph unicode="&#xfb;" d="M88 0zM88 403v910h315v-887q0 -70 6.5 -113t19.5 -67.5t38 -33.5t61 -9h318v1110h317v-1313h-737q-92 0 -155.5 19.5t-104.5 65.5t-59.5 124t-18.5 194zM201 1478l250 242h352l248 -242h-281l-147 146l-142 -146h-280z" />
<glyph unicode="&#xfc;" d="M88 0zM88 403v910h315v-887q0 -70 6.5 -113t19.5 -67.5t38 -33.5t61 -9h318v1110h317v-1313h-737q-92 0 -155.5 19.5t-104.5 65.5t-59.5 124t-18.5 194zM211 1511v209h276v-209h-276zM764 1511v209h276v-209h-276z" />
<glyph unicode="&#xfd;" d="M33 0zM33 1313h344l282 -854h11l284 854h271l-658 -1811h-282l213 533zM401 1452v161l611 107v-201z" />
<glyph unicode="&#xfe;" d="M78 -498v2229h315v-418h436q88 0 154 -21.5t108 -72t62.5 -133t20.5 -203.5v-453q0 -121 -19.5 -203t-60.5 -132t-106.5 -72.5t-158.5 -22.5h-436v-498h-315zM393 203h336q35 0 59.5 9t39 32.5t20.5 63.5t6 104v499q0 70 -10 109t-37 57.5t-74 22.5t-119 4h-221v-901z " />
<glyph unicode="&#xff;" d="M33 0zM33 1313h344l282 -854h11l284 854h271l-658 -1811h-282l213 533zM211 1511v209h276v-209h-276zM764 1511v209h276v-209h-276z" />
<glyph unicode="&#x152;" d="M82 403v852q0 117 18.5 194t60.5 123t106.5 64.5t156.5 18.5h743v-207h-256v-516h213v-203h-213v-526h256v-203h-743q-94 0 -158.5 19.5t-105.5 65.5t-59.5 124t-18.5 194zM401 410q0 -119 29 -163t94 -44h138v1247h-138q-70 0 -96.5 -45t-26.5 -162v-833z" />
<glyph unicode="&#x153;" d="M18 430v455q0 119 15.5 200.5t48.5 132t85 73t128 22.5h205q86 0 143 -33q57 33 145 33h218q104 0 165.5 -93.5t61.5 -295.5q0 -203 -57.5 -291t-169.5 -88h-232v-166q0 -57 7 -92t22.5 -53.5t40 -24.5t59.5 -6h240v-203h-355q-88 0 -145 33q-57 -33 -143 -33h-205 q-76 0 -128 22.5t-85 72.5t-48.5 132t-15.5 203zM279 434q0 -123 22.5 -177t77.5 -54h33q59 0 80.5 54t21.5 173v455q0 117 -21.5 169t-80.5 52h-33q-55 0 -77.5 -52.5t-22.5 -168.5v-451zM772 733h129q27 0 46.5 6t30.5 26.5t16 58.5t5 102q0 61 -4 97t-15 54.5t-29.5 23.5 t-49.5 5h-27q-61 0 -81.5 -45t-20.5 -172v-156z" />
<glyph unicode="&#x178;" d="M47 0zM47 1655h342l236 -789h8l235 789h338l-428 -1059v-596h-317v600zM211 1751v209h276v-209h-276zM764 1751v209h276v-209h-276z" />
<glyph unicode="&#x2c6;" d="M201 1376l250 242h352l248 -242h-281l-147 146l-142 -146h-280z" />
<glyph unicode="&#x2dc;" d="M178 1411q0 98 68.5 152.5t210.5 54.5q66 0 112.5 -9.5t84.5 -21.5t71 -21.5t70 -9.5q47 0 74.5 13.5t27.5 48.5h174q0 -82 -64.5 -143.5t-207.5 -61.5q-74 0 -123 11.5t-86 25.5t-67.5 25.5t-65.5 11.5q-61 0 -83 -17.5t-22 -58.5h-174z" />
<glyph unicode="&#x2000;" horiz-adv-x="980" />
<glyph unicode="&#x2001;" horiz-adv-x="1960" />
<glyph unicode="&#x2002;" horiz-adv-x="980" />
<glyph unicode="&#x2003;" horiz-adv-x="1960" />
<glyph unicode="&#x2004;" horiz-adv-x="653" />
<glyph unicode="&#x2005;" horiz-adv-x="490" />
<glyph unicode="&#x2006;" horiz-adv-x="326" />
<glyph unicode="&#x2007;" horiz-adv-x="326" />
<glyph unicode="&#x2008;" horiz-adv-x="245" />
<glyph unicode="&#x2009;" horiz-adv-x="392" />
<glyph unicode="&#x200a;" horiz-adv-x="108" />
<glyph unicode="&#x2010;" d="M115 664v208h1020v-208h-1020z" />
<glyph unicode="&#x2011;" d="M115 664v208h1020v-208h-1020z" />
<glyph unicode="&#x2012;" d="M115 664v208h1020v-208h-1020z" />
<glyph unicode="&#x2013;" d="M115 664v208h1020v-208h-1020zM115 664z" />
<glyph unicode="&#x2014;" d="M115 664v208h1020v-208h-1020zM115 664z" />
<glyph unicode="&#x2018;" d="M408 1110l161 621h275l-53 -621h-383z" />
<glyph unicode="&#x2019;" d="M408 1110l53 621h383l-162 -621h-274z" />
<glyph unicode="&#x201a;" d="M408 -381l53 621h383l-162 -621h-274z" />
<glyph unicode="&#x201c;" d="M152 1110l161 621h275l-53 -621h-383zM664 1110l161 621h275l-53 -621h-383z" />
<glyph unicode="&#x201d;" d="M152 1110l53 621h383l-162 -621h-274zM664 1110l53 621h383l-162 -621h-274z" />
<glyph unicode="&#x201e;" d="M152 -381l53 621h383l-162 -621h-274zM664 -381l53 621h383l-162 -621h-274z" />
<glyph unicode="&#x2022;" d="M291 512v684h667v-684h-667z" />
<glyph unicode="&#x2026;" d="M63 0v246h320v-246h-320zM473 0v246h318v-246h-318zM874 0v246h316v-246h-316z" />
<glyph unicode="&#x202f;" horiz-adv-x="392" />
<glyph unicode="&#x2039;" d="M420 690v123l411 346v-194l-292 -217l292 -218v-194z" />
<glyph unicode="&#x203a;" d="M420 336v194l295 218l-295 217v194l411 -346v-123z" />
<glyph unicode="&#x205f;" horiz-adv-x="490" />
<glyph unicode="&#x20ac;" d="M98 496v204h140v211h-140v209h140q8 535 315 535h600v-207h-467q-41 0 -69.5 -17.5t-46 -55.5t-24.5 -100.5t-7 -154.5h311v-209h-311v-211h311v-204h-311v-52q0 -51 10 -95t29.5 -76.5t47 -52t60.5 -19.5h467v-205h-600q-307 0 -315 500h-140z" />
<glyph unicode="&#x2122;" d="M47 1550v111h424v-111h-106v-790h-199v790h-119zM588 760v899h188l121 -658l119 658h192v-899h-135v432l-110 -432h-136l-100 428v-428h-139z" />
<glyph unicode="&#x25fc;" horiz-adv-x="1310" d="M0 0v1311h1311v-1311h-1311z" />
</font>
</defs>
</svg>
